G75*
G70*
%OFA0B0*%
%FSLAX24Y24*%
%IPPOS*%
%LPD*%
%AMOC8*
5,1,8,0,0,1.08239X$1,22.5*
%
%ADD10C,0.1300*%
%ADD11C,0.1740*%
%ADD12C,0.0780*%
%ADD13R,0.0640X0.0640*%
%ADD14C,0.0640*%
%ADD15C,0.1440*%
%ADD16C,0.1015*%
%ADD17R,0.0540X0.0540*%
%ADD18C,0.0540*%
D10*
X001554Y010889D03*
X001554Y033389D03*
X012554Y033389D03*
X012554Y010889D03*
D11*
X010454Y006482D03*
X010454Y004120D03*
X012305Y005301D03*
D12*
X011554Y022089D03*
X011554Y023089D03*
X010554Y023089D03*
X010554Y022089D03*
X009554Y022089D03*
X009554Y023089D03*
X008554Y023089D03*
X008554Y022089D03*
X007554Y022089D03*
X007554Y023089D03*
X006554Y023089D03*
X006554Y022089D03*
X005554Y022089D03*
X005554Y023089D03*
X004554Y023089D03*
X004554Y022089D03*
X003554Y022089D03*
X003554Y023089D03*
X002554Y023089D03*
X002554Y022089D03*
X001554Y016889D03*
X001554Y015889D03*
X001554Y014889D03*
X001554Y013889D03*
X001554Y012889D03*
D13*
X002904Y007789D03*
D14*
X002054Y003339D03*
X003054Y003339D03*
X003904Y007789D03*
X003404Y008789D03*
X004404Y008789D03*
X004904Y007789D03*
X005404Y008789D03*
X005904Y007789D03*
X006404Y008789D03*
X006254Y003339D03*
X007254Y003339D03*
X009554Y024389D03*
X009554Y025389D03*
X009554Y026389D03*
X009554Y027389D03*
X009554Y028389D03*
X009554Y029389D03*
X009554Y030389D03*
X009554Y031389D03*
X009554Y032389D03*
X009554Y033389D03*
X004554Y033389D03*
X004554Y032389D03*
X004554Y031389D03*
X004554Y030389D03*
X004554Y029389D03*
X004554Y028389D03*
X004554Y027389D03*
X004554Y026389D03*
X004554Y025389D03*
X004554Y024389D03*
D15*
X002404Y005289D03*
X006904Y005289D03*
D16*
X007804Y006439D03*
X001504Y006439D03*
D17*
X002724Y031439D03*
D18*
X002724Y030639D03*
X002724Y029839D03*
X002724Y029039D03*
X002724Y028239D03*
X002724Y027439D03*
X002724Y026639D03*
X002724Y025839D03*
X002724Y025039D03*
X002724Y024239D03*
X011384Y024236D03*
X011384Y025036D03*
X011384Y025836D03*
X011384Y026636D03*
X011384Y027436D03*
X011384Y028236D03*
X011384Y029036D03*
X011384Y029836D03*
X011384Y030636D03*
X011384Y031436D03*
M02*
