G75*
G70*
%OFA0B0*%
%FSLAX24Y24*%
%IPPOS*%
%LPD*%
%AMOC8*
5,1,8,0,0,1.08239X$1,22.5*
%
%ADD10C,0.0080*%
%ADD11C,0.1700*%
%ADD12C,0.0740*%
%ADD13R,0.0600X0.0600*%
%ADD14C,0.0600*%
%ADD15C,0.0975*%
%ADD16R,0.0500X0.0500*%
%ADD17C,0.0500*%
%ADD18C,0.0160*%
%ADD19C,0.0356*%
%ADD20C,0.0100*%
D10*
X012394Y025101D02*
X012394Y025312D01*
X012464Y025382D01*
X012745Y025382D01*
X012815Y025312D01*
X012815Y025101D01*
X012394Y025101D01*
X012464Y025562D02*
X012394Y025632D01*
X012394Y025772D01*
X012464Y025842D01*
X012604Y025842D01*
X012675Y025772D01*
X012675Y025632D01*
X012604Y025562D01*
X012464Y025562D01*
X012394Y026022D02*
X012675Y026022D01*
X012675Y026232D01*
X012604Y026302D01*
X012394Y026302D01*
X012464Y026783D02*
X012394Y026853D01*
X012464Y026783D02*
X012745Y026783D01*
X012675Y026713D02*
X012675Y026853D01*
X012745Y026553D02*
X012675Y026483D01*
X012745Y026553D02*
X012885Y026553D01*
X012815Y027480D02*
X012815Y027690D01*
X012745Y027760D01*
X012604Y027760D01*
X012534Y027690D01*
X012534Y027480D01*
X012394Y027480D02*
X012815Y027480D01*
X012675Y028010D02*
X012675Y028150D01*
X012604Y028221D01*
X012394Y028221D01*
X012394Y028010D01*
X012464Y027940D01*
X012534Y028010D01*
X012534Y028221D01*
X012394Y028401D02*
X012675Y028401D01*
X012675Y028611D01*
X012604Y028681D01*
X012394Y028681D01*
X012394Y028861D02*
X012394Y029001D01*
X012394Y028931D02*
X012675Y028931D01*
X012675Y028861D01*
X012815Y028931D02*
X012885Y028931D01*
X012604Y029168D02*
X012464Y029168D01*
X012394Y029238D01*
X012394Y029448D01*
X012675Y029448D02*
X012675Y029238D01*
X012604Y029168D01*
D11*
X010454Y006482D03*
X010454Y004120D03*
X012305Y005301D03*
D12*
X011554Y022089D03*
X011554Y023089D03*
X010554Y023089D03*
X010554Y022089D03*
X009554Y022089D03*
X009554Y023089D03*
X008554Y023089D03*
X008554Y022089D03*
X007554Y022089D03*
X007554Y023089D03*
X006554Y023089D03*
X006554Y022089D03*
X005554Y022089D03*
X005554Y023089D03*
X004554Y023089D03*
X004554Y022089D03*
X003554Y022089D03*
X003554Y023089D03*
X002554Y023089D03*
X002554Y022089D03*
X001554Y016889D03*
X001554Y015889D03*
X001554Y014889D03*
X001554Y013889D03*
X001554Y012889D03*
D13*
X002904Y007789D03*
D14*
X003404Y008789D03*
X003904Y007789D03*
X004404Y008789D03*
X004904Y007789D03*
X005404Y008789D03*
X005904Y007789D03*
X006404Y008789D03*
X006254Y003339D03*
X007254Y003339D03*
X003054Y003339D03*
X002054Y003339D03*
X004554Y024389D03*
X004554Y025389D03*
X004554Y026389D03*
X004554Y027389D03*
X004554Y028389D03*
X004554Y029389D03*
X004554Y030389D03*
X004554Y031389D03*
X004554Y032389D03*
X004554Y033389D03*
X009554Y033389D03*
X009554Y032389D03*
X009554Y031389D03*
X009554Y030389D03*
X009554Y029389D03*
X009554Y028389D03*
X009554Y027389D03*
X009554Y026389D03*
X009554Y025389D03*
X009554Y024389D03*
D15*
X007804Y006439D03*
X001504Y006439D03*
D16*
X002724Y031439D03*
D17*
X002724Y030639D03*
X002724Y029839D03*
X002724Y029039D03*
X002724Y028239D03*
X002724Y027439D03*
X002724Y026639D03*
X002724Y025839D03*
X002724Y025039D03*
X002724Y024239D03*
X011384Y024236D03*
X011384Y025036D03*
X011384Y025836D03*
X011384Y026636D03*
X011384Y027436D03*
X011384Y028236D03*
X011384Y029036D03*
X011384Y029836D03*
X011384Y030636D03*
X011384Y031436D03*
D18*
X000854Y003013D02*
X001179Y002689D01*
X012930Y002689D01*
X013254Y003013D01*
X013254Y004899D01*
X013208Y004802D01*
X013146Y004704D01*
X013074Y004614D01*
X012992Y004532D01*
X012902Y004460D01*
X012804Y004398D01*
X012699Y004348D01*
X012590Y004310D01*
X012478Y004284D01*
X012385Y004274D01*
X012385Y005221D01*
X012225Y005221D01*
X012225Y004274D01*
X012132Y004284D01*
X012019Y004310D01*
X011910Y004348D01*
X011806Y004398D01*
X011708Y004460D01*
X011617Y004532D01*
X011536Y004614D01*
X011463Y004704D01*
X011402Y004802D01*
X011352Y004906D01*
X011313Y005016D01*
X011288Y005128D01*
X011277Y005221D01*
X012225Y005221D01*
X012225Y005381D01*
X011277Y005381D01*
X011288Y005474D01*
X011313Y005587D01*
X011352Y005696D01*
X011402Y005800D01*
X011463Y005898D01*
X011536Y005989D01*
X011617Y006070D01*
X011708Y006143D01*
X011806Y006204D01*
X011910Y006254D01*
X012019Y006293D01*
X012132Y006318D01*
X012225Y006329D01*
X012225Y005381D01*
X012385Y005381D01*
X012385Y006329D01*
X012478Y006318D01*
X012590Y006293D01*
X012699Y006254D01*
X012804Y006204D01*
X012902Y006143D01*
X012992Y006070D01*
X013074Y005989D01*
X013146Y005898D01*
X013208Y005800D01*
X013254Y005703D01*
X013254Y010462D01*
X013241Y010430D01*
X013013Y010202D01*
X012715Y010079D01*
X012393Y010079D01*
X012096Y010202D01*
X011868Y010430D01*
X011744Y010728D01*
X011744Y011050D01*
X011868Y011347D01*
X012096Y011575D01*
X012393Y011699D01*
X012715Y011699D01*
X013013Y011575D01*
X013241Y011347D01*
X013254Y011315D01*
X013254Y030689D01*
X009854Y034089D01*
X004254Y034089D01*
X000854Y030689D01*
X000854Y029095D01*
X002299Y030540D01*
X002294Y030553D01*
X002294Y030724D01*
X002359Y030882D01*
X002480Y031003D01*
X002493Y031009D01*
X002399Y031009D01*
X002294Y031114D01*
X002294Y031763D01*
X002399Y031869D01*
X003048Y031869D01*
X003154Y031763D01*
X003154Y031114D01*
X003048Y031009D01*
X002954Y031009D01*
X002967Y031003D01*
X003088Y030882D01*
X003154Y030724D01*
X003154Y030553D01*
X003088Y030395D01*
X002967Y030274D01*
X002881Y030239D01*
X002967Y030203D01*
X003088Y030082D01*
X003154Y029924D01*
X003154Y029753D01*
X003088Y029595D01*
X002967Y029474D01*
X002881Y029439D01*
X002967Y029403D01*
X003088Y029282D01*
X003094Y029269D01*
X003499Y029269D01*
X003621Y029147D01*
X003726Y029147D01*
X003857Y029092D01*
X003958Y028991D01*
X004012Y028860D01*
X004012Y028717D01*
X003971Y028619D01*
X004130Y028619D01*
X004147Y028661D01*
X004282Y028796D01*
X004459Y028869D01*
X004650Y028869D01*
X004826Y028796D01*
X004961Y028661D01*
X005034Y028484D01*
X005034Y028293D01*
X004961Y028117D01*
X004826Y027982D01*
X004650Y027909D01*
X004459Y027909D01*
X004282Y027982D01*
X004147Y028117D01*
X004130Y028159D01*
X003154Y028159D01*
X003154Y028153D01*
X003088Y027995D01*
X002967Y027874D01*
X002881Y027839D01*
X002967Y027803D01*
X003088Y027682D01*
X003154Y027524D01*
X003154Y027353D01*
X003148Y027340D01*
X003869Y026619D01*
X004130Y026619D01*
X004147Y026661D01*
X004282Y026796D01*
X004459Y026869D01*
X004650Y026869D01*
X004826Y026796D01*
X004961Y026661D01*
X005034Y026484D01*
X005034Y026293D01*
X004961Y026117D01*
X004826Y025982D01*
X004650Y025909D01*
X004459Y025909D01*
X004282Y025982D01*
X004147Y026117D01*
X004130Y026159D01*
X003869Y026159D01*
X003679Y026159D01*
X003154Y026684D01*
X003154Y026553D01*
X003088Y026395D01*
X002967Y026274D01*
X002881Y026239D01*
X002967Y026203D01*
X003088Y026082D01*
X003154Y025924D01*
X003154Y025753D01*
X003088Y025595D01*
X002967Y025474D01*
X002881Y025439D01*
X002967Y025403D01*
X003088Y025282D01*
X003094Y025269D01*
X003309Y025269D01*
X003499Y025269D01*
X003650Y025119D01*
X004147Y025119D01*
X004074Y025293D01*
X004074Y025484D01*
X004147Y025661D01*
X004282Y025796D01*
X004459Y025869D01*
X004650Y025869D01*
X004826Y025796D01*
X004961Y025661D01*
X005034Y025484D01*
X005034Y025293D01*
X004962Y025119D01*
X008959Y025119D01*
X009092Y025251D01*
X009074Y025293D01*
X009074Y025484D01*
X009147Y025661D01*
X009282Y025796D01*
X009459Y025869D01*
X009650Y025869D01*
X009826Y025796D01*
X009961Y025661D01*
X010034Y025484D01*
X010034Y025293D01*
X009961Y025117D01*
X009826Y024982D01*
X009650Y024909D01*
X009459Y024909D01*
X009417Y024926D01*
X009289Y024798D01*
X009459Y024869D01*
X009650Y024869D01*
X009826Y024796D01*
X009961Y024661D01*
X010034Y024484D01*
X010034Y024293D01*
X009961Y024117D01*
X009826Y023982D01*
X009650Y023909D01*
X009459Y023909D01*
X009282Y023982D01*
X009147Y024117D01*
X009074Y024293D01*
X009074Y024484D01*
X009147Y024659D01*
X008959Y024659D01*
X004962Y024659D01*
X005034Y024484D01*
X005034Y024293D01*
X004961Y024117D01*
X004826Y023982D01*
X004650Y023909D01*
X004459Y023909D01*
X004417Y023926D01*
X004084Y023593D01*
X003956Y023465D01*
X004021Y023400D01*
X004054Y023319D01*
X004088Y023400D01*
X004243Y023555D01*
X004445Y023639D01*
X004664Y023639D01*
X004866Y023555D01*
X005021Y023400D01*
X005054Y023319D01*
X005088Y023400D01*
X005243Y023555D01*
X005445Y023639D01*
X005664Y023639D01*
X005866Y023555D01*
X006021Y023400D01*
X006054Y023319D01*
X006088Y023400D01*
X006243Y023555D01*
X006445Y023639D01*
X006664Y023639D01*
X006866Y023555D01*
X007021Y023400D01*
X007054Y023319D01*
X007088Y023400D01*
X007243Y023555D01*
X007445Y023639D01*
X007664Y023639D01*
X007866Y023555D01*
X008021Y023400D01*
X008054Y023319D01*
X008088Y023400D01*
X008243Y023555D01*
X008445Y023639D01*
X008664Y023639D01*
X008866Y023555D01*
X009021Y023400D01*
X009054Y023319D01*
X009088Y023400D01*
X009243Y023555D01*
X009445Y023639D01*
X009664Y023639D01*
X009866Y023555D01*
X010021Y023400D01*
X010054Y023319D01*
X010088Y023400D01*
X010243Y023555D01*
X010445Y023639D01*
X010664Y023639D01*
X010866Y023555D01*
X011021Y023400D01*
X011054Y023319D01*
X011088Y023400D01*
X011243Y023555D01*
X011445Y023639D01*
X011664Y023639D01*
X011866Y023555D01*
X012021Y023400D01*
X012104Y023198D01*
X012104Y022979D01*
X012021Y022777D01*
X011866Y022622D01*
X011784Y022589D01*
X011866Y022555D01*
X012021Y022400D01*
X012104Y022198D01*
X012104Y021979D01*
X012021Y021777D01*
X011956Y021712D01*
X012150Y021519D01*
X012284Y021384D01*
X012284Y018465D01*
X012358Y018391D01*
X012412Y018260D01*
X012412Y018117D01*
X012358Y017986D01*
X012257Y017885D01*
X012126Y017831D01*
X011983Y017831D01*
X011851Y017885D01*
X011754Y017982D01*
X011657Y017885D01*
X011526Y017831D01*
X011383Y017831D01*
X011251Y017885D01*
X011151Y017986D01*
X011096Y018117D01*
X011096Y018231D01*
X011012Y018231D01*
X011012Y018117D01*
X010958Y017986D01*
X010857Y017885D01*
X010726Y017831D01*
X010583Y017831D01*
X010451Y017885D01*
X010351Y017986D01*
X010296Y018117D01*
X010296Y018260D01*
X010351Y018391D01*
X010424Y018465D01*
X010424Y020393D01*
X010259Y020559D01*
X007759Y020559D01*
X007624Y020693D01*
X006824Y021493D01*
X006824Y021605D01*
X006664Y021539D01*
X006445Y021539D01*
X006243Y021622D01*
X006088Y021777D01*
X006054Y021859D01*
X006021Y021777D01*
X005866Y021622D01*
X005664Y021539D01*
X005445Y021539D01*
X005419Y021550D01*
X006550Y020419D01*
X009159Y020419D01*
X009215Y020419D01*
X009283Y020447D01*
X009426Y020447D01*
X009557Y020392D01*
X009658Y020291D01*
X009712Y020160D01*
X009712Y020017D01*
X009658Y019886D01*
X009557Y019785D01*
X009426Y019731D01*
X009283Y019731D01*
X009277Y019733D01*
X009258Y019686D01*
X009157Y019585D01*
X009026Y019531D01*
X008883Y019531D01*
X008812Y019560D01*
X008812Y019517D01*
X008758Y019386D01*
X008657Y019285D01*
X008526Y019231D01*
X008383Y019231D01*
X008251Y019285D01*
X008151Y019386D01*
X008096Y019517D01*
X008096Y019559D01*
X004759Y019559D01*
X004624Y019693D01*
X002959Y021359D01*
X002824Y021493D01*
X002824Y021605D01*
X002664Y021539D01*
X002445Y021539D01*
X002243Y021622D01*
X002088Y021777D01*
X002004Y021979D01*
X002004Y022198D01*
X002088Y022400D01*
X002243Y022555D01*
X002324Y022589D01*
X002243Y022622D01*
X002088Y022777D01*
X002004Y022979D01*
X002004Y023198D01*
X002088Y023400D01*
X002147Y023459D01*
X001650Y023459D01*
X001484Y023293D01*
X001484Y022184D01*
X004484Y019184D01*
X004484Y018993D01*
X004484Y015665D01*
X004558Y015591D01*
X004612Y015460D01*
X004612Y015317D01*
X004558Y015186D01*
X004457Y015085D01*
X004326Y015031D01*
X004312Y015031D01*
X004312Y015017D01*
X004258Y014886D01*
X004157Y014785D01*
X004026Y014731D01*
X003883Y014731D01*
X003751Y014785D01*
X003651Y014886D01*
X003596Y015017D01*
X003596Y015160D01*
X003651Y015291D01*
X003724Y015365D01*
X003724Y015871D01*
X003626Y015831D01*
X003521Y015831D01*
X002784Y015093D01*
X002784Y012344D01*
X002924Y012484D01*
X003059Y012619D01*
X003759Y012619D01*
X003924Y012784D01*
X003924Y013312D01*
X003851Y013386D01*
X003804Y013498D01*
X003758Y013386D01*
X003657Y013285D01*
X003526Y013231D01*
X003383Y013231D01*
X003251Y013285D01*
X003151Y013386D01*
X003096Y013517D01*
X003096Y013660D01*
X003151Y013791D01*
X003224Y013865D01*
X003224Y014184D01*
X003359Y014319D01*
X003659Y014619D01*
X003850Y014619D01*
X004959Y014619D01*
X006324Y015984D01*
X006324Y017412D01*
X006251Y017486D01*
X006196Y017617D01*
X006196Y017760D01*
X006251Y017891D01*
X006351Y017992D01*
X006483Y018047D01*
X006626Y018047D01*
X006757Y017992D01*
X006858Y017891D01*
X006912Y017760D01*
X006912Y017617D01*
X006858Y017486D01*
X006784Y017412D01*
X006784Y015984D01*
X006784Y015793D01*
X005284Y014293D01*
X005150Y014159D01*
X003850Y014159D01*
X003684Y013993D01*
X003684Y013865D01*
X003758Y013791D01*
X003804Y013679D01*
X003851Y013791D01*
X003951Y013892D01*
X004083Y013947D01*
X004226Y013947D01*
X004357Y013892D01*
X004458Y013791D01*
X004512Y013660D01*
X004512Y013517D01*
X004458Y013386D01*
X004384Y013312D01*
X004384Y012593D01*
X004250Y012459D01*
X004134Y012343D01*
X004257Y012292D01*
X004331Y012219D01*
X005859Y012219D01*
X006996Y013356D01*
X006996Y013460D01*
X007051Y013591D01*
X007151Y013692D01*
X007283Y013747D01*
X007426Y013747D01*
X007557Y013692D01*
X007658Y013591D01*
X007712Y013460D01*
X007712Y013347D01*
X007826Y013347D01*
X007957Y013292D01*
X008004Y013245D01*
X008051Y013292D01*
X008183Y013347D01*
X008326Y013347D01*
X008457Y013292D01*
X008504Y013245D01*
X008551Y013292D01*
X008683Y013347D01*
X008826Y013347D01*
X008957Y013292D01*
X009004Y013245D01*
X009051Y013292D01*
X009183Y013347D01*
X009326Y013347D01*
X009457Y013292D01*
X009542Y013208D01*
X009496Y013317D01*
X009496Y013460D01*
X009551Y013591D01*
X009651Y013692D01*
X009783Y013747D01*
X009926Y013747D01*
X010057Y013692D01*
X010124Y013625D01*
X010124Y014912D01*
X010051Y014986D01*
X009996Y015117D01*
X009996Y015260D01*
X010051Y015391D01*
X010151Y015492D01*
X010283Y015547D01*
X010426Y015547D01*
X010557Y015492D01*
X010658Y015391D01*
X010712Y015260D01*
X010712Y015117D01*
X010658Y014986D01*
X010584Y014912D01*
X010584Y010784D01*
X010584Y010593D01*
X009484Y009493D01*
X009350Y009359D01*
X003300Y009359D01*
X003262Y009321D01*
X003262Y009249D01*
X003309Y009269D01*
X003500Y009269D01*
X003676Y009196D01*
X003811Y009061D01*
X003884Y008884D01*
X003884Y008693D01*
X003814Y008524D01*
X003942Y008651D01*
X003924Y008693D01*
X003924Y008884D01*
X003997Y009061D01*
X004132Y009196D01*
X004309Y009269D01*
X004500Y009269D01*
X004676Y009196D01*
X004811Y009061D01*
X004884Y008884D01*
X004884Y008693D01*
X004812Y008519D01*
X004997Y008519D01*
X004924Y008693D01*
X004924Y008884D01*
X004997Y009061D01*
X005132Y009196D01*
X005309Y009269D01*
X005500Y009269D01*
X005676Y009196D01*
X005811Y009061D01*
X005884Y008884D01*
X005884Y008693D01*
X005812Y008519D01*
X006007Y008519D01*
X005994Y008537D01*
X005959Y008604D01*
X005936Y008676D01*
X005924Y008751D01*
X005924Y008788D01*
X006404Y008788D01*
X006404Y008789D01*
X006404Y009269D01*
X006367Y009269D01*
X006292Y009257D01*
X006220Y009233D01*
X006153Y009199D01*
X006092Y009155D01*
X006038Y009101D01*
X005994Y009040D01*
X005959Y008973D01*
X005936Y008901D01*
X005924Y008826D01*
X005924Y008789D01*
X006404Y008789D01*
X006404Y008789D01*
X006404Y009269D01*
X006442Y009269D01*
X006517Y009257D01*
X006589Y009233D01*
X006656Y009199D01*
X006717Y009155D01*
X006770Y009101D01*
X006815Y009040D01*
X006849Y008973D01*
X006872Y008901D01*
X006884Y008826D01*
X006884Y008789D01*
X006405Y008789D01*
X006405Y008788D01*
X006884Y008788D01*
X006884Y008751D01*
X006872Y008676D01*
X006849Y008604D01*
X006815Y008537D01*
X006801Y008519D01*
X007759Y008519D01*
X007924Y008684D01*
X007924Y008712D01*
X007851Y008786D01*
X007796Y008917D01*
X007796Y009060D01*
X007851Y009191D01*
X007951Y009292D01*
X008083Y009347D01*
X008226Y009347D01*
X008357Y009292D01*
X008458Y009191D01*
X008512Y009060D01*
X008512Y008917D01*
X008458Y008786D01*
X008384Y008712D01*
X008384Y008684D01*
X008384Y008493D01*
X008084Y008193D01*
X007950Y008059D01*
X006312Y008059D01*
X006384Y007884D01*
X006384Y007693D01*
X006311Y007517D01*
X006213Y007419D01*
X006678Y007419D01*
X006751Y007492D01*
X006883Y007547D01*
X007026Y007547D01*
X007157Y007492D01*
X007258Y007391D01*
X007312Y007260D01*
X007312Y007117D01*
X007258Y006986D01*
X007157Y006885D01*
X007026Y006831D01*
X006883Y006831D01*
X006751Y006885D01*
X006678Y006959D01*
X003659Y006959D01*
X003524Y007093D01*
X003294Y007324D01*
X003279Y007309D01*
X002759Y007309D01*
X003650Y006419D01*
X003784Y006284D01*
X003784Y005606D01*
X003883Y005647D01*
X004026Y005647D01*
X004157Y005592D01*
X004231Y005519D01*
X005209Y005519D01*
X005400Y005519D01*
X007117Y003801D01*
X007159Y003819D01*
X007350Y003819D01*
X007526Y003746D01*
X007661Y003611D01*
X007734Y003434D01*
X007734Y003243D01*
X007661Y003067D01*
X007526Y002932D01*
X007350Y002859D01*
X007159Y002859D01*
X006982Y002932D01*
X006847Y003067D01*
X006774Y003243D01*
X006774Y003434D01*
X006792Y003476D01*
X006664Y003604D01*
X006734Y003434D01*
X006734Y003243D01*
X006661Y003067D01*
X006526Y002932D01*
X006350Y002859D01*
X006159Y002859D01*
X005982Y002932D01*
X005847Y003067D01*
X005774Y003243D01*
X005774Y003434D01*
X005847Y003611D01*
X005982Y003746D01*
X006159Y003819D01*
X006350Y003819D01*
X006519Y003748D01*
X005209Y005059D01*
X004231Y005059D01*
X004157Y004985D01*
X004026Y004931D01*
X003883Y004931D01*
X003784Y004971D01*
X003784Y004934D01*
X003784Y004743D01*
X002789Y003748D01*
X002959Y003819D01*
X003150Y003819D01*
X003326Y003746D01*
X003461Y003611D01*
X003534Y003434D01*
X003534Y003243D01*
X003461Y003067D01*
X003326Y002932D01*
X003150Y002859D01*
X002959Y002859D01*
X002782Y002932D01*
X002647Y003067D01*
X002574Y003243D01*
X002574Y003434D01*
X002645Y003604D01*
X002517Y003476D01*
X002534Y003434D01*
X002534Y003243D01*
X002461Y003067D01*
X002326Y002932D01*
X002150Y002859D01*
X001959Y002859D01*
X001782Y002932D01*
X001647Y003067D01*
X001574Y003243D01*
X001574Y003434D01*
X001647Y003611D01*
X001782Y003746D01*
X001959Y003819D01*
X002150Y003819D01*
X002192Y003801D01*
X003324Y004934D01*
X003324Y005952D01*
X003257Y005885D01*
X003126Y005831D01*
X003107Y005831D01*
X003150Y005787D01*
X003284Y005464D01*
X003284Y005114D01*
X003150Y004790D01*
X002903Y004543D01*
X002579Y004409D01*
X002229Y004409D01*
X001906Y004543D01*
X001658Y004790D01*
X001524Y005114D01*
X001524Y005464D01*
X001658Y005787D01*
X001661Y005789D01*
X001635Y005783D01*
X001584Y005776D01*
X001584Y006358D01*
X001424Y006358D01*
X001424Y005776D01*
X001374Y005783D01*
X001289Y005805D01*
X001208Y005839D01*
X001133Y005882D01*
X001063Y005936D01*
X001001Y005998D01*
X000948Y006067D01*
X000904Y006143D01*
X000871Y006224D01*
X000854Y006286D01*
X000854Y003013D01*
X000854Y003023D02*
X001691Y003023D01*
X001600Y003181D02*
X000854Y003181D01*
X000854Y003340D02*
X001574Y003340D01*
X001601Y003498D02*
X000854Y003498D01*
X000854Y003657D02*
X001694Y003657D01*
X001951Y003816D02*
X000854Y003816D01*
X000854Y003974D02*
X002365Y003974D01*
X002523Y004133D02*
X000854Y004133D01*
X000854Y004291D02*
X002682Y004291D01*
X002678Y004450D02*
X002840Y004450D01*
X002968Y004608D02*
X002999Y004608D01*
X003127Y004767D02*
X003157Y004767D01*
X003206Y004925D02*
X003316Y004925D01*
X003324Y005084D02*
X003272Y005084D01*
X003284Y005242D02*
X003324Y005242D01*
X003324Y005401D02*
X003284Y005401D01*
X003245Y005560D02*
X003324Y005560D01*
X003324Y005718D02*
X003179Y005718D01*
X003237Y005877D02*
X003324Y005877D01*
X003557Y006511D02*
X007724Y006511D01*
X007724Y006519D02*
X007724Y006359D01*
X007142Y006359D01*
X007148Y006308D01*
X007171Y006224D01*
X007204Y006143D01*
X007224Y006109D01*
X007079Y006169D01*
X006729Y006169D01*
X006406Y006035D01*
X006158Y005787D01*
X006024Y005464D01*
X006024Y005114D01*
X006158Y004790D01*
X006406Y004543D01*
X006729Y004409D01*
X007079Y004409D01*
X007403Y004543D01*
X007650Y004790D01*
X007784Y005114D01*
X007784Y005464D01*
X007650Y005787D01*
X007648Y005790D01*
X007674Y005783D01*
X007724Y005776D01*
X007724Y006358D01*
X007884Y006358D01*
X007884Y005776D01*
X007935Y005783D01*
X008019Y005805D01*
X008100Y005839D01*
X008176Y005882D01*
X008245Y005936D01*
X008307Y005998D01*
X008361Y006067D01*
X008404Y006143D01*
X008438Y006224D01*
X008460Y006308D01*
X008467Y006359D01*
X007884Y006359D01*
X007884Y006519D01*
X007724Y006519D01*
X007724Y007101D01*
X007674Y007095D01*
X007589Y007072D01*
X007508Y007039D01*
X007433Y006995D01*
X007363Y006942D01*
X007301Y006880D01*
X007248Y006810D01*
X007204Y006735D01*
X007171Y006654D01*
X007148Y006569D01*
X007142Y006519D01*
X007724Y006519D01*
X007724Y006669D02*
X007884Y006669D01*
X007884Y006519D02*
X007884Y007101D01*
X007935Y007095D01*
X008019Y007072D01*
X008100Y007039D01*
X008176Y006995D01*
X008245Y006942D01*
X008307Y006880D01*
X008361Y006810D01*
X008404Y006735D01*
X008438Y006654D01*
X008460Y006569D01*
X008467Y006519D01*
X007884Y006519D01*
X007884Y006511D02*
X009424Y006511D01*
X009424Y006618D02*
X009424Y006347D01*
X009495Y006085D01*
X009630Y005850D01*
X009822Y005658D01*
X010057Y005523D01*
X010319Y005452D01*
X010590Y005452D01*
X010852Y005523D01*
X011087Y005658D01*
X011279Y005850D01*
X011414Y006085D01*
X011484Y006347D01*
X011484Y006618D01*
X011414Y006880D01*
X011279Y007115D01*
X011087Y007307D01*
X010852Y007442D01*
X010590Y007512D01*
X010319Y007512D01*
X010057Y007442D01*
X009822Y007307D01*
X009630Y007115D01*
X009495Y006880D01*
X009424Y006618D01*
X009438Y006669D02*
X008431Y006669D01*
X008347Y006828D02*
X009481Y006828D01*
X009556Y006986D02*
X008187Y006986D01*
X007884Y006986D02*
X007724Y006986D01*
X007724Y006828D02*
X007884Y006828D01*
X007884Y006352D02*
X007724Y006352D01*
X007724Y006194D02*
X007884Y006194D01*
X007884Y006035D02*
X007724Y006035D01*
X007724Y005877D02*
X007884Y005877D01*
X007679Y005718D02*
X009762Y005718D01*
X009615Y005877D02*
X008166Y005877D01*
X008336Y006035D02*
X009523Y006035D01*
X009465Y006194D02*
X008425Y006194D01*
X008466Y006352D02*
X009424Y006352D01*
X009660Y007145D02*
X007312Y007145D01*
X007294Y007304D02*
X009819Y007304D01*
X010131Y007462D02*
X007187Y007462D01*
X007258Y006986D02*
X007422Y006986D01*
X007262Y006828D02*
X003240Y006828D01*
X003082Y006986D02*
X003631Y006986D01*
X003473Y007145D02*
X002923Y007145D01*
X002765Y007304D02*
X003314Y007304D01*
X003399Y006669D02*
X007177Y006669D01*
X007142Y006352D02*
X003716Y006352D01*
X003784Y006194D02*
X007183Y006194D01*
X007745Y005560D02*
X009993Y005560D01*
X010169Y005111D02*
X010060Y005073D01*
X009955Y005023D01*
X009857Y004961D01*
X009767Y004889D01*
X009685Y004808D01*
X009613Y004717D01*
X009551Y004619D01*
X009501Y004515D01*
X009463Y004406D01*
X009437Y004293D01*
X009427Y004200D01*
X010374Y004200D01*
X010374Y004040D01*
X009427Y004040D01*
X009437Y003947D01*
X009463Y003835D01*
X009501Y003725D01*
X009551Y003621D01*
X009613Y003523D01*
X009685Y003433D01*
X009767Y003351D01*
X009857Y003279D01*
X009955Y003217D01*
X010060Y003167D01*
X010169Y003129D01*
X010281Y003103D01*
X010374Y003093D01*
X010374Y004040D01*
X010534Y004040D01*
X010534Y003093D01*
X010627Y003103D01*
X010740Y003129D01*
X010849Y003167D01*
X010953Y003217D01*
X011051Y003279D01*
X011142Y003351D01*
X011224Y003433D01*
X011296Y003523D01*
X011357Y003621D01*
X011407Y003725D01*
X011446Y003835D01*
X011471Y003947D01*
X011482Y004040D01*
X010534Y004040D01*
X010534Y004200D01*
X010374Y004200D01*
X010374Y005148D01*
X010281Y005137D01*
X010169Y005111D01*
X010090Y005084D02*
X007772Y005084D01*
X007784Y005242D02*
X012225Y005242D01*
X012225Y005084D02*
X012385Y005084D01*
X012385Y004925D02*
X012225Y004925D01*
X012225Y004767D02*
X012385Y004767D01*
X012385Y004608D02*
X012225Y004608D01*
X012225Y004450D02*
X012385Y004450D01*
X012385Y004291D02*
X012225Y004291D01*
X012101Y004291D02*
X011472Y004291D01*
X011471Y004293D02*
X011446Y004406D01*
X011407Y004515D01*
X011357Y004619D01*
X011296Y004717D01*
X011224Y004808D01*
X011142Y004889D01*
X011051Y004961D01*
X010953Y005023D01*
X010849Y005073D01*
X010740Y005111D01*
X010627Y005137D01*
X010534Y005148D01*
X010534Y004200D01*
X011482Y004200D01*
X011471Y004293D01*
X011430Y004450D02*
X011724Y004450D01*
X011541Y004608D02*
X011362Y004608D01*
X011424Y004767D02*
X011256Y004767D01*
X011345Y004925D02*
X011097Y004925D01*
X011298Y005084D02*
X010819Y005084D01*
X010916Y005560D02*
X011307Y005560D01*
X011279Y005401D02*
X007784Y005401D01*
X007706Y004925D02*
X009812Y004925D01*
X009653Y004767D02*
X007627Y004767D01*
X007468Y004608D02*
X009546Y004608D01*
X009478Y004450D02*
X007178Y004450D01*
X006944Y003974D02*
X009434Y003974D01*
X009470Y003816D02*
X007357Y003816D01*
X007615Y003657D02*
X009534Y003657D01*
X009633Y003498D02*
X007708Y003498D01*
X007734Y003340D02*
X009781Y003340D01*
X010030Y003181D02*
X007709Y003181D01*
X007617Y003023D02*
X013254Y003023D01*
X013254Y003181D02*
X010879Y003181D01*
X011128Y003340D02*
X013254Y003340D01*
X013254Y003498D02*
X011276Y003498D01*
X011374Y003657D02*
X013254Y003657D01*
X013254Y003816D02*
X011439Y003816D01*
X011474Y003974D02*
X013254Y003974D01*
X013254Y004133D02*
X010534Y004133D01*
X010534Y004291D02*
X010374Y004291D01*
X010374Y004133D02*
X006786Y004133D01*
X006769Y003498D02*
X006708Y003498D01*
X006734Y003340D02*
X006774Y003340D01*
X006800Y003181D02*
X006709Y003181D01*
X006617Y003023D02*
X006891Y003023D01*
X007145Y002864D02*
X006363Y002864D01*
X006145Y002864D02*
X003163Y002864D01*
X002945Y002864D02*
X002163Y002864D01*
X001945Y002864D02*
X001003Y002864D01*
X001161Y002706D02*
X012947Y002706D01*
X013106Y002864D02*
X007363Y002864D01*
X007151Y003816D02*
X007103Y003816D01*
X006627Y004291D02*
X009437Y004291D01*
X010374Y004450D02*
X010534Y004450D01*
X010534Y004608D02*
X010374Y004608D01*
X010374Y004767D02*
X010534Y004767D01*
X010534Y004925D02*
X010374Y004925D01*
X010374Y005084D02*
X010534Y005084D01*
X010534Y003974D02*
X010374Y003974D01*
X010374Y003816D02*
X010534Y003816D01*
X010534Y003657D02*
X010374Y003657D01*
X010374Y003498D02*
X010534Y003498D01*
X010534Y003340D02*
X010374Y003340D01*
X010374Y003181D02*
X010534Y003181D01*
X011147Y005718D02*
X011362Y005718D01*
X011294Y005877D02*
X011450Y005877D01*
X011385Y006035D02*
X011582Y006035D01*
X011443Y006194D02*
X011789Y006194D01*
X011484Y006352D02*
X013254Y006352D01*
X013254Y006194D02*
X012820Y006194D01*
X013027Y006035D02*
X013254Y006035D01*
X013254Y005877D02*
X013160Y005877D01*
X013247Y005718D02*
X013254Y005718D01*
X013254Y006511D02*
X011484Y006511D01*
X011471Y006669D02*
X013254Y006669D01*
X013254Y006828D02*
X011428Y006828D01*
X011353Y006986D02*
X013254Y006986D01*
X013254Y007145D02*
X011248Y007145D01*
X011090Y007304D02*
X013254Y007304D01*
X013254Y007462D02*
X010778Y007462D01*
X009831Y009840D02*
X013254Y009840D01*
X013254Y009682D02*
X009673Y009682D01*
X009514Y009523D02*
X013254Y009523D01*
X013254Y009365D02*
X009355Y009365D01*
X009990Y009999D02*
X013254Y009999D01*
X013254Y010157D02*
X012905Y010157D01*
X013127Y010316D02*
X013254Y010316D01*
X013254Y011426D02*
X013163Y011426D01*
X013254Y011584D02*
X012992Y011584D01*
X013254Y011743D02*
X010584Y011743D01*
X010584Y011901D02*
X013254Y011901D01*
X013254Y012060D02*
X010584Y012060D01*
X010584Y012218D02*
X013254Y012218D01*
X013254Y012377D02*
X010584Y012377D01*
X010584Y012535D02*
X013254Y012535D01*
X013254Y012694D02*
X010584Y012694D01*
X010584Y012853D02*
X013254Y012853D01*
X013254Y013011D02*
X010584Y013011D01*
X010584Y013170D02*
X013254Y013170D01*
X013254Y013328D02*
X010584Y013328D01*
X010584Y013487D02*
X013254Y013487D01*
X013254Y013645D02*
X010584Y013645D01*
X010584Y013804D02*
X013254Y013804D01*
X013254Y013962D02*
X010584Y013962D01*
X010584Y014121D02*
X013254Y014121D01*
X013254Y014279D02*
X010584Y014279D01*
X010584Y014438D02*
X013254Y014438D01*
X013254Y014596D02*
X010584Y014596D01*
X010584Y014755D02*
X013254Y014755D01*
X013254Y014914D02*
X010586Y014914D01*
X010694Y015072D02*
X013254Y015072D01*
X013254Y015231D02*
X010712Y015231D01*
X010659Y015389D02*
X013254Y015389D01*
X013254Y015548D02*
X006539Y015548D01*
X006697Y015706D02*
X013254Y015706D01*
X013254Y015865D02*
X006784Y015865D01*
X006784Y016023D02*
X013254Y016023D01*
X013254Y016182D02*
X006784Y016182D01*
X006784Y016340D02*
X013254Y016340D01*
X013254Y016499D02*
X006784Y016499D01*
X006784Y016658D02*
X013254Y016658D01*
X013254Y016816D02*
X006784Y016816D01*
X006784Y016975D02*
X013254Y016975D01*
X013254Y017133D02*
X006784Y017133D01*
X006784Y017292D02*
X013254Y017292D01*
X013254Y017450D02*
X006822Y017450D01*
X006909Y017609D02*
X013254Y017609D01*
X013254Y017767D02*
X006909Y017767D01*
X006823Y017926D02*
X010411Y017926D01*
X010310Y018084D02*
X004484Y018084D01*
X004484Y017926D02*
X006285Y017926D01*
X006199Y017767D02*
X004484Y017767D01*
X004484Y017609D02*
X006200Y017609D01*
X006286Y017450D02*
X004484Y017450D01*
X004484Y017292D02*
X006324Y017292D01*
X006324Y017133D02*
X004484Y017133D01*
X004484Y016975D02*
X006324Y016975D01*
X006324Y016816D02*
X004484Y016816D01*
X004484Y016658D02*
X006324Y016658D01*
X006324Y016499D02*
X004484Y016499D01*
X004484Y016340D02*
X006324Y016340D01*
X006324Y016182D02*
X004484Y016182D01*
X004484Y016023D02*
X006324Y016023D01*
X006205Y015865D02*
X004484Y015865D01*
X004484Y015706D02*
X006047Y015706D01*
X005888Y015548D02*
X004576Y015548D01*
X004612Y015389D02*
X005730Y015389D01*
X005571Y015231D02*
X004576Y015231D01*
X004426Y015072D02*
X005413Y015072D01*
X005254Y014914D02*
X004269Y014914D01*
X004085Y014755D02*
X005095Y014755D01*
X005429Y014438D02*
X010124Y014438D01*
X010124Y014596D02*
X005587Y014596D01*
X005746Y014755D02*
X010124Y014755D01*
X010123Y014914D02*
X005904Y014914D01*
X006063Y015072D02*
X010015Y015072D01*
X009996Y015231D02*
X006222Y015231D01*
X006380Y015389D02*
X010050Y015389D01*
X010124Y014279D02*
X005270Y014279D01*
X006017Y012377D02*
X004168Y012377D01*
X004326Y012535D02*
X006176Y012535D01*
X006334Y012694D02*
X004384Y012694D01*
X004384Y012853D02*
X006493Y012853D01*
X006509Y012218D02*
X007524Y012218D01*
X007524Y012060D02*
X006351Y012060D01*
X006192Y011901D02*
X007524Y011901D01*
X007524Y011743D02*
X004315Y011743D01*
X004331Y011759D02*
X006050Y011759D01*
X006184Y011893D01*
X007321Y013031D01*
X007396Y013031D01*
X007396Y012917D01*
X007451Y012786D01*
X007524Y012712D01*
X007524Y011165D01*
X007451Y011091D01*
X007396Y010960D01*
X007396Y010817D01*
X007451Y010686D01*
X007551Y010585D01*
X007683Y010531D01*
X007826Y010531D01*
X007924Y010571D01*
X007924Y010365D01*
X007851Y010291D01*
X007796Y010160D01*
X007796Y010017D01*
X007851Y009886D01*
X007918Y009819D01*
X003300Y009819D01*
X003109Y009819D01*
X002937Y009647D01*
X002833Y009647D01*
X002784Y009626D01*
X002784Y009793D01*
X003084Y010093D01*
X003084Y010284D01*
X003084Y011112D01*
X003158Y011186D01*
X003212Y011317D01*
X003212Y011460D01*
X003158Y011591D01*
X003084Y011665D01*
X003084Y011993D01*
X003250Y012159D01*
X003737Y012159D01*
X003696Y012060D01*
X003696Y011917D01*
X003751Y011786D01*
X003851Y011685D01*
X003983Y011631D01*
X004126Y011631D01*
X004257Y011685D01*
X004331Y011759D01*
X003834Y012694D02*
X002784Y012694D01*
X002784Y012853D02*
X003924Y012853D01*
X003924Y013011D02*
X002784Y013011D01*
X002784Y013170D02*
X003924Y013170D01*
X003908Y013328D02*
X003700Y013328D01*
X003800Y013487D02*
X003809Y013487D01*
X003863Y013804D02*
X003746Y013804D01*
X003684Y013962D02*
X010124Y013962D01*
X010124Y013804D02*
X004446Y013804D01*
X004512Y013645D02*
X007104Y013645D01*
X007007Y013487D02*
X004500Y013487D01*
X004400Y013328D02*
X006969Y013328D01*
X006810Y013170D02*
X004384Y013170D01*
X004384Y013011D02*
X006651Y013011D01*
X006985Y012694D02*
X007524Y012694D01*
X007524Y012535D02*
X006826Y012535D01*
X006668Y012377D02*
X007524Y012377D01*
X007423Y012853D02*
X007143Y012853D01*
X007302Y013011D02*
X007396Y013011D01*
X007701Y013487D02*
X009507Y013487D01*
X009496Y013328D02*
X009370Y013328D01*
X009604Y013645D02*
X007604Y013645D01*
X007870Y013328D02*
X008138Y013328D01*
X008370Y013328D02*
X008638Y013328D01*
X008870Y013328D02*
X009138Y013328D01*
X010104Y013645D02*
X010124Y013645D01*
X010124Y014121D02*
X003812Y014121D01*
X003637Y014596D02*
X002784Y014596D01*
X002784Y014438D02*
X003478Y014438D01*
X003320Y014279D02*
X002784Y014279D01*
X002784Y014121D02*
X003224Y014121D01*
X003224Y013962D02*
X002784Y013962D01*
X002784Y013804D02*
X003163Y013804D01*
X003096Y013645D02*
X002784Y013645D01*
X002784Y013487D02*
X003109Y013487D01*
X003208Y013328D02*
X002784Y013328D01*
X002784Y012535D02*
X002976Y012535D01*
X003151Y012060D02*
X003696Y012060D01*
X003703Y011901D02*
X003084Y011901D01*
X003084Y011743D02*
X003794Y011743D01*
X003161Y011584D02*
X007524Y011584D01*
X007524Y011426D02*
X003212Y011426D01*
X003192Y011267D02*
X007524Y011267D01*
X007468Y011109D02*
X003084Y011109D01*
X003084Y010950D02*
X007396Y010950D01*
X007407Y010791D02*
X003084Y010791D01*
X003084Y010633D02*
X007504Y010633D01*
X007875Y010316D02*
X003084Y010316D01*
X003084Y010474D02*
X007924Y010474D01*
X007796Y010157D02*
X003084Y010157D01*
X002990Y009999D02*
X007804Y009999D01*
X007896Y009840D02*
X002831Y009840D01*
X002784Y009682D02*
X002972Y009682D01*
X003651Y009206D02*
X004158Y009206D01*
X003992Y009047D02*
X003817Y009047D01*
X003882Y008889D02*
X003926Y008889D01*
X003924Y008730D02*
X003884Y008730D01*
X003862Y008572D02*
X003834Y008572D01*
X004651Y009206D02*
X005158Y009206D01*
X004992Y009047D02*
X004817Y009047D01*
X004882Y008889D02*
X004926Y008889D01*
X004924Y008730D02*
X004884Y008730D01*
X004834Y008572D02*
X004975Y008572D01*
X005651Y009206D02*
X006166Y009206D01*
X005999Y009047D02*
X005817Y009047D01*
X005882Y008889D02*
X005934Y008889D01*
X005928Y008730D02*
X005884Y008730D01*
X005834Y008572D02*
X005976Y008572D01*
X006404Y008889D02*
X006404Y008889D01*
X006404Y009047D02*
X006404Y009047D01*
X006404Y009206D02*
X006404Y009206D01*
X006642Y009206D02*
X007865Y009206D01*
X007796Y009047D02*
X006810Y009047D01*
X006874Y008889D02*
X007808Y008889D01*
X007906Y008730D02*
X006881Y008730D01*
X006833Y008572D02*
X007812Y008572D01*
X007987Y008096D02*
X013254Y008096D01*
X013254Y007938D02*
X006362Y007938D01*
X006384Y007779D02*
X013254Y007779D01*
X013254Y007621D02*
X006354Y007621D01*
X006256Y007462D02*
X006721Y007462D01*
X006407Y006035D02*
X003784Y006035D01*
X003784Y005877D02*
X006248Y005877D01*
X006130Y005718D02*
X003784Y005718D01*
X003784Y004925D02*
X005342Y004925D01*
X005501Y004767D02*
X003784Y004767D01*
X003649Y004608D02*
X005659Y004608D01*
X005818Y004450D02*
X003491Y004450D01*
X003332Y004291D02*
X005977Y004291D01*
X006135Y004133D02*
X003174Y004133D01*
X003015Y003974D02*
X006294Y003974D01*
X006357Y003816D02*
X006452Y003816D01*
X006151Y003816D02*
X003157Y003816D01*
X002951Y003816D02*
X002856Y003816D01*
X002601Y003498D02*
X002539Y003498D01*
X002534Y003340D02*
X002574Y003340D01*
X002600Y003181D02*
X002509Y003181D01*
X002417Y003023D02*
X002691Y003023D01*
X002206Y003816D02*
X002157Y003816D01*
X002130Y004450D02*
X000854Y004450D01*
X000854Y004608D02*
X001840Y004608D01*
X001682Y004767D02*
X000854Y004767D01*
X000854Y004925D02*
X001602Y004925D01*
X001537Y005084D02*
X000854Y005084D01*
X000854Y005242D02*
X001524Y005242D01*
X001524Y005401D02*
X000854Y005401D01*
X000854Y005560D02*
X001564Y005560D01*
X001630Y005718D02*
X000854Y005718D01*
X000854Y005877D02*
X001143Y005877D01*
X000973Y006035D02*
X000854Y006035D01*
X000854Y006194D02*
X000883Y006194D01*
X000854Y006592D02*
X000854Y010462D01*
X000868Y010430D01*
X001096Y010202D01*
X001393Y010079D01*
X001715Y010079D01*
X001824Y010124D01*
X001824Y009993D01*
X001824Y007284D01*
X001824Y007093D01*
X002696Y006221D01*
X002696Y006120D01*
X002579Y006169D01*
X002229Y006169D01*
X002085Y006109D01*
X002104Y006143D01*
X002138Y006224D01*
X002160Y006308D01*
X002167Y006359D01*
X001584Y006359D01*
X001584Y006519D01*
X001424Y006519D01*
X001424Y007101D01*
X001374Y007095D01*
X001289Y007072D01*
X001208Y007039D01*
X001133Y006995D01*
X001063Y006942D01*
X001001Y006880D01*
X000948Y006810D01*
X000904Y006735D01*
X000871Y006654D01*
X000854Y006592D01*
X000854Y006669D02*
X000877Y006669D01*
X000854Y006828D02*
X000962Y006828D01*
X000854Y006986D02*
X001122Y006986D01*
X000854Y007145D02*
X001824Y007145D01*
X001800Y007039D02*
X001719Y007072D01*
X001635Y007095D01*
X001584Y007101D01*
X001584Y006519D01*
X002167Y006519D01*
X002160Y006569D01*
X002138Y006654D01*
X002104Y006735D01*
X002061Y006810D01*
X002007Y006880D01*
X001945Y006942D01*
X001876Y006995D01*
X001800Y007039D01*
X001887Y006986D02*
X001931Y006986D01*
X002047Y006828D02*
X002090Y006828D01*
X002131Y006669D02*
X002248Y006669D01*
X002166Y006352D02*
X002565Y006352D01*
X002696Y006194D02*
X002125Y006194D01*
X002407Y006511D02*
X001584Y006511D01*
X001584Y006669D02*
X001424Y006669D01*
X001424Y006828D02*
X001584Y006828D01*
X001584Y006986D02*
X001424Y006986D01*
X001824Y007304D02*
X000854Y007304D01*
X000854Y007462D02*
X001824Y007462D01*
X001824Y007621D02*
X000854Y007621D01*
X000854Y007779D02*
X001824Y007779D01*
X001824Y007938D02*
X000854Y007938D01*
X000854Y008096D02*
X001824Y008096D01*
X001824Y008255D02*
X000854Y008255D01*
X000854Y008413D02*
X001824Y008413D01*
X001824Y008572D02*
X000854Y008572D01*
X000854Y008730D02*
X001824Y008730D01*
X001824Y008889D02*
X000854Y008889D01*
X000854Y009047D02*
X001824Y009047D01*
X001824Y009206D02*
X000854Y009206D01*
X000854Y009365D02*
X001824Y009365D01*
X001824Y009523D02*
X000854Y009523D01*
X000854Y009682D02*
X001824Y009682D01*
X001824Y009840D02*
X000854Y009840D01*
X000854Y009999D02*
X001824Y009999D01*
X001204Y010157D02*
X000854Y010157D01*
X000854Y010316D02*
X000982Y010316D01*
X000854Y011315D02*
X000854Y021863D01*
X000959Y021759D01*
X003724Y018993D01*
X003724Y017006D01*
X003626Y017047D01*
X003483Y017047D01*
X003351Y016992D01*
X003251Y016891D01*
X003196Y016760D01*
X003196Y016656D01*
X002124Y015584D01*
X002124Y015393D01*
X002124Y011464D01*
X002013Y011575D01*
X001715Y011699D01*
X001393Y011699D01*
X001096Y011575D01*
X000868Y011347D01*
X000854Y011315D01*
X000854Y011426D02*
X000946Y011426D01*
X000854Y011584D02*
X001117Y011584D01*
X000854Y011743D02*
X002124Y011743D01*
X002124Y011901D02*
X000854Y011901D01*
X000854Y012060D02*
X002124Y012060D01*
X002124Y012218D02*
X000854Y012218D01*
X000854Y012377D02*
X001353Y012377D01*
X001445Y012339D02*
X001243Y012422D01*
X001088Y012577D01*
X001004Y012779D01*
X001004Y012998D01*
X001088Y013200D01*
X001243Y013355D01*
X001324Y013389D01*
X001243Y013422D01*
X001088Y013577D01*
X001004Y013779D01*
X001004Y013998D01*
X001088Y014200D01*
X001243Y014355D01*
X001324Y014389D01*
X001266Y014418D01*
X001196Y014469D01*
X001135Y014530D01*
X001084Y014600D01*
X001045Y014678D01*
X001018Y014760D01*
X001004Y014845D01*
X001004Y014869D01*
X001534Y014869D01*
X001534Y014909D01*
X001004Y014909D01*
X001004Y014932D01*
X001018Y015017D01*
X001045Y015100D01*
X001084Y015177D01*
X001135Y015247D01*
X001196Y015308D01*
X001266Y015359D01*
X001324Y015389D01*
X001243Y015422D01*
X001088Y015577D01*
X001004Y015779D01*
X001004Y015998D01*
X001088Y016200D01*
X001243Y016355D01*
X001324Y016389D01*
X001243Y016422D01*
X001088Y016577D01*
X001004Y016779D01*
X001004Y016998D01*
X001088Y017200D01*
X001243Y017355D01*
X001445Y017439D01*
X001664Y017439D01*
X001866Y017355D01*
X002021Y017200D01*
X002104Y016998D01*
X002104Y016779D01*
X002021Y016577D01*
X001866Y016422D01*
X001784Y016389D01*
X001866Y016355D01*
X002021Y016200D01*
X002104Y015998D01*
X002104Y015779D01*
X002021Y015577D01*
X001866Y015422D01*
X001784Y015389D01*
X001843Y015359D01*
X001913Y015308D01*
X001974Y015247D01*
X002025Y015177D01*
X002064Y015100D01*
X002091Y015017D01*
X002104Y014932D01*
X002104Y014909D01*
X001575Y014909D01*
X001575Y014869D01*
X002104Y014869D01*
X002104Y014845D01*
X002091Y014760D01*
X002064Y014678D01*
X002025Y014600D01*
X001974Y014530D01*
X001913Y014469D01*
X001843Y014418D01*
X001784Y014389D01*
X001866Y014355D01*
X002021Y014200D01*
X002104Y013998D01*
X002104Y013779D01*
X002021Y013577D01*
X001866Y013422D01*
X001784Y013389D01*
X001866Y013355D01*
X002021Y013200D01*
X002104Y012998D01*
X002104Y012779D01*
X002021Y012577D01*
X001866Y012422D01*
X001664Y012339D01*
X001445Y012339D01*
X001756Y012377D02*
X002124Y012377D01*
X002124Y012535D02*
X001979Y012535D01*
X002069Y012694D02*
X002124Y012694D01*
X002124Y012853D02*
X002104Y012853D01*
X002099Y013011D02*
X002124Y013011D01*
X002124Y013170D02*
X002033Y013170D01*
X002124Y013328D02*
X001893Y013328D01*
X001930Y013487D02*
X002124Y013487D01*
X002124Y013645D02*
X002049Y013645D01*
X002104Y013804D02*
X002124Y013804D01*
X002124Y013962D02*
X002104Y013962D01*
X002124Y014121D02*
X002053Y014121D01*
X002124Y014279D02*
X001941Y014279D01*
X001870Y014438D02*
X002124Y014438D01*
X002124Y014596D02*
X002022Y014596D01*
X002089Y014755D02*
X002124Y014755D01*
X002124Y014914D02*
X002104Y014914D01*
X002124Y015072D02*
X002073Y015072D01*
X002124Y015231D02*
X001986Y015231D01*
X002124Y015389D02*
X001786Y015389D01*
X001991Y015548D02*
X002124Y015548D01*
X002074Y015706D02*
X002247Y015706D01*
X002104Y015865D02*
X002405Y015865D01*
X002564Y016023D02*
X002094Y016023D01*
X002028Y016182D02*
X002722Y016182D01*
X002881Y016340D02*
X001880Y016340D01*
X001942Y016499D02*
X003039Y016499D01*
X003196Y016658D02*
X002054Y016658D01*
X002104Y016816D02*
X003220Y016816D01*
X003334Y016975D02*
X002104Y016975D01*
X002048Y017133D02*
X003724Y017133D01*
X003724Y017292D02*
X001929Y017292D01*
X001180Y017292D02*
X000854Y017292D01*
X000854Y017450D02*
X003724Y017450D01*
X003724Y017609D02*
X000854Y017609D01*
X000854Y017767D02*
X003724Y017767D01*
X003724Y017926D02*
X000854Y017926D01*
X000854Y018084D02*
X003724Y018084D01*
X003724Y018243D02*
X000854Y018243D01*
X000854Y018402D02*
X003724Y018402D01*
X003724Y018560D02*
X000854Y018560D01*
X000854Y018719D02*
X003724Y018719D01*
X003724Y018877D02*
X000854Y018877D01*
X000854Y019036D02*
X003682Y019036D01*
X003523Y019194D02*
X000854Y019194D01*
X000854Y019353D02*
X003365Y019353D01*
X003206Y019511D02*
X000854Y019511D01*
X000854Y019670D02*
X003048Y019670D01*
X002889Y019828D02*
X000854Y019828D01*
X000854Y019987D02*
X002731Y019987D01*
X002572Y020146D02*
X000854Y020146D01*
X000854Y020304D02*
X002414Y020304D01*
X002255Y020463D02*
X000854Y020463D01*
X000854Y020621D02*
X002097Y020621D01*
X001938Y020780D02*
X000854Y020780D01*
X000854Y020938D02*
X001779Y020938D01*
X001621Y021097D02*
X000854Y021097D01*
X000854Y021255D02*
X001462Y021255D01*
X001304Y021414D02*
X000854Y021414D01*
X000854Y021572D02*
X001145Y021572D01*
X000987Y021731D02*
X000854Y021731D01*
X001484Y022207D02*
X002008Y022207D01*
X002004Y022048D02*
X001620Y022048D01*
X001779Y021889D02*
X002041Y021889D01*
X002134Y021731D02*
X001937Y021731D01*
X002096Y021572D02*
X002363Y021572D01*
X002254Y021414D02*
X002904Y021414D01*
X002824Y021572D02*
X002745Y021572D01*
X002571Y021097D02*
X003221Y021097D01*
X003062Y021255D02*
X002413Y021255D01*
X002730Y020938D02*
X003379Y020938D01*
X003538Y020780D02*
X002889Y020780D01*
X003047Y020621D02*
X003697Y020621D01*
X003855Y020463D02*
X003206Y020463D01*
X003364Y020304D02*
X004014Y020304D01*
X004172Y020146D02*
X003523Y020146D01*
X003681Y019987D02*
X004331Y019987D01*
X004489Y019828D02*
X003840Y019828D01*
X003998Y019670D02*
X004648Y019670D01*
X004474Y019194D02*
X010424Y019194D01*
X010424Y019036D02*
X004484Y019036D01*
X004484Y018877D02*
X010424Y018877D01*
X010424Y018719D02*
X004484Y018719D01*
X004484Y018560D02*
X010424Y018560D01*
X010361Y018402D02*
X004484Y018402D01*
X004484Y018243D02*
X010296Y018243D01*
X010424Y019353D02*
X008725Y019353D01*
X008810Y019511D02*
X010424Y019511D01*
X010424Y019670D02*
X009242Y019670D01*
X009601Y019828D02*
X010424Y019828D01*
X010424Y019987D02*
X009700Y019987D01*
X009712Y020146D02*
X010424Y020146D01*
X010424Y020304D02*
X009645Y020304D01*
X010355Y020463D02*
X006506Y020463D01*
X006347Y020621D02*
X007697Y020621D01*
X007538Y020780D02*
X006189Y020780D01*
X006030Y020938D02*
X007379Y020938D01*
X007221Y021097D02*
X005871Y021097D01*
X005713Y021255D02*
X007062Y021255D01*
X006904Y021414D02*
X005554Y021414D01*
X005745Y021572D02*
X006363Y021572D01*
X006134Y021731D02*
X005974Y021731D01*
X006745Y021572D02*
X006824Y021572D01*
X006946Y023475D02*
X007163Y023475D01*
X007432Y023633D02*
X006676Y023633D01*
X006432Y023633D02*
X005676Y023633D01*
X005432Y023633D02*
X004676Y023633D01*
X004751Y023951D02*
X009358Y023951D01*
X009432Y023633D02*
X008676Y023633D01*
X008432Y023633D02*
X007676Y023633D01*
X007946Y023475D02*
X008163Y023475D01*
X008946Y023475D02*
X009163Y023475D01*
X009155Y024109D02*
X004954Y024109D01*
X005024Y024268D02*
X009085Y024268D01*
X009074Y024426D02*
X005034Y024426D01*
X004993Y024585D02*
X009116Y024585D01*
X009393Y024902D02*
X010724Y024902D01*
X010724Y025060D02*
X009905Y025060D01*
X010004Y025219D02*
X010724Y025219D01*
X010724Y025377D02*
X010034Y025377D01*
X010013Y025536D02*
X010724Y025536D01*
X010724Y025695D02*
X009927Y025695D01*
X009826Y025982D02*
X009961Y026117D01*
X010034Y026293D01*
X010034Y026484D01*
X009961Y026661D01*
X009826Y026796D01*
X009650Y026869D01*
X009459Y026869D01*
X009282Y026796D01*
X009147Y026661D01*
X009074Y026484D01*
X009074Y026293D01*
X009147Y026117D01*
X009282Y025982D01*
X009459Y025909D01*
X009650Y025909D01*
X009826Y025982D01*
X009856Y026012D02*
X010724Y026012D01*
X010724Y026170D02*
X009983Y026170D01*
X010034Y026329D02*
X010724Y026329D01*
X010724Y026487D02*
X010033Y026487D01*
X009967Y026646D02*
X010724Y026646D01*
X010724Y026804D02*
X009805Y026804D01*
X009781Y026963D02*
X010724Y026963D01*
X010724Y027121D02*
X009963Y027121D01*
X009961Y027117D02*
X009979Y027159D01*
X010150Y027159D01*
X010284Y027293D01*
X010521Y027531D01*
X010626Y027531D01*
X010724Y027571D01*
X010724Y024584D01*
X010724Y024393D01*
X010954Y024164D01*
X010954Y024150D01*
X011019Y023992D01*
X011140Y023871D01*
X011298Y023806D01*
X011469Y023806D01*
X011627Y023871D01*
X011748Y023992D01*
X011814Y024150D01*
X011814Y024321D01*
X011748Y024479D01*
X011627Y024600D01*
X011541Y024636D01*
X011627Y024671D01*
X011748Y024792D01*
X011814Y024950D01*
X011814Y025121D01*
X011748Y025279D01*
X011627Y025400D01*
X011541Y025436D01*
X011627Y025471D01*
X011748Y025592D01*
X011814Y025750D01*
X011814Y025921D01*
X011748Y026079D01*
X011627Y026200D01*
X011541Y026236D01*
X011627Y026271D01*
X011748Y026392D01*
X011814Y026550D01*
X011814Y026721D01*
X011748Y026879D01*
X011627Y027000D01*
X011541Y027036D01*
X011627Y027071D01*
X011748Y027192D01*
X011814Y027350D01*
X011814Y027521D01*
X011748Y027679D01*
X011627Y027800D01*
X011541Y027836D01*
X011627Y027871D01*
X011748Y027992D01*
X011814Y028150D01*
X011814Y028321D01*
X011748Y028479D01*
X011627Y028600D01*
X011541Y028636D01*
X011627Y028671D01*
X011748Y028792D01*
X011814Y028950D01*
X011814Y029121D01*
X011748Y029279D01*
X011627Y029400D01*
X011541Y029436D01*
X011627Y029471D01*
X011748Y029592D01*
X011814Y029750D01*
X011814Y029921D01*
X011748Y030079D01*
X011627Y030200D01*
X011541Y030236D01*
X011627Y030271D01*
X011748Y030392D01*
X011814Y030550D01*
X011814Y030721D01*
X011748Y030879D01*
X011627Y031000D01*
X011541Y031036D01*
X011627Y031071D01*
X011748Y031192D01*
X011814Y031350D01*
X011814Y031521D01*
X011748Y031679D01*
X011627Y031800D01*
X011469Y031866D01*
X011402Y031866D01*
X010017Y033251D01*
X010034Y033293D01*
X010034Y033484D01*
X009961Y033661D01*
X009826Y033796D01*
X009650Y033869D01*
X009459Y033869D01*
X009282Y033796D01*
X009147Y033661D01*
X009074Y033484D01*
X009074Y033293D01*
X009147Y033117D01*
X009282Y032982D01*
X009459Y032909D01*
X009650Y032909D01*
X009692Y032926D01*
X009819Y032798D01*
X009650Y032869D01*
X009459Y032869D01*
X009282Y032796D01*
X009147Y032661D01*
X009074Y032484D01*
X009074Y032293D01*
X009147Y032117D01*
X009282Y031982D01*
X009459Y031909D01*
X009650Y031909D01*
X009692Y031926D01*
X009819Y031798D01*
X009650Y031869D01*
X009459Y031869D01*
X009282Y031796D01*
X009147Y031661D01*
X009074Y031484D01*
X009074Y031293D01*
X009147Y031117D01*
X009282Y030982D01*
X009459Y030909D01*
X009650Y030909D01*
X009692Y030926D01*
X009819Y030798D01*
X009650Y030869D01*
X009459Y030869D01*
X009282Y030796D01*
X009147Y030661D01*
X009074Y030484D01*
X009074Y030293D01*
X009147Y030117D01*
X009282Y029982D01*
X009459Y029909D01*
X009650Y029909D01*
X009692Y029926D01*
X009819Y029798D01*
X009650Y029869D01*
X009459Y029869D01*
X009282Y029796D01*
X009147Y029661D01*
X009074Y029484D01*
X009074Y029293D01*
X009147Y029117D01*
X009282Y028982D01*
X009459Y028909D01*
X009650Y028909D01*
X009692Y028926D01*
X009819Y028798D01*
X009650Y028869D01*
X009459Y028869D01*
X009282Y028796D01*
X009147Y028661D01*
X009074Y028484D01*
X009074Y028293D01*
X009147Y028117D01*
X009282Y027982D01*
X009459Y027909D01*
X009650Y027909D01*
X009826Y027982D01*
X009961Y028117D01*
X010034Y028293D01*
X010034Y028484D01*
X009964Y028654D01*
X010404Y028214D01*
X010351Y028192D01*
X010251Y028091D01*
X010196Y027960D01*
X010196Y027856D01*
X009973Y027632D01*
X009961Y027661D01*
X009826Y027796D01*
X009650Y027869D01*
X009459Y027869D01*
X009282Y027796D01*
X009147Y027661D01*
X009074Y027484D01*
X009074Y027293D01*
X009147Y027117D01*
X009282Y026982D01*
X009459Y026909D01*
X009650Y026909D01*
X009826Y026982D01*
X009961Y027117D01*
X010271Y027280D02*
X010724Y027280D01*
X010724Y027439D02*
X010429Y027439D01*
X010096Y027756D02*
X009866Y027756D01*
X009663Y027914D02*
X010196Y027914D01*
X010243Y028073D02*
X009917Y028073D01*
X010009Y028231D02*
X010387Y028231D01*
X010228Y028390D02*
X010034Y028390D01*
X010008Y028548D02*
X010069Y028548D01*
X009752Y028865D02*
X009658Y028865D01*
X009451Y028865D02*
X004658Y028865D01*
X004650Y028909D02*
X004826Y028982D01*
X004961Y029117D01*
X005034Y029293D01*
X005034Y029484D01*
X004961Y029661D01*
X004826Y029796D01*
X004650Y029869D01*
X004459Y029869D01*
X004282Y029796D01*
X004147Y029661D01*
X004074Y029484D01*
X004074Y029293D01*
X004147Y029117D01*
X004282Y028982D01*
X004459Y028909D01*
X004650Y028909D01*
X004451Y028865D02*
X004010Y028865D01*
X004008Y028707D02*
X004194Y028707D01*
X004240Y029024D02*
X003925Y029024D01*
X004074Y029341D02*
X003030Y029341D01*
X002992Y029500D02*
X004081Y029500D01*
X004146Y029658D02*
X003114Y029658D01*
X003154Y029817D02*
X004333Y029817D01*
X004370Y029944D02*
X004442Y029920D01*
X004517Y029909D01*
X004534Y029909D01*
X004534Y030368D01*
X004574Y030368D01*
X004574Y029909D01*
X004592Y029909D01*
X004667Y029920D01*
X004739Y029944D01*
X004806Y029978D01*
X004867Y030023D01*
X004920Y030076D01*
X004965Y030137D01*
X004999Y030204D01*
X005022Y030276D01*
X005034Y030351D01*
X005034Y030369D01*
X004575Y030369D01*
X004575Y030409D01*
X005034Y030409D01*
X005034Y030426D01*
X005022Y030501D01*
X004999Y030573D01*
X004965Y030640D01*
X004920Y030701D01*
X004867Y030755D01*
X004806Y030799D01*
X004739Y030833D01*
X004667Y030857D01*
X004592Y030869D01*
X004574Y030869D01*
X004574Y030409D01*
X004534Y030409D01*
X004534Y030869D01*
X004517Y030869D01*
X004442Y030857D01*
X004370Y030833D01*
X004303Y030799D01*
X004242Y030755D01*
X004188Y030701D01*
X004144Y030640D01*
X004109Y030573D01*
X004086Y030501D01*
X004074Y030426D01*
X004074Y030409D01*
X004534Y030409D01*
X004534Y030369D01*
X004074Y030369D01*
X004074Y030351D01*
X004086Y030276D01*
X004109Y030204D01*
X004144Y030137D01*
X004188Y030076D01*
X004242Y030023D01*
X004303Y029978D01*
X004370Y029944D01*
X004308Y029975D02*
X003133Y029975D01*
X003037Y030134D02*
X004146Y030134D01*
X004084Y030292D02*
X002985Y030292D01*
X003111Y030451D02*
X004078Y030451D01*
X004128Y030609D02*
X003154Y030609D01*
X003136Y030768D02*
X004260Y030768D01*
X004370Y030944D02*
X004442Y030920D01*
X004517Y030909D01*
X004534Y030909D01*
X004534Y031368D01*
X004574Y031368D01*
X004574Y030909D01*
X004592Y030909D01*
X004667Y030920D01*
X004739Y030944D01*
X004806Y030978D01*
X004867Y031023D01*
X004920Y031076D01*
X004965Y031137D01*
X004999Y031204D01*
X005022Y031276D01*
X005034Y031351D01*
X005034Y031369D01*
X004575Y031369D01*
X004575Y031409D01*
X005034Y031409D01*
X005034Y031426D01*
X005022Y031501D01*
X004999Y031573D01*
X004965Y031640D01*
X004920Y031701D01*
X004867Y031755D01*
X004806Y031799D01*
X004739Y031833D01*
X004667Y031857D01*
X004592Y031869D01*
X004574Y031869D01*
X004574Y031409D01*
X004534Y031409D01*
X004534Y031869D01*
X004517Y031869D01*
X004442Y031857D01*
X004370Y031833D01*
X004303Y031799D01*
X004242Y031755D01*
X004188Y031701D01*
X004144Y031640D01*
X004109Y031573D01*
X004086Y031501D01*
X004074Y031426D01*
X004074Y031409D01*
X004534Y031409D01*
X004534Y031369D01*
X004074Y031369D01*
X004074Y031351D01*
X004086Y031276D01*
X004109Y031204D01*
X004144Y031137D01*
X004188Y031076D01*
X004242Y031023D01*
X004303Y030978D01*
X004370Y030944D01*
X004423Y030926D02*
X003044Y030926D01*
X003124Y031085D02*
X004182Y031085D01*
X004097Y031244D02*
X003154Y031244D01*
X003154Y031402D02*
X004534Y031402D01*
X004575Y031402D02*
X009074Y031402D01*
X009095Y031244D02*
X005012Y031244D01*
X004927Y031085D02*
X009179Y031085D01*
X009255Y030768D02*
X004849Y030768D01*
X004981Y030609D02*
X009126Y030609D01*
X009074Y030451D02*
X005030Y030451D01*
X005025Y030292D02*
X009075Y030292D01*
X009140Y030134D02*
X004962Y030134D01*
X004962Y029658D02*
X009146Y029658D01*
X009081Y029500D02*
X005028Y029500D01*
X005034Y029341D02*
X009074Y029341D01*
X009120Y029182D02*
X004988Y029182D01*
X004868Y029024D02*
X009240Y029024D01*
X009194Y028707D02*
X004915Y028707D01*
X005008Y028548D02*
X009101Y028548D01*
X009074Y028390D02*
X005034Y028390D01*
X005009Y028231D02*
X009100Y028231D01*
X009191Y028073D02*
X004917Y028073D01*
X004826Y027796D02*
X004650Y027869D01*
X004459Y027869D01*
X004282Y027796D01*
X004147Y027661D01*
X004074Y027484D01*
X004074Y027293D01*
X004147Y027117D01*
X004282Y026982D01*
X004459Y026909D01*
X004650Y026909D01*
X004826Y026982D01*
X004961Y027117D01*
X005034Y027293D01*
X005034Y027484D01*
X004961Y027661D01*
X004826Y027796D01*
X004866Y027756D02*
X009242Y027756D01*
X009121Y027597D02*
X004988Y027597D01*
X005034Y027439D02*
X009074Y027439D01*
X009080Y027280D02*
X005029Y027280D01*
X004963Y027121D02*
X009145Y027121D01*
X009304Y026804D02*
X004805Y026804D01*
X004781Y026963D02*
X009328Y026963D01*
X009141Y026646D02*
X004967Y026646D01*
X005033Y026487D02*
X009076Y026487D01*
X009074Y026329D02*
X005034Y026329D01*
X004983Y026170D02*
X009125Y026170D01*
X009253Y026012D02*
X004856Y026012D01*
X004687Y025853D02*
X009421Y025853D01*
X009687Y025853D02*
X010724Y025853D01*
X010724Y024743D02*
X009879Y024743D01*
X009993Y024585D02*
X010724Y024585D01*
X010724Y024426D02*
X010034Y024426D01*
X010024Y024268D02*
X010850Y024268D01*
X010971Y024109D02*
X009954Y024109D01*
X009751Y023951D02*
X011061Y023951D01*
X011163Y023475D02*
X010946Y023475D01*
X010676Y023633D02*
X011432Y023633D01*
X011676Y023633D02*
X013254Y023633D01*
X013254Y023475D02*
X011946Y023475D01*
X012055Y023316D02*
X013254Y023316D01*
X013254Y023158D02*
X012104Y023158D01*
X012104Y022999D02*
X013254Y022999D01*
X013254Y022841D02*
X012047Y022841D01*
X011926Y022682D02*
X013254Y022682D01*
X013254Y022524D02*
X011897Y022524D01*
X012035Y022365D02*
X013254Y022365D01*
X013254Y022207D02*
X012101Y022207D01*
X012104Y022048D02*
X013254Y022048D01*
X013254Y021889D02*
X012067Y021889D01*
X011974Y021731D02*
X013254Y021731D01*
X013254Y021572D02*
X012096Y021572D01*
X012254Y021414D02*
X013254Y021414D01*
X013254Y021255D02*
X012284Y021255D01*
X012284Y021097D02*
X013254Y021097D01*
X013254Y020938D02*
X012284Y020938D01*
X012284Y020780D02*
X013254Y020780D01*
X013254Y020621D02*
X012284Y020621D01*
X012284Y020463D02*
X013254Y020463D01*
X013254Y020304D02*
X012284Y020304D01*
X012284Y020146D02*
X013254Y020146D01*
X013254Y019987D02*
X012284Y019987D01*
X012284Y019828D02*
X013254Y019828D01*
X013254Y019670D02*
X012284Y019670D01*
X012284Y019511D02*
X013254Y019511D01*
X013254Y019353D02*
X012284Y019353D01*
X012284Y019194D02*
X013254Y019194D01*
X013254Y019036D02*
X012284Y019036D01*
X012284Y018877D02*
X013254Y018877D01*
X013254Y018719D02*
X012284Y018719D01*
X012284Y018560D02*
X013254Y018560D01*
X013254Y018402D02*
X012348Y018402D01*
X012412Y018243D02*
X013254Y018243D01*
X013254Y018084D02*
X012399Y018084D01*
X012298Y017926D02*
X013254Y017926D01*
X011811Y017926D02*
X011698Y017926D01*
X011211Y017926D02*
X010898Y017926D01*
X010999Y018084D02*
X011110Y018084D01*
X010163Y023475D02*
X009946Y023475D01*
X009676Y023633D02*
X010432Y023633D01*
X011706Y023951D02*
X013254Y023951D01*
X013254Y024109D02*
X011796Y024109D01*
X011814Y024268D02*
X013254Y024268D01*
X013254Y024426D02*
X011770Y024426D01*
X011643Y024585D02*
X013254Y024585D01*
X013254Y024743D02*
X011699Y024743D01*
X011793Y024902D02*
X012283Y024902D01*
X012303Y024881D02*
X012174Y025010D01*
X012174Y025311D01*
X012174Y025403D01*
X012243Y025472D01*
X012174Y025541D01*
X012174Y025723D01*
X012174Y025771D01*
X012174Y025863D01*
X012208Y025897D01*
X012174Y025931D01*
X012174Y026113D01*
X012223Y026162D01*
X012174Y026211D01*
X012174Y026394D01*
X012303Y026522D01*
X012455Y026522D01*
X012455Y026563D01*
X012373Y026563D01*
X012373Y026563D01*
X012272Y026664D01*
X012244Y026692D01*
X012244Y026692D01*
X012174Y026762D01*
X012174Y026944D01*
X012303Y027073D01*
X012486Y027073D01*
X012534Y027024D01*
X012583Y027073D01*
X012766Y027073D01*
X012895Y026944D01*
X012895Y026944D01*
X012965Y026874D01*
X012965Y026773D01*
X012976Y026773D01*
X013105Y026644D01*
X013105Y026461D01*
X012976Y026333D01*
X012885Y026333D01*
X012895Y026323D01*
X012895Y026141D01*
X012895Y025931D01*
X012861Y025897D01*
X012895Y025863D01*
X012895Y025723D01*
X012895Y025723D01*
X012895Y025631D01*
X012895Y025543D01*
X012906Y025532D01*
X013035Y025403D01*
X013035Y025010D01*
X012906Y024881D01*
X012724Y024881D01*
X012485Y024881D01*
X012303Y024881D01*
X012174Y025060D02*
X011814Y025060D01*
X011773Y025219D02*
X012174Y025219D01*
X012174Y025377D02*
X011650Y025377D01*
X011692Y025536D02*
X012179Y025536D01*
X012174Y025695D02*
X011790Y025695D01*
X011814Y025853D02*
X012174Y025853D01*
X012174Y026012D02*
X011776Y026012D01*
X011657Y026170D02*
X012215Y026170D01*
X012174Y026329D02*
X011684Y026329D01*
X011787Y026487D02*
X012268Y026487D01*
X012373Y026563D02*
X012373Y026563D01*
X012290Y026646D02*
X011814Y026646D01*
X011779Y026804D02*
X012174Y026804D01*
X012193Y026963D02*
X011665Y026963D01*
X011677Y027121D02*
X013254Y027121D01*
X013254Y026963D02*
X012876Y026963D01*
X012965Y026804D02*
X013254Y026804D01*
X013254Y026646D02*
X013103Y026646D01*
X013105Y026487D02*
X013254Y026487D01*
X013254Y026329D02*
X012889Y026329D01*
X012895Y026170D02*
X013254Y026170D01*
X013254Y026012D02*
X012895Y026012D01*
X012895Y025853D02*
X013254Y025853D01*
X013254Y025695D02*
X012895Y025695D01*
X012901Y025536D02*
X013254Y025536D01*
X013254Y025377D02*
X013035Y025377D01*
X013035Y025219D02*
X013254Y025219D01*
X013254Y025060D02*
X013035Y025060D01*
X012926Y024902D02*
X013254Y024902D01*
X013254Y023792D02*
X004283Y023792D01*
X004432Y023633D02*
X004124Y023633D01*
X004163Y023475D02*
X003966Y023475D01*
X003759Y023919D02*
X004092Y024251D01*
X004074Y024293D01*
X004074Y024484D01*
X004147Y024659D01*
X003459Y024659D01*
X003324Y024793D01*
X003309Y024809D01*
X003094Y024809D01*
X003088Y024795D01*
X002967Y024674D01*
X002883Y024639D01*
X002889Y024637D01*
X002949Y024607D01*
X003004Y024567D01*
X003052Y024519D01*
X003091Y024464D01*
X003122Y024404D01*
X003143Y024340D01*
X003154Y024273D01*
X003154Y024239D01*
X002724Y024239D01*
X002724Y024239D01*
X003154Y024239D01*
X003154Y024205D01*
X003143Y024138D01*
X003122Y024074D01*
X003091Y024014D01*
X003052Y023959D01*
X003011Y023919D01*
X003759Y023919D01*
X003791Y023951D02*
X003043Y023951D01*
X003134Y024109D02*
X003950Y024109D01*
X004085Y024268D02*
X003154Y024268D01*
X003111Y024426D02*
X004074Y024426D01*
X004116Y024585D02*
X002979Y024585D01*
X003036Y024743D02*
X003374Y024743D01*
X003549Y025219D02*
X004105Y025219D01*
X004074Y025377D02*
X002993Y025377D01*
X003029Y025536D02*
X004096Y025536D01*
X004181Y025695D02*
X003129Y025695D01*
X003154Y025853D02*
X004421Y025853D01*
X004253Y026012D02*
X003117Y026012D01*
X003000Y026170D02*
X003667Y026170D01*
X003509Y026329D02*
X003021Y026329D01*
X003126Y026487D02*
X003350Y026487D01*
X003191Y026646D02*
X003154Y026646D01*
X003366Y027121D02*
X004145Y027121D01*
X004080Y027280D02*
X003208Y027280D01*
X003154Y027439D02*
X004074Y027439D01*
X004121Y027597D02*
X003124Y027597D01*
X003015Y027756D02*
X004242Y027756D01*
X004446Y027914D02*
X003007Y027914D01*
X003120Y028073D02*
X004191Y028073D01*
X004120Y029182D02*
X003586Y029182D01*
X003525Y026963D02*
X004328Y026963D01*
X004304Y026804D02*
X003683Y026804D01*
X003842Y026646D02*
X004141Y026646D01*
X004663Y027914D02*
X009446Y027914D01*
X009333Y029817D02*
X004775Y029817D01*
X004800Y029975D02*
X009298Y029975D01*
X009416Y030926D02*
X004685Y030926D01*
X004574Y030926D02*
X004534Y030926D01*
X004534Y030768D02*
X004574Y030768D01*
X004574Y030609D02*
X004534Y030609D01*
X004534Y030451D02*
X004574Y030451D01*
X004574Y030292D02*
X004534Y030292D01*
X004534Y030134D02*
X004574Y030134D01*
X004574Y029975D02*
X004534Y029975D01*
X004534Y031085D02*
X004574Y031085D01*
X004574Y031244D02*
X004534Y031244D01*
X004534Y031561D02*
X004574Y031561D01*
X004574Y031719D02*
X004534Y031719D01*
X004459Y031909D02*
X004650Y031909D01*
X004826Y031982D01*
X004961Y032117D01*
X005034Y032293D01*
X005034Y032484D01*
X004961Y032661D01*
X004826Y032796D01*
X004650Y032869D01*
X004459Y032869D01*
X004282Y032796D01*
X004147Y032661D01*
X004074Y032484D01*
X004074Y032293D01*
X004147Y032117D01*
X004282Y031982D01*
X004459Y031909D01*
X004228Y032036D02*
X002202Y032036D01*
X002043Y031878D02*
X009740Y031878D01*
X009228Y032036D02*
X004881Y032036D01*
X004994Y032195D02*
X009115Y032195D01*
X009074Y032353D02*
X005034Y032353D01*
X005023Y032512D02*
X009086Y032512D01*
X009157Y032670D02*
X004951Y032670D01*
X004826Y032982D02*
X004961Y033117D01*
X005034Y033293D01*
X005034Y033484D01*
X004961Y033661D01*
X004826Y033796D01*
X004650Y033869D01*
X004459Y033869D01*
X004282Y033796D01*
X004147Y033661D01*
X004074Y033484D01*
X004074Y033293D01*
X004147Y033117D01*
X004282Y032982D01*
X004459Y032909D01*
X004650Y032909D01*
X004826Y032982D01*
X004832Y032988D02*
X009277Y032988D01*
X009363Y032829D02*
X004746Y032829D01*
X004973Y033146D02*
X009135Y033146D01*
X009074Y033305D02*
X005034Y033305D01*
X005034Y033463D02*
X009074Y033463D01*
X009131Y033622D02*
X004977Y033622D01*
X004842Y033780D02*
X009267Y033780D01*
X009746Y032829D02*
X009789Y032829D01*
X010122Y033146D02*
X010797Y033146D01*
X010955Y032988D02*
X010281Y032988D01*
X010439Y032829D02*
X011114Y032829D01*
X011273Y032670D02*
X010598Y032670D01*
X010756Y032512D02*
X011431Y032512D01*
X011590Y032353D02*
X010915Y032353D01*
X011073Y032195D02*
X011748Y032195D01*
X011907Y032036D02*
X011232Y032036D01*
X011390Y031878D02*
X012065Y031878D01*
X012224Y031719D02*
X011708Y031719D01*
X011797Y031561D02*
X012382Y031561D01*
X012541Y031402D02*
X011814Y031402D01*
X011769Y031244D02*
X012699Y031244D01*
X012858Y031085D02*
X011641Y031085D01*
X011701Y030926D02*
X013016Y030926D01*
X013175Y030768D02*
X011794Y030768D01*
X011814Y030609D02*
X013254Y030609D01*
X013254Y030451D02*
X011772Y030451D01*
X011648Y030292D02*
X013254Y030292D01*
X013254Y030134D02*
X011694Y030134D01*
X011791Y029975D02*
X013254Y029975D01*
X013254Y029817D02*
X011814Y029817D01*
X011775Y029658D02*
X012293Y029658D01*
X012303Y029668D02*
X012174Y029539D01*
X012174Y029147D01*
X012202Y029120D01*
X012174Y029092D01*
X012174Y028770D01*
X012174Y028590D01*
X012223Y028541D01*
X012174Y028492D01*
X012174Y028312D01*
X012174Y027919D01*
X012303Y027790D01*
X012314Y027779D01*
X012314Y027700D01*
X012303Y027700D01*
X012174Y027571D01*
X012174Y027389D01*
X012303Y027260D01*
X012443Y027260D01*
X012626Y027260D01*
X012724Y027260D01*
X012906Y027260D01*
X013035Y027389D01*
X013035Y027599D01*
X013035Y027781D01*
X012965Y027851D01*
X012895Y027921D01*
X012895Y028059D01*
X012895Y028242D01*
X012861Y028276D01*
X012895Y028310D01*
X012895Y028520D01*
X012895Y028702D01*
X012885Y028711D01*
X012976Y028711D01*
X013105Y028840D01*
X013105Y029022D01*
X012976Y029151D01*
X012895Y029151D01*
X012895Y029237D01*
X012895Y029329D01*
X012895Y029329D01*
X012895Y029539D01*
X012766Y029668D01*
X012583Y029668D01*
X012534Y029619D01*
X012485Y029668D01*
X012303Y029668D01*
X012495Y029658D02*
X012573Y029658D01*
X012776Y029658D02*
X013254Y029658D01*
X013254Y029500D02*
X012895Y029500D01*
X012895Y029341D02*
X013254Y029341D01*
X013254Y029182D02*
X012895Y029182D01*
X013103Y029024D02*
X013254Y029024D01*
X013254Y028865D02*
X013105Y028865D01*
X013254Y028707D02*
X012890Y028707D01*
X012895Y028548D02*
X013254Y028548D01*
X013254Y028390D02*
X012895Y028390D01*
X012895Y028231D02*
X013254Y028231D01*
X013254Y028073D02*
X012895Y028073D01*
X012902Y027914D02*
X013254Y027914D01*
X013254Y027756D02*
X013035Y027756D01*
X013035Y027597D02*
X013254Y027597D01*
X013254Y027439D02*
X013035Y027439D01*
X012926Y027280D02*
X013254Y027280D01*
X012314Y027756D02*
X011672Y027756D01*
X011670Y027914D02*
X012179Y027914D01*
X012174Y028073D02*
X011781Y028073D01*
X011814Y028231D02*
X012174Y028231D01*
X012174Y028390D02*
X011785Y028390D01*
X011679Y028548D02*
X012216Y028548D01*
X012174Y028707D02*
X011663Y028707D01*
X011778Y028865D02*
X012174Y028865D01*
X012174Y029024D02*
X011814Y029024D01*
X011788Y029182D02*
X012174Y029182D01*
X012174Y029341D02*
X011687Y029341D01*
X011655Y029500D02*
X012174Y029500D01*
X012200Y027597D02*
X011782Y027597D01*
X011814Y027439D02*
X012174Y027439D01*
X012283Y027280D02*
X011784Y027280D01*
X009801Y029817D02*
X009775Y029817D01*
X009106Y031561D02*
X005003Y031561D01*
X004903Y031719D02*
X009206Y031719D01*
X010034Y033305D02*
X010638Y033305D01*
X010480Y033463D02*
X010034Y033463D01*
X009977Y033622D02*
X010321Y033622D01*
X010163Y033780D02*
X009842Y033780D01*
X010004Y033939D02*
X004104Y033939D01*
X003946Y033780D02*
X004267Y033780D01*
X004131Y033622D02*
X003787Y033622D01*
X003629Y033463D02*
X004074Y033463D01*
X004074Y033305D02*
X003470Y033305D01*
X003312Y033146D02*
X004135Y033146D01*
X004277Y032988D02*
X003153Y032988D01*
X002995Y032829D02*
X004363Y032829D01*
X004157Y032670D02*
X002836Y032670D01*
X002678Y032512D02*
X004086Y032512D01*
X004074Y032353D02*
X002519Y032353D01*
X002360Y032195D02*
X004115Y032195D01*
X004206Y031719D02*
X003154Y031719D01*
X003154Y031561D02*
X004106Y031561D01*
X002566Y028639D02*
X002480Y028603D01*
X002359Y028482D01*
X002294Y028324D01*
X002294Y028153D01*
X002359Y027995D01*
X002480Y027874D01*
X002566Y027839D01*
X002480Y027803D01*
X002359Y027682D01*
X002294Y027524D01*
X002294Y027353D01*
X002359Y027195D01*
X002480Y027074D01*
X002566Y027039D01*
X002480Y027003D01*
X002359Y026882D01*
X002294Y026724D01*
X002294Y026553D01*
X002359Y026395D01*
X002480Y026274D01*
X002566Y026239D01*
X002480Y026203D01*
X002359Y026082D01*
X002294Y025924D01*
X002294Y025753D01*
X002359Y025595D01*
X002480Y025474D01*
X002566Y025439D01*
X002480Y025403D01*
X002359Y025282D01*
X002294Y025124D01*
X002294Y024953D01*
X002359Y024795D01*
X002480Y024674D01*
X002565Y024639D01*
X002559Y024637D01*
X002498Y024607D01*
X002443Y024567D01*
X002396Y024519D01*
X002356Y024464D01*
X002325Y024404D01*
X002304Y024340D01*
X002294Y024273D01*
X002294Y024239D01*
X002723Y024239D01*
X002723Y024239D01*
X002294Y024239D01*
X002294Y024205D01*
X002304Y024138D01*
X002325Y024074D01*
X002356Y024014D01*
X002396Y023959D01*
X002436Y023919D01*
X001650Y023919D01*
X001484Y023919D01*
X001484Y028274D01*
X002294Y029084D01*
X002294Y028953D01*
X002359Y028795D01*
X002480Y028674D01*
X002566Y028639D01*
X002448Y028707D02*
X001917Y028707D01*
X002075Y028865D02*
X002330Y028865D01*
X002294Y029024D02*
X002234Y029024D01*
X002425Y028548D02*
X001758Y028548D01*
X001600Y028390D02*
X002321Y028390D01*
X002294Y028231D02*
X001484Y028231D01*
X001484Y028073D02*
X002327Y028073D01*
X002440Y027914D02*
X001484Y027914D01*
X001484Y027756D02*
X002432Y027756D01*
X002324Y027597D02*
X001484Y027597D01*
X001484Y027439D02*
X002294Y027439D01*
X002324Y027280D02*
X001484Y027280D01*
X001484Y027121D02*
X002433Y027121D01*
X002440Y026963D02*
X001484Y026963D01*
X001484Y026804D02*
X002327Y026804D01*
X002294Y026646D02*
X001484Y026646D01*
X001484Y026487D02*
X002321Y026487D01*
X002426Y026329D02*
X001484Y026329D01*
X001484Y026170D02*
X002447Y026170D01*
X002330Y026012D02*
X001484Y026012D01*
X001484Y025853D02*
X002294Y025853D01*
X002318Y025695D02*
X001484Y025695D01*
X001484Y025536D02*
X002418Y025536D01*
X002454Y025377D02*
X001484Y025377D01*
X001484Y025219D02*
X002333Y025219D01*
X002294Y025060D02*
X001484Y025060D01*
X001484Y024902D02*
X002315Y024902D01*
X002411Y024743D02*
X001484Y024743D01*
X001484Y024585D02*
X002468Y024585D01*
X002336Y024426D02*
X001484Y024426D01*
X001484Y024268D02*
X002294Y024268D01*
X002314Y024109D02*
X001484Y024109D01*
X001484Y023951D02*
X002404Y023951D01*
X002053Y023316D02*
X001507Y023316D01*
X001484Y023158D02*
X002004Y023158D01*
X002004Y022999D02*
X001484Y022999D01*
X001484Y022841D02*
X002062Y022841D01*
X002183Y022682D02*
X001484Y022682D01*
X001484Y022524D02*
X002212Y022524D01*
X002074Y022365D02*
X001484Y022365D01*
X001060Y017133D02*
X000854Y017133D01*
X000854Y016975D02*
X001004Y016975D01*
X001004Y016816D02*
X000854Y016816D01*
X000854Y016658D02*
X001055Y016658D01*
X001166Y016499D02*
X000854Y016499D01*
X000854Y016340D02*
X001228Y016340D01*
X001081Y016182D02*
X000854Y016182D01*
X000854Y016023D02*
X001015Y016023D01*
X001004Y015865D02*
X000854Y015865D01*
X000854Y015706D02*
X001035Y015706D01*
X001117Y015548D02*
X000854Y015548D01*
X000854Y015389D02*
X001323Y015389D01*
X001123Y015231D02*
X000854Y015231D01*
X000854Y015072D02*
X001036Y015072D01*
X001004Y014914D02*
X000854Y014914D01*
X000854Y014755D02*
X001019Y014755D01*
X001087Y014596D02*
X000854Y014596D01*
X000854Y014438D02*
X001239Y014438D01*
X001167Y014279D02*
X000854Y014279D01*
X000854Y014121D02*
X001055Y014121D01*
X001004Y013962D02*
X000854Y013962D01*
X000854Y013804D02*
X001004Y013804D01*
X001060Y013645D02*
X000854Y013645D01*
X000854Y013487D02*
X001178Y013487D01*
X001216Y013328D02*
X000854Y013328D01*
X000854Y013170D02*
X001075Y013170D01*
X001010Y013011D02*
X000854Y013011D01*
X000854Y012853D02*
X001004Y012853D01*
X001040Y012694D02*
X000854Y012694D01*
X000854Y012535D02*
X001130Y012535D01*
X001992Y011584D02*
X002124Y011584D01*
X002784Y012377D02*
X002817Y012377D01*
X002784Y014755D02*
X003824Y014755D01*
X003639Y014914D02*
X002784Y014914D01*
X002784Y015072D02*
X003596Y015072D01*
X003626Y015231D02*
X002922Y015231D01*
X003080Y015389D02*
X003724Y015389D01*
X003724Y015548D02*
X003239Y015548D01*
X003397Y015706D02*
X003724Y015706D01*
X003708Y015865D02*
X003724Y015865D01*
X004315Y019353D02*
X008184Y019353D01*
X008099Y019511D02*
X004157Y019511D01*
X004946Y023475D02*
X005163Y023475D01*
X005004Y025219D02*
X009059Y025219D01*
X009074Y025377D02*
X005034Y025377D01*
X005013Y025536D02*
X009096Y025536D01*
X009181Y025695D02*
X004927Y025695D01*
X005946Y023475D02*
X006163Y023475D01*
X002403Y030926D02*
X001092Y030926D01*
X000934Y030768D02*
X002312Y030768D01*
X002294Y030609D02*
X000854Y030609D01*
X000854Y030451D02*
X002210Y030451D01*
X002052Y030292D02*
X000854Y030292D01*
X000854Y030134D02*
X001893Y030134D01*
X001735Y029975D02*
X000854Y029975D01*
X000854Y029817D02*
X001576Y029817D01*
X001418Y029658D02*
X000854Y029658D01*
X000854Y029500D02*
X001259Y029500D01*
X001101Y029341D02*
X000854Y029341D01*
X000854Y029182D02*
X000942Y029182D01*
X001251Y031085D02*
X002323Y031085D01*
X002294Y031244D02*
X001409Y031244D01*
X001568Y031402D02*
X002294Y031402D01*
X002294Y031561D02*
X001726Y031561D01*
X001885Y031719D02*
X002294Y031719D01*
X010584Y011584D02*
X012117Y011584D01*
X011946Y011426D02*
X010584Y011426D01*
X010584Y011267D02*
X011834Y011267D01*
X011769Y011109D02*
X010584Y011109D01*
X010584Y010950D02*
X011744Y010950D01*
X011744Y010791D02*
X010584Y010791D01*
X010584Y010633D02*
X011784Y010633D01*
X011849Y010474D02*
X010465Y010474D01*
X010307Y010316D02*
X011982Y010316D01*
X012204Y010157D02*
X010148Y010157D01*
X008512Y009047D02*
X013254Y009047D01*
X013254Y008889D02*
X008501Y008889D01*
X008402Y008730D02*
X013254Y008730D01*
X013254Y008572D02*
X008384Y008572D01*
X008304Y008413D02*
X013254Y008413D01*
X013254Y008255D02*
X008146Y008255D01*
X008443Y009206D02*
X013254Y009206D01*
X012385Y006194D02*
X012225Y006194D01*
X012225Y006035D02*
X012385Y006035D01*
X012385Y005877D02*
X012225Y005877D01*
X012225Y005718D02*
X012385Y005718D01*
X012385Y005560D02*
X012225Y005560D01*
X012225Y005401D02*
X012385Y005401D01*
X012508Y004291D02*
X013254Y004291D01*
X013254Y004450D02*
X012885Y004450D01*
X013068Y004608D02*
X013254Y004608D01*
X013254Y004767D02*
X013185Y004767D01*
X006630Y004450D02*
X006468Y004450D01*
X006340Y004608D02*
X006310Y004608D01*
X006182Y004767D02*
X006151Y004767D01*
X006102Y004925D02*
X005993Y004925D01*
X006037Y005084D02*
X005834Y005084D01*
X005676Y005242D02*
X006024Y005242D01*
X006024Y005401D02*
X005517Y005401D01*
X006064Y005560D02*
X004190Y005560D01*
X003415Y003657D02*
X005894Y003657D01*
X005801Y003498D02*
X003508Y003498D01*
X003534Y003340D02*
X005774Y003340D01*
X005800Y003181D02*
X003509Y003181D01*
X003417Y003023D02*
X005891Y003023D01*
X001584Y005877D02*
X001424Y005877D01*
X001424Y006035D02*
X001584Y006035D01*
X001584Y006194D02*
X001424Y006194D01*
X001424Y006352D02*
X001584Y006352D01*
D19*
X001054Y007889D03*
X001054Y008389D03*
X001054Y008889D03*
X001054Y009389D03*
X002904Y009289D03*
X002854Y011389D03*
X003654Y011489D03*
X004054Y011989D03*
X004354Y011489D03*
X004154Y013589D03*
X003454Y013589D03*
X003954Y015089D03*
X004254Y015389D03*
X003554Y016189D03*
X003554Y016689D03*
X004554Y019389D03*
X005054Y018889D03*
X005554Y016889D03*
X005554Y015389D03*
X006054Y014889D03*
X007054Y014889D03*
X007054Y015389D03*
X007554Y014889D03*
X007554Y016189D03*
X007554Y016889D03*
X007554Y017389D03*
X007554Y017889D03*
X008054Y017889D03*
X008054Y017389D03*
X008054Y016889D03*
X008054Y016189D03*
X008554Y016189D03*
X008554Y016889D03*
X008554Y017389D03*
X008554Y015389D03*
X009354Y014389D03*
X009854Y013389D03*
X009254Y012989D03*
X008754Y012989D03*
X008254Y012989D03*
X007754Y012989D03*
X007354Y013389D03*
X008054Y011389D03*
X007754Y010889D03*
X008154Y010089D03*
X008154Y008989D03*
X008654Y010089D03*
X009654Y011689D03*
X010954Y009789D03*
X010954Y009289D03*
X010954Y008789D03*
X010954Y008289D03*
X010954Y007789D03*
X011554Y007789D03*
X012054Y007789D03*
X012554Y007789D03*
X013054Y007789D03*
X013054Y008289D03*
X013054Y008789D03*
X013054Y009289D03*
X013054Y009789D03*
X012554Y009789D03*
X012054Y009789D03*
X011554Y009789D03*
X011054Y013389D03*
X010354Y015189D03*
X010654Y018189D03*
X011054Y018589D03*
X011454Y018189D03*
X011754Y018589D03*
X012054Y018189D03*
X013054Y018389D03*
X013054Y017889D03*
X013054Y017389D03*
X013054Y018889D03*
X013054Y023889D03*
X013054Y024389D03*
X012554Y024389D03*
X012554Y023889D03*
X010554Y027889D03*
X012054Y030389D03*
X012054Y030889D03*
X012554Y030889D03*
X012554Y030389D03*
X009354Y020089D03*
X008954Y019889D03*
X008454Y019589D03*
X009554Y018889D03*
X009554Y018389D03*
X010054Y018389D03*
X010054Y018889D03*
X011954Y013589D03*
X012754Y013589D03*
X009054Y005889D03*
X009054Y005389D03*
X009054Y004889D03*
X009054Y004389D03*
X008054Y004389D03*
X008054Y003889D03*
X008054Y003389D03*
X008054Y002889D03*
X008554Y006889D03*
X006954Y007189D03*
X007054Y011089D03*
X005754Y011289D03*
X005054Y006389D03*
X004554Y006389D03*
X004554Y005889D03*
X004054Y005889D03*
X003954Y005289D03*
X004054Y003889D03*
X004554Y003889D03*
X004554Y003389D03*
X005054Y003889D03*
X003054Y006189D03*
X007054Y016889D03*
X006554Y017689D03*
X006754Y019289D03*
X006754Y021289D03*
X006554Y023889D03*
X006554Y024389D03*
X007054Y023889D03*
X006054Y024389D03*
X003654Y028789D03*
X002054Y026889D03*
X002054Y026389D03*
X002054Y025889D03*
X002054Y025389D03*
X002054Y020389D03*
X002054Y019889D03*
X002554Y019889D03*
X006754Y030389D03*
X006754Y030889D03*
X007254Y030889D03*
X007254Y030389D03*
X013054Y003889D03*
X013054Y003389D03*
X012554Y003389D03*
X012554Y002889D03*
D20*
X009254Y009589D02*
X010354Y010689D01*
X010354Y015189D01*
X009854Y013389D02*
X009854Y011889D01*
X009654Y011689D01*
X009254Y011589D02*
X009254Y012989D01*
X008754Y012989D02*
X008754Y011589D01*
X008154Y010989D01*
X008154Y010089D01*
X007754Y010889D02*
X007754Y012989D01*
X007354Y013389D02*
X005954Y011989D01*
X004054Y011989D01*
X003854Y012389D02*
X004154Y012689D01*
X004154Y013589D01*
X003454Y014089D02*
X003754Y014389D01*
X005054Y014389D01*
X006554Y015889D01*
X006554Y017689D01*
X005654Y019989D02*
X004054Y021589D01*
X004054Y022589D01*
X003554Y023089D01*
X003854Y023689D02*
X001554Y023689D01*
X001254Y023389D01*
X001254Y028370D01*
X002724Y029839D01*
X002724Y030639D02*
X001054Y028970D01*
X001054Y021989D01*
X003954Y019089D01*
X003954Y015089D01*
X004254Y015389D02*
X004254Y019089D01*
X001254Y022089D01*
X001254Y023389D01*
X002554Y023089D02*
X003054Y022589D01*
X003054Y021589D01*
X004854Y019789D01*
X008354Y019789D01*
X008454Y019689D01*
X008454Y019589D01*
X008854Y019989D02*
X005654Y019989D01*
X006454Y020189D02*
X009254Y020189D01*
X009354Y020089D01*
X008954Y019889D02*
X008854Y019989D01*
X008654Y020989D02*
X010554Y020989D01*
X011054Y020489D01*
X011054Y018589D01*
X010654Y018289D02*
X010654Y018189D01*
X010654Y020489D01*
X010354Y020789D01*
X007854Y020789D01*
X007054Y021589D01*
X007054Y022289D01*
X006754Y022589D01*
X006054Y022589D01*
X005554Y023089D01*
X005054Y022589D02*
X005054Y021589D01*
X006454Y020189D01*
X007054Y022589D02*
X006554Y023089D01*
X007054Y022589D02*
X007754Y022589D01*
X008054Y022289D01*
X008054Y021589D01*
X008654Y020989D01*
X009054Y021589D02*
X009054Y022289D01*
X008754Y022589D01*
X008054Y022589D01*
X007554Y023089D01*
X008554Y023089D02*
X009054Y022589D01*
X009754Y022589D01*
X010054Y022289D01*
X010054Y021589D01*
X010254Y021389D01*
X011454Y021389D01*
X011754Y021089D01*
X011754Y018589D01*
X011454Y018189D02*
X011454Y020789D01*
X011054Y021189D01*
X009454Y021189D01*
X009054Y021589D01*
X010054Y022589D02*
X009554Y023089D01*
X010054Y022589D02*
X010754Y022589D01*
X011054Y022289D01*
X011054Y021689D01*
X011154Y021589D01*
X011754Y021589D01*
X012054Y021289D01*
X012054Y018189D01*
X011384Y024236D02*
X011207Y024236D01*
X010954Y024489D01*
X010954Y027989D01*
X009554Y029389D01*
X009554Y030389D02*
X010907Y029036D01*
X011384Y029036D01*
X011384Y029836D02*
X011107Y029836D01*
X009554Y031389D01*
X009554Y032389D02*
X011307Y030636D01*
X011384Y030636D01*
X011384Y031436D02*
X011384Y031559D01*
X009554Y033389D01*
X010554Y027889D02*
X010054Y027389D01*
X009554Y027389D01*
X009554Y025389D02*
X009054Y024889D01*
X003554Y024889D01*
X003404Y025039D01*
X002724Y025039D01*
X003774Y026389D02*
X002724Y027439D01*
X002724Y028239D02*
X002873Y028389D01*
X004554Y028389D01*
X004554Y026389D02*
X003774Y026389D01*
X004554Y024389D02*
X003854Y023689D01*
X004554Y023089D02*
X005054Y022589D01*
X003554Y016689D02*
X002354Y015489D01*
X002354Y010389D01*
X002054Y010089D01*
X002054Y007189D01*
X003054Y006189D01*
X003554Y006189D02*
X003554Y004839D01*
X002054Y003339D01*
X003554Y006189D02*
X002354Y007389D01*
X002354Y010089D01*
X002554Y010289D01*
X002554Y015189D01*
X003554Y016189D01*
X003454Y014089D02*
X003454Y013589D01*
X003154Y012389D02*
X003854Y012389D01*
X003154Y012389D02*
X002854Y012089D01*
X002854Y011389D01*
X002854Y010189D01*
X002554Y009889D01*
X002554Y008789D01*
X003054Y008289D01*
X003554Y008289D01*
X003354Y008089D01*
X003354Y007589D01*
X003754Y007189D01*
X006954Y007189D01*
X007854Y008289D02*
X004554Y008289D01*
X004054Y007789D01*
X003904Y007789D01*
X003904Y008289D02*
X003554Y008289D01*
X003904Y008289D02*
X004404Y008789D01*
X003204Y009589D02*
X002904Y009289D01*
X003204Y009589D02*
X009254Y009589D01*
X008654Y010089D02*
X008654Y010989D01*
X009254Y011589D01*
X008254Y011589D02*
X008254Y012989D01*
X008254Y011589D02*
X008054Y011389D01*
X008154Y008989D02*
X008154Y008589D01*
X007854Y008289D01*
X005304Y005289D02*
X007254Y003339D01*
X005304Y005289D02*
X003954Y005289D01*
X003654Y028789D02*
X003404Y029039D01*
X002724Y029039D01*
M02*
