G75*
G70*
%OFA0B0*%
%FSLAX24Y24*%
%IPPOS*%
%LPD*%
%AMOC8*
5,1,8,0,0,1.08239X$1,22.5*
%
%ADD10C,0.0160*%
%ADD11C,0.0150*%
%ADD12C,0.0100*%
%ADD13C,0.0090*%
%ADD14C,0.0020*%
%ADD15C,0.0080*%
%ADD16R,0.0118X0.0059*%
%ADD17R,0.0118X0.0118*%
%ADD18R,0.0160X0.0280*%
%ADD19R,0.0280X0.0160*%
%ADD20C,0.0143*%
%ADD21C,0.0010*%
%ADD22C,0.0030*%
%ADD23C,0.0060*%
%ADD24C,0.0050*%
%ADD25C,0.0240*%
%ADD26C,0.0040*%
%ADD27R,0.0079X0.0472*%
%ADD28R,0.0472X0.0079*%
%ADD29C,0.0220*%
D10*
X000834Y010057D02*
X000723Y010168D01*
X000629Y010294D01*
X000554Y010432D01*
X000499Y010579D01*
X000466Y010732D01*
X000454Y010889D01*
X000466Y011045D01*
X000499Y011199D01*
X000554Y011346D01*
X000629Y011483D01*
X000723Y011609D01*
X000834Y011720D01*
X000960Y011814D01*
X001097Y011889D01*
X001244Y011944D01*
X001398Y011977D01*
X001554Y011989D01*
X001711Y011977D01*
X001864Y011944D01*
X002011Y011889D01*
X002149Y011814D01*
X002275Y011720D01*
X002386Y011609D01*
X002480Y011483D01*
X002555Y011346D01*
X002610Y011199D01*
X002643Y011045D01*
X002654Y010889D01*
X002643Y010732D01*
X002610Y010579D01*
X002555Y010432D01*
X002480Y010294D01*
X002386Y010168D01*
X002275Y010057D01*
X002149Y009963D01*
X002011Y009888D01*
X001864Y009833D01*
X001711Y009800D01*
X001554Y009789D01*
X001398Y009800D01*
X001244Y009833D01*
X001097Y009888D01*
X000960Y009963D01*
X000834Y010057D01*
X000823Y010069D02*
X002286Y010069D01*
X002154Y009967D02*
X002154Y011810D01*
X002326Y011669D02*
X000783Y011669D01*
X000874Y011750D02*
X000874Y010027D01*
X001194Y009852D02*
X001194Y011925D01*
X001514Y011986D02*
X001514Y009791D01*
X001834Y009827D02*
X001834Y011951D01*
X002474Y011491D02*
X002474Y010287D01*
X002531Y010389D02*
X000577Y010389D01*
X000554Y010431D02*
X000554Y011347D01*
X000555Y011349D02*
X002553Y011349D01*
X002644Y011029D02*
X000464Y011029D01*
X000471Y010709D02*
X002638Y010709D01*
X003154Y014077D02*
X003154Y014101D01*
X003154Y014077D01*
X002654Y015277D02*
X002654Y015301D01*
X002654Y015277D01*
X002654Y015877D02*
X002654Y015901D01*
X002654Y015877D01*
X002654Y017277D02*
X002654Y017301D01*
X002654Y017277D01*
X002654Y017777D02*
X002654Y017801D01*
X002654Y018477D02*
X002654Y018501D01*
X002654Y018477D01*
X002654Y018977D02*
X002654Y019001D01*
X002434Y020469D02*
X002434Y021309D01*
X002715Y021029D01*
X002995Y021309D01*
X002995Y020469D01*
X003355Y020609D02*
X003355Y021029D01*
X003355Y020609D02*
X003495Y020469D01*
X003916Y020469D01*
X003916Y020329D02*
X003775Y020188D01*
X003635Y020188D01*
X003916Y020329D02*
X003916Y021029D01*
X004276Y020749D02*
X004696Y020749D01*
X004836Y020889D01*
X004836Y021169D01*
X004696Y021309D01*
X004276Y021309D01*
X004276Y020469D01*
X004556Y020749D02*
X004836Y020469D01*
X005197Y020609D02*
X005337Y020469D01*
X005617Y020469D01*
X005757Y020609D01*
X005757Y020889D01*
X005617Y021029D01*
X005337Y021029D01*
X005197Y020889D01*
X005197Y020609D01*
X006117Y020469D02*
X006538Y020469D01*
X006678Y020609D01*
X006678Y020889D01*
X006538Y021029D01*
X006117Y021029D01*
X006117Y021309D02*
X006117Y020469D01*
X007038Y020609D02*
X007178Y020469D01*
X007458Y020469D01*
X007599Y020609D01*
X007599Y020889D01*
X007458Y021029D01*
X007178Y021029D01*
X007038Y020889D01*
X007038Y020609D01*
X007959Y021029D02*
X008239Y021029D01*
X008099Y021169D02*
X008099Y020609D01*
X008239Y020469D01*
X008573Y020469D02*
X008993Y020469D01*
X009133Y020609D01*
X008993Y020749D01*
X008713Y020749D01*
X008573Y020889D01*
X008713Y021029D01*
X009133Y021029D01*
X009493Y020609D02*
X009493Y020469D01*
X009634Y020469D01*
X009634Y020609D01*
X009493Y020609D01*
X009954Y020609D02*
X010094Y020469D01*
X010514Y020469D01*
X010874Y020609D02*
X011015Y020469D01*
X011295Y020469D01*
X011435Y020609D01*
X011435Y020889D01*
X011295Y021029D01*
X011015Y021029D01*
X010874Y020889D01*
X010874Y020609D01*
X010514Y021029D02*
X010094Y021029D01*
X009954Y020889D01*
X009954Y020609D01*
X011795Y020469D02*
X011795Y021029D01*
X011935Y021029D01*
X012075Y020889D01*
X012216Y021029D01*
X012356Y020889D01*
X012356Y020469D01*
X012075Y020469D02*
X012075Y020889D01*
X012154Y016501D02*
X012154Y016477D01*
X012154Y016501D01*
X010966Y014689D02*
X010942Y014689D01*
X010966Y014689D01*
X010654Y016177D02*
X010654Y016201D01*
X010654Y016177D01*
X010842Y012389D02*
X010866Y012389D01*
X010842Y012389D01*
X011629Y011483D02*
X011554Y011346D01*
X011499Y011199D01*
X011466Y011045D01*
X011454Y010889D01*
X011466Y010732D01*
X011499Y010579D01*
X011554Y010432D01*
X011629Y010294D01*
X011723Y010168D01*
X011834Y010057D01*
X011960Y009963D01*
X012097Y009888D01*
X012244Y009833D01*
X012398Y009800D01*
X012554Y009789D01*
X012711Y009800D01*
X012864Y009833D01*
X013011Y009888D01*
X013149Y009963D01*
X013275Y010057D01*
X013386Y010168D01*
X013480Y010294D01*
X013555Y010432D01*
X013610Y010579D01*
X013643Y010732D01*
X013654Y010889D01*
X013643Y011045D01*
X013610Y011199D01*
X013555Y011346D01*
X013480Y011483D01*
X013386Y011609D01*
X013275Y011720D01*
X013149Y011814D01*
X013011Y011889D01*
X012864Y011944D01*
X012711Y011977D01*
X012554Y011989D01*
X012398Y011977D01*
X012244Y011944D01*
X012097Y011889D01*
X011960Y011814D01*
X011834Y011720D01*
X011723Y011609D01*
X011629Y011483D01*
X011555Y011349D02*
X013553Y011349D01*
X013644Y011029D02*
X011464Y011029D01*
X011471Y010709D02*
X013638Y010709D01*
X013531Y010389D02*
X011577Y010389D01*
X011754Y010137D02*
X011754Y011640D01*
X011783Y011669D02*
X013326Y011669D01*
X013354Y011640D02*
X013354Y010137D01*
X013286Y010069D02*
X011823Y010069D01*
X012074Y009901D02*
X012074Y011877D01*
X012394Y011977D02*
X012394Y009801D01*
X012714Y009801D02*
X012714Y011977D01*
X013034Y011877D02*
X013034Y009901D01*
X009066Y009089D02*
X009042Y009089D01*
X008654Y007901D02*
X008654Y007877D01*
X008654Y007901D01*
X006254Y011977D02*
X006254Y012001D01*
X006254Y011977D01*
X005466Y010389D02*
X005442Y010389D01*
X005466Y010389D01*
X008942Y013689D02*
X008966Y013689D01*
X008942Y013689D01*
X012398Y032300D02*
X012244Y032333D01*
X012097Y032388D01*
X011960Y032463D01*
X011834Y032557D01*
X011723Y032668D01*
X011629Y032794D01*
X011554Y032932D01*
X011499Y033079D01*
X011466Y033232D01*
X011454Y033389D01*
X011466Y033545D01*
X011499Y033699D01*
X011554Y033846D01*
X011629Y033983D01*
X011723Y034109D01*
X011834Y034220D01*
X011960Y034314D01*
X012097Y034389D01*
X012244Y034444D01*
X012398Y034477D01*
X012554Y034489D01*
X012711Y034477D01*
X012864Y034444D01*
X013011Y034389D01*
X013149Y034314D01*
X013275Y034220D01*
X013386Y034109D01*
X013480Y033983D01*
X013555Y033846D01*
X013610Y033699D01*
X013643Y033545D01*
X013654Y033389D01*
X013643Y033232D01*
X013610Y033079D01*
X013555Y032932D01*
X013480Y032794D01*
X013386Y032668D01*
X013275Y032557D01*
X013149Y032463D01*
X013011Y032388D01*
X012864Y032333D01*
X012711Y032300D01*
X012554Y032289D01*
X012398Y032300D01*
X012394Y032301D02*
X012394Y034477D01*
X012096Y034389D02*
X013012Y034389D01*
X013034Y034377D02*
X013034Y032401D01*
X013156Y032469D02*
X011952Y032469D01*
X012074Y032401D02*
X012074Y034377D01*
X011754Y034140D02*
X011754Y032637D01*
X011633Y032789D02*
X013476Y032789D01*
X013354Y032637D02*
X013354Y034140D01*
X013416Y034069D02*
X011693Y034069D01*
X011518Y033749D02*
X013591Y033749D01*
X013651Y033429D02*
X011457Y033429D01*
X011492Y033109D02*
X013616Y033109D01*
X012714Y032301D02*
X012714Y034477D01*
X002643Y033545D02*
X002654Y033389D01*
X002643Y033232D01*
X002610Y033079D01*
X002555Y032932D01*
X002480Y032794D01*
X002386Y032668D01*
X002275Y032557D01*
X002149Y032463D01*
X002011Y032388D01*
X001864Y032333D01*
X001711Y032300D01*
X001554Y032289D01*
X001398Y032300D01*
X001244Y032333D01*
X001097Y032388D01*
X000960Y032463D01*
X000834Y032557D01*
X000723Y032668D01*
X000629Y032794D01*
X000554Y032932D01*
X000499Y033079D01*
X000466Y033232D01*
X000454Y033389D01*
X000466Y033545D01*
X000499Y033699D01*
X000554Y033846D01*
X000629Y033983D01*
X000723Y034109D01*
X000834Y034220D01*
X000960Y034314D01*
X001097Y034389D01*
X001244Y034444D01*
X001398Y034477D01*
X001554Y034489D01*
X001711Y034477D01*
X001864Y034444D01*
X002011Y034389D01*
X002149Y034314D01*
X002275Y034220D01*
X002386Y034109D01*
X002480Y033983D01*
X002555Y033846D01*
X002610Y033699D01*
X002643Y033545D01*
X002651Y033429D02*
X000457Y033429D01*
X000492Y033109D02*
X002616Y033109D01*
X002476Y032789D02*
X000633Y032789D01*
X000554Y032931D02*
X000554Y033847D01*
X000518Y033749D02*
X002591Y033749D01*
X002474Y033991D02*
X002474Y032787D01*
X002156Y032469D02*
X000952Y032469D01*
X000874Y032527D02*
X000874Y034250D01*
X001096Y034389D02*
X002012Y034389D01*
X002154Y034310D02*
X002154Y032467D01*
X001834Y032327D02*
X001834Y034451D01*
X001514Y034486D02*
X001514Y032291D01*
X001194Y032352D02*
X001194Y034425D01*
X000693Y034069D02*
X002416Y034069D01*
D11*
X007371Y020114D02*
X007229Y019973D01*
X007229Y019405D01*
X007371Y019264D01*
X007655Y019264D01*
X007796Y019405D01*
X008150Y019405D02*
X008292Y019264D01*
X008575Y019264D01*
X008717Y019405D01*
X008717Y019689D01*
X008575Y019831D01*
X008292Y019831D01*
X008150Y019689D01*
X008150Y019405D01*
X007796Y019973D02*
X007655Y020114D01*
X007371Y020114D01*
X009071Y019831D02*
X009071Y019264D01*
X009071Y019831D02*
X009496Y019831D01*
X009638Y019689D01*
X009638Y019264D01*
X009992Y019264D02*
X009992Y019831D01*
X010417Y019831D01*
X010559Y019689D01*
X010559Y019264D01*
X010912Y019405D02*
X010912Y019689D01*
X011054Y019831D01*
X011338Y019831D01*
X011479Y019689D01*
X011479Y019547D01*
X010912Y019547D01*
X010912Y019405D02*
X011054Y019264D01*
X011338Y019264D01*
X011833Y019405D02*
X011975Y019264D01*
X012400Y019264D01*
X012400Y019831D02*
X011975Y019831D01*
X011833Y019689D01*
X011833Y019405D01*
X012754Y019831D02*
X013037Y019831D01*
X012896Y019973D02*
X012896Y019405D01*
X013037Y019264D01*
D12*
X008518Y017963D02*
X008520Y017983D01*
X008525Y018003D01*
X008535Y018021D01*
X008547Y018038D01*
X008562Y018052D01*
X008580Y018062D01*
X008599Y018070D01*
X008619Y018074D01*
X008639Y018074D01*
X008659Y018070D01*
X008678Y018062D01*
X008696Y018052D01*
X008711Y018038D01*
X008723Y018021D01*
X008733Y018003D01*
X008738Y017983D01*
X008740Y017963D01*
X008738Y017943D01*
X008733Y017923D01*
X008723Y017905D01*
X008711Y017888D01*
X008696Y017874D01*
X008678Y017864D01*
X008659Y017856D01*
X008639Y017852D01*
X008619Y017852D01*
X008599Y017856D01*
X008580Y017864D01*
X008562Y017874D01*
X008547Y017888D01*
X008535Y017905D01*
X008525Y017923D01*
X008520Y017943D01*
X008518Y017963D01*
X008520Y017983D01*
X008525Y018003D01*
X008535Y018021D01*
X008547Y018038D01*
X008562Y018052D01*
X008580Y018062D01*
X008599Y018070D01*
X008619Y018074D01*
X008639Y018074D01*
X008659Y018070D01*
X008678Y018062D01*
X008696Y018052D01*
X008711Y018038D01*
X008723Y018021D01*
X008733Y018003D01*
X008738Y017983D01*
X008740Y017963D01*
X008738Y017943D01*
X008733Y017923D01*
X008723Y017905D01*
X008711Y017888D01*
X008696Y017874D01*
X008678Y017864D01*
X008659Y017856D01*
X008639Y017852D01*
X008619Y017852D01*
X008599Y017856D01*
X008580Y017864D01*
X008562Y017874D01*
X008547Y017888D01*
X008535Y017905D01*
X008525Y017923D01*
X008520Y017943D01*
X008518Y017963D01*
X008101Y031439D02*
X007914Y031625D01*
X007727Y031439D01*
X007727Y031999D01*
X007493Y031999D02*
X007493Y031439D01*
X007493Y031719D02*
X007120Y031719D01*
X007120Y031439D02*
X007120Y031999D01*
X006886Y031906D02*
X006792Y031999D01*
X006605Y031999D01*
X006512Y031906D01*
X006512Y031812D01*
X006605Y031719D01*
X006792Y031719D01*
X006886Y031625D01*
X006886Y031532D01*
X006792Y031439D01*
X006605Y031439D01*
X006512Y031532D01*
X006278Y031532D02*
X006278Y031906D01*
X006185Y031999D01*
X005998Y031999D01*
X005904Y031906D01*
X005904Y031532D01*
X005998Y031439D01*
X006185Y031439D01*
X006278Y031532D01*
X008101Y031439D02*
X008101Y031999D01*
X001854Y022289D02*
X001854Y021889D01*
X001754Y012189D02*
X001354Y012189D01*
D13*
X001339Y017834D02*
X001339Y017990D01*
X001339Y017912D02*
X001809Y017912D01*
X001809Y017834D02*
X001809Y017990D01*
X001731Y018177D02*
X001809Y018256D01*
X001809Y018413D01*
X001731Y018491D01*
X001731Y018693D02*
X001809Y018771D01*
X001809Y018928D01*
X001731Y019007D01*
X001653Y019007D01*
X001574Y018928D01*
X001574Y018771D01*
X001496Y018693D01*
X001417Y018693D01*
X001339Y018771D01*
X001339Y018928D01*
X001417Y019007D01*
X001339Y019209D02*
X001339Y019444D01*
X001417Y019522D01*
X001574Y019522D01*
X001653Y019444D01*
X001653Y019209D01*
X001809Y019209D02*
X001339Y019209D01*
X001417Y018491D02*
X001339Y018413D01*
X001339Y018256D01*
X001417Y018177D01*
X001731Y018177D01*
X001509Y023934D02*
X001039Y023934D01*
X001039Y024169D01*
X001117Y024247D01*
X001196Y024247D01*
X001274Y024169D01*
X001274Y023934D01*
X001274Y024169D02*
X001353Y024247D01*
X001431Y024247D01*
X001509Y024169D01*
X001509Y023934D01*
X001431Y024449D02*
X001196Y024449D01*
X001196Y024763D02*
X001588Y024763D01*
X001666Y024684D01*
X001666Y024606D01*
X001509Y024528D02*
X001509Y024763D01*
X001509Y024528D02*
X001431Y024449D01*
X001509Y025481D02*
X001039Y025481D01*
X001039Y025716D01*
X001117Y025794D01*
X001274Y025794D01*
X001353Y025716D01*
X001353Y025481D01*
X001353Y025637D02*
X001509Y025794D01*
X001431Y025996D02*
X001274Y025996D01*
X001196Y026075D01*
X001196Y026231D01*
X001274Y026310D01*
X001431Y026310D01*
X001509Y026231D01*
X001509Y026075D01*
X001431Y025996D01*
X001509Y026512D02*
X001509Y026747D01*
X001431Y026825D01*
X001274Y026825D01*
X001196Y026747D01*
X001196Y026512D01*
X001039Y026512D02*
X001509Y026512D01*
X001431Y027027D02*
X001274Y027027D01*
X001196Y027106D01*
X001196Y027263D01*
X001274Y027341D01*
X001431Y027341D01*
X001509Y027263D01*
X001509Y027106D01*
X001431Y027027D01*
X001196Y027543D02*
X001196Y027700D01*
X001117Y027621D02*
X001431Y027621D01*
X001509Y027700D01*
X001431Y027887D02*
X001509Y027965D01*
X001509Y028122D01*
X001431Y028200D01*
X001353Y028200D01*
X001274Y028122D01*
X001274Y027965D01*
X001196Y027887D01*
X001117Y027887D01*
X001039Y027965D01*
X001039Y028122D01*
X001117Y028200D01*
X001039Y028402D02*
X001509Y028402D01*
X001274Y028402D02*
X001196Y028481D01*
X001196Y028638D01*
X001274Y028716D01*
X001509Y028716D01*
X001431Y028918D02*
X001509Y028996D01*
X001509Y029153D01*
X001431Y029232D01*
X001274Y029232D01*
X001196Y029153D01*
X001196Y028996D01*
X001274Y028918D01*
X001431Y028918D01*
X001509Y029434D02*
X001509Y029669D01*
X001431Y029747D01*
X001274Y029747D01*
X001196Y029669D01*
X001196Y029434D01*
X001666Y029434D01*
X001509Y029949D02*
X001509Y030028D01*
X001431Y030028D01*
X001431Y029949D01*
X001509Y029949D01*
X001431Y030207D02*
X001274Y030207D01*
X001196Y030286D01*
X001196Y030521D01*
X001274Y030723D02*
X001196Y030801D01*
X001196Y030958D01*
X001274Y031036D01*
X001431Y031036D01*
X001509Y030958D01*
X001509Y030801D01*
X001431Y030723D01*
X001274Y030723D01*
X001509Y030521D02*
X001509Y030286D01*
X001431Y030207D01*
X001509Y031238D02*
X001196Y031238D01*
X001196Y031317D01*
X001274Y031395D01*
X001196Y031474D01*
X001274Y031552D01*
X001509Y031552D01*
X001509Y031395D02*
X001274Y031395D01*
X004799Y013804D02*
X004956Y013804D01*
X004878Y013804D02*
X004878Y013334D01*
X004956Y013334D02*
X004799Y013334D01*
X005143Y013334D02*
X005457Y013647D01*
X005457Y013726D01*
X005378Y013804D01*
X005221Y013804D01*
X005143Y013726D01*
X005143Y013334D02*
X005457Y013334D01*
X005659Y013412D02*
X005737Y013334D01*
X005894Y013334D01*
X005972Y013412D01*
X005972Y013726D02*
X005894Y013804D01*
X005737Y013804D01*
X005659Y013726D01*
X005659Y013412D01*
X012317Y021734D02*
X012239Y021812D01*
X012239Y021969D01*
X012317Y022047D01*
X012474Y022047D02*
X012474Y021890D01*
X012474Y022047D02*
X012631Y022047D01*
X012709Y021969D01*
X012709Y021812D01*
X012631Y021734D01*
X012317Y021734D01*
X012239Y022249D02*
X012239Y022484D01*
X012317Y022563D01*
X012474Y022563D01*
X012553Y022484D01*
X012553Y022249D01*
X012709Y022249D02*
X012239Y022249D01*
X012239Y022765D02*
X012239Y022922D01*
X012239Y022843D02*
X012709Y022843D01*
X012709Y022765D02*
X012709Y022922D01*
X012631Y023109D02*
X012709Y023187D01*
X012709Y023344D01*
X012631Y023422D01*
X012317Y023422D01*
X012239Y023344D01*
X012239Y023187D01*
X012317Y023109D01*
X012631Y023109D01*
D14*
X010754Y026435D02*
X010900Y026582D01*
X010900Y026619D01*
X010754Y026619D01*
X010679Y026582D02*
X010679Y026435D01*
X010643Y026399D01*
X010569Y026399D01*
X010533Y026435D01*
X010533Y026582D01*
X010569Y026619D01*
X010643Y026619D01*
X010679Y026582D01*
X010754Y026435D02*
X010754Y026399D01*
X010459Y026399D02*
X010385Y026399D01*
X010422Y026399D02*
X010422Y026619D01*
X010385Y026619D02*
X010459Y026619D01*
X010311Y026582D02*
X010311Y026435D01*
X010274Y026399D01*
X010164Y026399D01*
X010164Y026619D01*
X010274Y026619D01*
X010311Y026582D01*
X010274Y027399D02*
X010164Y027399D01*
X010164Y027619D01*
X010274Y027619D01*
X010311Y027582D01*
X010311Y027435D01*
X010274Y027399D01*
X010385Y027399D02*
X010459Y027399D01*
X010422Y027399D02*
X010422Y027619D01*
X010385Y027619D02*
X010459Y027619D01*
X010533Y027582D02*
X010533Y027435D01*
X010569Y027399D01*
X010643Y027399D01*
X010679Y027435D01*
X010679Y027582D01*
X010643Y027619D01*
X010569Y027619D01*
X010533Y027582D01*
X010754Y027509D02*
X010864Y027509D01*
X010900Y027472D01*
X010900Y027435D01*
X010864Y027399D01*
X010790Y027399D01*
X010754Y027435D01*
X010754Y027509D01*
X010827Y027582D01*
X010900Y027619D01*
X010864Y028399D02*
X010790Y028399D01*
X010754Y028435D01*
X010754Y028509D02*
X010827Y028545D01*
X010864Y028545D01*
X010900Y028509D01*
X010900Y028435D01*
X010864Y028399D01*
X010754Y028509D02*
X010754Y028619D01*
X010900Y028619D01*
X010679Y028582D02*
X010643Y028619D01*
X010569Y028619D01*
X010533Y028582D01*
X010533Y028435D01*
X010569Y028399D01*
X010643Y028399D01*
X010679Y028435D01*
X010679Y028582D01*
X010459Y028619D02*
X010385Y028619D01*
X010422Y028619D02*
X010422Y028399D01*
X010385Y028399D02*
X010459Y028399D01*
X010311Y028435D02*
X010311Y028582D01*
X010274Y028619D01*
X010164Y028619D01*
X010164Y028399D01*
X010274Y028399D01*
X010311Y028435D01*
X010274Y029399D02*
X010164Y029399D01*
X010164Y029619D01*
X010274Y029619D01*
X010311Y029582D01*
X010311Y029435D01*
X010274Y029399D01*
X010385Y029399D02*
X010459Y029399D01*
X010422Y029399D02*
X010422Y029619D01*
X010385Y029619D02*
X010459Y029619D01*
X010533Y029582D02*
X010533Y029435D01*
X010569Y029399D01*
X010643Y029399D01*
X010679Y029435D01*
X010679Y029582D01*
X010643Y029619D01*
X010569Y029619D01*
X010533Y029582D01*
X010754Y029509D02*
X010900Y029509D01*
X010864Y029619D02*
X010754Y029509D01*
X010864Y029399D02*
X010864Y029619D01*
X010864Y030399D02*
X010790Y030399D01*
X010754Y030435D01*
X010679Y030435D02*
X010679Y030582D01*
X010643Y030619D01*
X010569Y030619D01*
X010533Y030582D01*
X010533Y030435D01*
X010569Y030399D01*
X010643Y030399D01*
X010679Y030435D01*
X010754Y030582D02*
X010790Y030619D01*
X010864Y030619D01*
X010900Y030582D01*
X010900Y030545D01*
X010864Y030509D01*
X010900Y030472D01*
X010900Y030435D01*
X010864Y030399D01*
X010864Y030509D02*
X010827Y030509D01*
X010459Y030619D02*
X010385Y030619D01*
X010422Y030619D02*
X010422Y030399D01*
X010385Y030399D02*
X010459Y030399D01*
X010311Y030435D02*
X010311Y030582D01*
X010274Y030619D01*
X010164Y030619D01*
X010164Y030399D01*
X010274Y030399D01*
X010311Y030435D01*
X010274Y031399D02*
X010164Y031399D01*
X010164Y031619D01*
X010274Y031619D01*
X010311Y031582D01*
X010311Y031435D01*
X010274Y031399D01*
X010385Y031399D02*
X010459Y031399D01*
X010422Y031399D02*
X010422Y031619D01*
X010385Y031619D02*
X010459Y031619D01*
X010533Y031582D02*
X010533Y031435D01*
X010569Y031399D01*
X010643Y031399D01*
X010679Y031435D01*
X010679Y031582D01*
X010643Y031619D01*
X010569Y031619D01*
X010533Y031582D01*
X010754Y031582D02*
X010790Y031619D01*
X010864Y031619D01*
X010900Y031582D01*
X010900Y031545D01*
X010754Y031399D01*
X010900Y031399D01*
X010900Y032399D02*
X010754Y032399D01*
X010827Y032399D02*
X010827Y032619D01*
X010754Y032545D01*
X010679Y032582D02*
X010679Y032435D01*
X010643Y032399D01*
X010569Y032399D01*
X010533Y032435D01*
X010533Y032582D01*
X010569Y032619D01*
X010643Y032619D01*
X010679Y032582D01*
X010459Y032619D02*
X010385Y032619D01*
X010422Y032619D02*
X010422Y032399D01*
X010385Y032399D02*
X010459Y032399D01*
X010311Y032435D02*
X010311Y032582D01*
X010274Y032619D01*
X010164Y032619D01*
X010164Y032399D01*
X010274Y032399D01*
X010311Y032435D01*
X010274Y033399D02*
X010164Y033399D01*
X010164Y033619D01*
X010274Y033619D01*
X010311Y033582D01*
X010311Y033435D01*
X010274Y033399D01*
X010385Y033399D02*
X010459Y033399D01*
X010422Y033399D02*
X010422Y033619D01*
X010385Y033619D02*
X010459Y033619D01*
X010533Y033582D02*
X010533Y033435D01*
X010569Y033399D01*
X010643Y033399D01*
X010679Y033435D01*
X010679Y033582D01*
X010643Y033619D01*
X010569Y033619D01*
X010533Y033582D01*
X010754Y033582D02*
X010754Y033435D01*
X010900Y033582D01*
X010900Y033435D01*
X010864Y033399D01*
X010790Y033399D01*
X010754Y033435D01*
X010754Y033582D02*
X010790Y033619D01*
X010864Y033619D01*
X010900Y033582D01*
X010643Y025619D02*
X010569Y025619D01*
X010533Y025582D01*
X010533Y025545D01*
X010569Y025509D01*
X010643Y025509D01*
X010679Y025472D01*
X010679Y025435D01*
X010643Y025399D01*
X010569Y025399D01*
X010533Y025435D01*
X010533Y025472D01*
X010569Y025509D01*
X010643Y025509D02*
X010679Y025545D01*
X010679Y025582D01*
X010643Y025619D01*
X010459Y025619D02*
X010385Y025619D01*
X010422Y025619D02*
X010422Y025399D01*
X010385Y025399D02*
X010459Y025399D01*
X010311Y025435D02*
X010311Y025582D01*
X010274Y025619D01*
X010164Y025619D01*
X010164Y025399D01*
X010274Y025399D01*
X010311Y025435D01*
X010274Y024619D02*
X010164Y024619D01*
X010164Y024399D01*
X010274Y024399D01*
X010311Y024435D01*
X010311Y024582D01*
X010274Y024619D01*
X010385Y024582D02*
X010385Y024435D01*
X010422Y024399D01*
X010495Y024399D01*
X010532Y024435D01*
X010532Y024582D01*
X010495Y024619D01*
X010422Y024619D01*
X010385Y024582D01*
X010606Y024582D02*
X010606Y024545D01*
X010643Y024509D01*
X010716Y024509D01*
X010753Y024472D01*
X010753Y024435D01*
X010716Y024399D01*
X010643Y024399D01*
X010606Y024435D01*
X010606Y024472D01*
X010643Y024509D01*
X010716Y024509D02*
X010753Y024545D01*
X010753Y024582D01*
X010716Y024619D01*
X010643Y024619D01*
X010606Y024582D01*
X003979Y024619D02*
X003979Y024399D01*
X003833Y024619D01*
X003833Y024399D01*
X003759Y024399D02*
X003685Y024399D01*
X003722Y024399D02*
X003722Y024619D01*
X003685Y024619D02*
X003759Y024619D01*
X003611Y024582D02*
X003574Y024619D01*
X003464Y024619D01*
X003464Y024399D01*
X003574Y024399D01*
X003611Y024435D01*
X003611Y024582D01*
X003643Y025399D02*
X003716Y025399D01*
X003753Y025435D01*
X003753Y025619D01*
X003827Y025619D02*
X003974Y025619D01*
X003901Y025619D02*
X003901Y025399D01*
X003643Y025399D02*
X003606Y025435D01*
X003606Y025619D01*
X003532Y025582D02*
X003532Y025435D01*
X003495Y025399D01*
X003422Y025399D01*
X003385Y025435D01*
X003385Y025582D01*
X003422Y025619D01*
X003495Y025619D01*
X003532Y025582D01*
X003311Y025582D02*
X003311Y025435D01*
X003274Y025399D01*
X003164Y025399D01*
X003164Y025619D01*
X003274Y025619D01*
X003311Y025582D01*
X003564Y026399D02*
X003564Y026619D01*
X003638Y026545D01*
X003711Y026619D01*
X003711Y026399D01*
X003785Y026435D02*
X003932Y026582D01*
X003932Y026435D01*
X003895Y026399D01*
X003822Y026399D01*
X003785Y026435D01*
X003785Y026582D01*
X003822Y026619D01*
X003895Y026619D01*
X003932Y026582D01*
X003932Y027399D02*
X003932Y027619D01*
X003785Y027619D02*
X003785Y027399D01*
X003711Y027435D02*
X003711Y027582D01*
X003674Y027619D01*
X003601Y027619D01*
X003564Y027582D01*
X003564Y027435D01*
X003601Y027399D01*
X003674Y027399D01*
X003711Y027435D01*
X003785Y027619D02*
X003932Y027399D01*
X003880Y028399D02*
X003880Y028619D01*
X003953Y028619D02*
X003806Y028619D01*
X003732Y028582D02*
X003695Y028619D01*
X003622Y028619D01*
X003585Y028582D01*
X003585Y028545D01*
X003622Y028509D01*
X003695Y028509D01*
X003732Y028472D01*
X003732Y028435D01*
X003695Y028399D01*
X003622Y028399D01*
X003585Y028435D01*
X003511Y028399D02*
X003438Y028472D01*
X003474Y028472D02*
X003364Y028472D01*
X003364Y028399D02*
X003364Y028619D01*
X003474Y028619D01*
X003511Y028582D01*
X003511Y028509D01*
X003474Y028472D01*
X003532Y029399D02*
X003459Y029472D01*
X003495Y029472D02*
X003385Y029472D01*
X003385Y029399D02*
X003385Y029619D01*
X003495Y029619D01*
X003532Y029582D01*
X003532Y029509D01*
X003495Y029472D01*
X003606Y029509D02*
X003680Y029509D01*
X003753Y029619D02*
X003606Y029619D01*
X003606Y029399D01*
X003753Y029399D01*
X003827Y029399D02*
X003827Y029619D01*
X003974Y029619D01*
X003901Y029509D02*
X003827Y029509D01*
X003816Y030399D02*
X003706Y030399D01*
X003706Y030619D01*
X003816Y030619D01*
X003853Y030582D01*
X003853Y030435D01*
X003816Y030399D01*
X003632Y030399D02*
X003632Y030619D01*
X003485Y030619D02*
X003632Y030399D01*
X003485Y030399D02*
X003485Y030619D01*
X003411Y030582D02*
X003374Y030619D01*
X003301Y030619D01*
X003264Y030582D01*
X003264Y030435D01*
X003301Y030399D01*
X003374Y030399D01*
X003411Y030435D01*
X003411Y030509D01*
X003338Y030509D01*
X003374Y031399D02*
X003411Y031435D01*
X003411Y031509D01*
X003338Y031509D01*
X003411Y031582D02*
X003374Y031619D01*
X003301Y031619D01*
X003264Y031582D01*
X003264Y031435D01*
X003301Y031399D01*
X003374Y031399D01*
X003485Y031399D02*
X003485Y031619D01*
X003632Y031399D01*
X003632Y031619D01*
X003706Y031619D02*
X003706Y031399D01*
X003816Y031399D01*
X003853Y031435D01*
X003853Y031582D01*
X003816Y031619D01*
X003706Y031619D01*
X003732Y032399D02*
X003696Y032435D01*
X003732Y032399D02*
X003806Y032399D01*
X003843Y032435D01*
X003843Y032472D01*
X003806Y032509D01*
X003769Y032509D01*
X003806Y032509D02*
X003843Y032545D01*
X003843Y032582D01*
X003806Y032619D01*
X003732Y032619D01*
X003696Y032582D01*
X003622Y032435D02*
X003622Y032399D01*
X003585Y032399D01*
X003585Y032435D01*
X003622Y032435D01*
X003511Y032435D02*
X003511Y032472D01*
X003474Y032509D01*
X003438Y032509D01*
X003474Y032509D02*
X003511Y032545D01*
X003511Y032582D01*
X003474Y032619D01*
X003401Y032619D01*
X003364Y032582D01*
X003364Y032435D02*
X003401Y032399D01*
X003474Y032399D01*
X003511Y032435D01*
X003917Y032472D02*
X003990Y032399D01*
X004064Y032472D01*
X004064Y032619D01*
X003917Y032619D02*
X003917Y032472D01*
X003790Y033399D02*
X003864Y033472D01*
X003864Y033619D01*
X003717Y033619D02*
X003717Y033472D01*
X003790Y033399D01*
X003643Y033435D02*
X003606Y033399D01*
X003532Y033399D01*
X003496Y033435D01*
X003422Y033435D02*
X003422Y033399D01*
X003385Y033399D01*
X003385Y033435D01*
X003422Y033435D01*
X003311Y033435D02*
X003274Y033399D01*
X003201Y033399D01*
X003164Y033435D01*
X003238Y033509D02*
X003274Y033509D01*
X003311Y033472D01*
X003311Y033435D01*
X003274Y033509D02*
X003311Y033545D01*
X003311Y033582D01*
X003274Y033619D01*
X003201Y033619D01*
X003164Y033582D01*
X003496Y033582D02*
X003532Y033619D01*
X003606Y033619D01*
X003643Y033582D01*
X003643Y033545D01*
X003606Y033509D01*
X003643Y033472D01*
X003643Y033435D01*
X003606Y033509D02*
X003569Y033509D01*
X003311Y029619D02*
X003311Y029472D01*
X003238Y029399D01*
X003164Y029472D01*
X003164Y029619D01*
D15*
X004054Y029639D02*
X004054Y029139D01*
X004304Y028889D01*
X004054Y028639D01*
X004054Y028139D01*
X004304Y027889D01*
X004054Y027639D01*
X004054Y027139D01*
X004304Y026889D01*
X004054Y026639D01*
X004054Y026139D01*
X004304Y025889D01*
X004054Y025639D01*
X004054Y025139D01*
X004304Y024889D01*
X004054Y024639D01*
X004054Y024139D01*
X004304Y023889D01*
X004804Y023889D01*
X005054Y024139D01*
X005054Y024639D01*
X004804Y024889D01*
X005054Y025139D01*
X005054Y025639D01*
X004804Y025889D01*
X005054Y026139D01*
X005054Y026639D01*
X004804Y026889D01*
X005054Y027139D01*
X005054Y027639D01*
X004804Y027889D01*
X005054Y028139D01*
X005054Y028639D01*
X004804Y028889D01*
X005054Y029139D01*
X005054Y029639D01*
X004804Y029889D01*
X005054Y030139D01*
X005054Y030639D01*
X004804Y030889D01*
X005054Y031139D01*
X005054Y031639D01*
X004804Y031889D01*
X005054Y032139D01*
X005054Y032639D01*
X004804Y032889D01*
X005054Y033139D01*
X005054Y033639D01*
X004804Y033889D01*
X004304Y033889D01*
X004054Y033639D01*
X004054Y033139D01*
X004304Y032889D01*
X004054Y032639D01*
X004054Y032139D01*
X004304Y031889D01*
X004054Y031639D01*
X004054Y031139D01*
X004304Y030889D01*
X004054Y030639D01*
X004054Y030139D01*
X004304Y029889D01*
X004054Y029639D01*
X004304Y029889D01*
X004054Y030139D01*
X004054Y030639D01*
X004304Y030889D01*
X004054Y031139D01*
X004054Y031639D01*
X004304Y031889D01*
X004054Y032139D01*
X004054Y032639D01*
X004304Y032889D01*
X004054Y033139D01*
X004054Y033639D01*
X004304Y033889D01*
X004804Y033889D01*
X005054Y033639D01*
X005054Y033139D01*
X004804Y032889D01*
X005054Y032639D01*
X005054Y032139D01*
X004804Y031889D01*
X005054Y031639D01*
X005054Y031139D01*
X004804Y030889D01*
X005054Y030639D01*
X005054Y030139D01*
X004804Y029889D01*
X005054Y029639D01*
X005054Y029139D01*
X004804Y028889D01*
X005054Y028639D01*
X005054Y028139D01*
X004804Y027889D01*
X005054Y027639D01*
X005054Y027139D01*
X004804Y026889D01*
X005054Y026639D01*
X005054Y026139D01*
X004804Y025889D01*
X005054Y025639D01*
X005054Y025139D01*
X004804Y024889D01*
X005054Y024639D01*
X005054Y024139D01*
X004804Y023889D01*
X004304Y023889D01*
X004054Y024139D01*
X004054Y024639D01*
X004304Y024889D01*
X004054Y025139D01*
X004054Y025639D01*
X004304Y025889D01*
X004054Y026139D01*
X004054Y026639D01*
X004304Y026889D01*
X004054Y027139D01*
X004054Y027639D01*
X004304Y027889D01*
X004054Y028139D01*
X004054Y028639D01*
X004304Y028889D01*
X004054Y029139D01*
X004054Y029639D01*
X002324Y031836D02*
X002324Y023586D01*
X011774Y023586D01*
X011774Y031836D01*
X009274Y034336D01*
X004824Y034336D01*
X002324Y031836D01*
X004824Y034336D01*
X006254Y033149D02*
X006254Y032949D01*
X006474Y032909D01*
X006254Y032949D01*
X006304Y032989D02*
X006304Y033139D01*
X006504Y033139D01*
X006604Y033389D01*
X006454Y033589D01*
X006604Y033689D01*
X006754Y033539D01*
X006954Y033639D01*
X007004Y033839D01*
X007154Y033839D01*
X007204Y033639D01*
X007404Y033539D01*
X007604Y033689D01*
X007704Y033589D01*
X007604Y033389D01*
X007704Y033139D01*
X007904Y033139D01*
X007904Y032989D01*
X007654Y032939D01*
X007604Y032689D01*
X007704Y032539D01*
X007604Y032439D01*
X007454Y032539D01*
X007354Y032489D01*
X007254Y032789D01*
X007404Y032989D01*
X007354Y033239D01*
X007154Y033339D01*
X006954Y033339D01*
X006804Y033189D01*
X006804Y032889D01*
X006954Y032789D01*
X006804Y032539D01*
X006754Y032539D01*
X006604Y032439D01*
X006504Y032539D01*
X006604Y032689D01*
X006504Y032939D01*
X006304Y032989D01*
X006304Y033139D01*
X006504Y033139D01*
X006604Y033389D01*
X006454Y033589D01*
X006604Y033689D01*
X006754Y033539D01*
X006954Y033639D01*
X007004Y033839D01*
X007154Y033839D01*
X007204Y033639D01*
X007404Y033539D01*
X007604Y033689D01*
X007704Y033589D01*
X007604Y033389D01*
X007704Y033139D01*
X007904Y033139D01*
X007904Y032989D01*
X007654Y032939D01*
X007604Y032689D01*
X007704Y032539D01*
X007604Y032439D01*
X007454Y032539D01*
X007354Y032489D01*
X007254Y032789D01*
X007404Y032989D01*
X007354Y033239D01*
X007154Y033339D01*
X006954Y033339D01*
X006804Y033189D01*
X006804Y032889D01*
X006954Y032789D01*
X006804Y032539D01*
X006754Y032539D01*
X006604Y032439D01*
X006504Y032539D01*
X006604Y032689D01*
X006504Y032939D01*
X006304Y032989D01*
X006304Y033139D01*
X006504Y033139D01*
X006604Y033389D01*
X006454Y033589D01*
X006604Y033689D01*
X006754Y033539D01*
X006954Y033639D01*
X007004Y033839D01*
X007154Y033839D01*
X007204Y033639D01*
X007404Y033539D01*
X007604Y033689D01*
X007704Y033589D01*
X007604Y033389D01*
X007704Y033139D01*
X007904Y033139D01*
X007904Y032989D01*
X007654Y032939D01*
X007604Y032689D01*
X007704Y032539D01*
X007604Y032439D01*
X007454Y032539D01*
X007354Y032489D01*
X007254Y032789D01*
X007404Y032989D01*
X007354Y033239D01*
X007154Y033339D01*
X006954Y033339D01*
X006804Y033189D01*
X006804Y032889D01*
X006954Y032789D01*
X006804Y032539D01*
X006754Y032539D01*
X006604Y032439D01*
X006504Y032539D01*
X006604Y032689D01*
X006504Y032939D01*
X006304Y032989D01*
X006304Y033139D01*
X006504Y033139D01*
X006604Y033389D01*
X006454Y033589D01*
X006604Y033689D01*
X006754Y033539D01*
X006954Y033639D01*
X007004Y033839D01*
X007154Y033839D01*
X007204Y033639D01*
X007404Y033539D01*
X007604Y033689D01*
X007704Y033589D01*
X007604Y033389D01*
X007704Y033139D01*
X007904Y033139D01*
X007904Y032989D01*
X007654Y032939D01*
X007604Y032689D01*
X007704Y032539D01*
X007604Y032439D01*
X007454Y032539D01*
X007354Y032489D01*
X007254Y032789D01*
X007404Y032989D01*
X007354Y033239D01*
X007154Y033339D01*
X006954Y033339D01*
X006804Y033189D01*
X006804Y032889D01*
X006954Y032789D01*
X006804Y032539D01*
X006754Y032539D01*
X006604Y032439D01*
X006504Y032539D01*
X006604Y032689D01*
X006504Y032939D01*
X006304Y032989D01*
X006304Y033021D02*
X006804Y033021D01*
X006304Y033021D01*
X006804Y033021D01*
X006304Y033021D01*
X006304Y033099D02*
X006804Y033099D01*
X006304Y033099D01*
X006804Y033099D01*
X006304Y033099D01*
X006254Y033149D02*
X006484Y033189D01*
X006520Y033178D02*
X006804Y033178D01*
X006520Y033178D01*
X006804Y033178D01*
X006520Y033178D01*
X006551Y033256D02*
X006872Y033256D01*
X006551Y033256D01*
X006872Y033256D01*
X006551Y033256D01*
X006583Y033335D02*
X006950Y033335D01*
X006583Y033335D01*
X006950Y033335D01*
X006583Y033335D01*
X006564Y033379D02*
X006434Y033569D01*
X006574Y033709D01*
X006764Y033579D01*
X006574Y033709D01*
X006545Y033649D02*
X006644Y033649D01*
X006545Y033649D01*
X006644Y033649D01*
X006545Y033649D01*
X006468Y033570D02*
X006723Y033570D01*
X006468Y033570D01*
X006723Y033570D01*
X006468Y033570D01*
X006434Y033569D02*
X006564Y033379D01*
X006586Y033413D02*
X007617Y033413D01*
X006586Y033413D01*
X007617Y033413D01*
X006586Y033413D01*
X006527Y033492D02*
X007656Y033492D01*
X006527Y033492D01*
X007656Y033492D01*
X006527Y033492D01*
X006491Y032942D02*
X006804Y032942D01*
X006491Y032942D01*
X006804Y032942D01*
X006491Y032942D01*
X006534Y032863D02*
X006842Y032863D01*
X006534Y032863D01*
X006842Y032863D01*
X006534Y032863D01*
X006566Y032785D02*
X006952Y032785D01*
X006566Y032785D01*
X006952Y032785D01*
X006566Y032785D01*
X006554Y032709D02*
X006434Y032529D01*
X006574Y032389D01*
X006754Y032509D01*
X006824Y032469D01*
X006974Y032809D01*
X006824Y032469D01*
X006754Y032509D01*
X006574Y032389D01*
X006434Y032529D01*
X006554Y032709D01*
X006597Y032706D02*
X006905Y032706D01*
X006597Y032706D01*
X006905Y032706D01*
X006597Y032706D01*
X006564Y032628D02*
X006858Y032628D01*
X006564Y032628D01*
X006858Y032628D01*
X006564Y032628D01*
X006511Y032549D02*
X006811Y032549D01*
X006511Y032549D01*
X006811Y032549D01*
X006511Y032549D01*
X006572Y032471D02*
X006652Y032471D01*
X006572Y032471D01*
X006652Y032471D01*
X006572Y032471D01*
X006818Y033570D02*
X007341Y033570D01*
X006818Y033570D01*
X007341Y033570D01*
X006818Y033570D01*
X006944Y033649D02*
X006994Y033889D01*
X007184Y033889D01*
X007234Y033649D01*
X007184Y033889D01*
X006994Y033889D01*
X006944Y033649D01*
X006957Y033649D02*
X007202Y033649D01*
X006957Y033649D01*
X007202Y033649D01*
X006957Y033649D01*
X006976Y033727D02*
X007182Y033727D01*
X006976Y033727D01*
X007182Y033727D01*
X006976Y033727D01*
X006996Y033806D02*
X007162Y033806D01*
X006996Y033806D01*
X007162Y033806D01*
X006996Y033806D01*
X007162Y033335D02*
X007626Y033335D01*
X007162Y033335D01*
X007626Y033335D01*
X007162Y033335D01*
X007319Y033256D02*
X007657Y033256D01*
X007319Y033256D01*
X007657Y033256D01*
X007319Y033256D01*
X007367Y033178D02*
X007689Y033178D01*
X007367Y033178D01*
X007689Y033178D01*
X007367Y033178D01*
X007382Y033099D02*
X007904Y033099D01*
X007382Y033099D01*
X007904Y033099D01*
X007382Y033099D01*
X007398Y033021D02*
X007904Y033021D01*
X007398Y033021D01*
X007904Y033021D01*
X007398Y033021D01*
X007369Y032942D02*
X007671Y032942D01*
X007369Y032942D01*
X007671Y032942D01*
X007369Y032942D01*
X007310Y032863D02*
X007639Y032863D01*
X007310Y032863D01*
X007639Y032863D01*
X007310Y032863D01*
X007256Y032785D02*
X007624Y032785D01*
X007256Y032785D01*
X007624Y032785D01*
X007256Y032785D01*
X007214Y032809D02*
X007354Y032469D01*
X007434Y032509D01*
X007614Y032389D01*
X007434Y032509D01*
X007354Y032469D01*
X007214Y032809D01*
X007282Y032706D02*
X007608Y032706D01*
X007282Y032706D01*
X007608Y032706D01*
X007282Y032706D01*
X007308Y032628D02*
X007645Y032628D01*
X007308Y032628D01*
X007645Y032628D01*
X007308Y032628D01*
X007334Y032549D02*
X007697Y032549D01*
X007334Y032549D01*
X007697Y032549D01*
X007334Y032549D01*
X007706Y033190D02*
X007694Y033230D01*
X007679Y033268D01*
X007661Y033306D01*
X007641Y033342D01*
X007619Y033377D01*
X007614Y033379D02*
X007754Y033569D01*
X007614Y033709D01*
X007414Y033579D01*
X007614Y033709D01*
X007644Y033649D02*
X007551Y033649D01*
X007644Y033649D01*
X007551Y033649D01*
X007644Y033649D01*
X007695Y033570D02*
X007447Y033570D01*
X007695Y033570D01*
X007447Y033570D01*
X007695Y033570D01*
X007704Y033189D02*
X007924Y033149D01*
X007924Y032949D01*
X007704Y032909D01*
X007924Y032949D01*
X007924Y033149D01*
X007704Y033189D01*
X007624Y032709D02*
X007754Y032529D01*
X007614Y032389D01*
X007636Y032471D02*
X007556Y032471D01*
X007636Y032471D01*
X007556Y032471D01*
X007636Y032471D01*
X007754Y032529D02*
X007624Y032709D01*
X007706Y033189D02*
X007694Y033229D01*
X007679Y033268D01*
X007661Y033306D01*
X007641Y033342D01*
X007619Y033377D01*
X007214Y032809D02*
X007242Y032825D01*
X007269Y032844D01*
X007292Y032866D01*
X007313Y032891D01*
X007331Y032919D01*
X007346Y032948D01*
X007356Y032979D01*
X007364Y033010D01*
X007367Y033043D01*
X007366Y033075D01*
X007362Y033108D01*
X007353Y033139D01*
X007341Y033169D01*
X007326Y033198D01*
X007307Y033225D01*
X007285Y033249D01*
X007261Y033270D01*
X007234Y033289D01*
X007205Y033304D01*
X007174Y033315D01*
X007143Y033323D01*
X007110Y033327D01*
X007078Y033327D01*
X007045Y033323D01*
X007014Y033315D01*
X006983Y033304D01*
X006954Y033289D01*
X006927Y033270D01*
X006903Y033249D01*
X006881Y033225D01*
X006862Y033198D01*
X006847Y033169D01*
X006835Y033139D01*
X006826Y033108D01*
X006822Y033075D01*
X006821Y033043D01*
X006824Y033010D01*
X006832Y032979D01*
X006842Y032948D01*
X006857Y032919D01*
X006875Y032891D01*
X006896Y032866D01*
X006919Y032844D01*
X006946Y032825D01*
X006974Y032809D01*
X006767Y033575D02*
X006809Y033598D01*
X006852Y033617D01*
X006897Y033633D01*
X006943Y033646D01*
X006477Y032893D02*
X006492Y032846D01*
X006510Y032800D01*
X006532Y032756D01*
X006557Y032714D01*
X006556Y032713D02*
X006531Y032755D01*
X006509Y032799D01*
X006491Y032845D01*
X006476Y032892D01*
X006767Y033575D02*
X006809Y033598D01*
X006852Y033617D01*
X006897Y033634D01*
X006943Y033646D01*
X006974Y032809D02*
X006946Y032825D01*
X006919Y032844D01*
X006896Y032866D01*
X006875Y032891D01*
X006857Y032919D01*
X006842Y032948D01*
X006832Y032979D01*
X006824Y033010D01*
X006821Y033043D01*
X006822Y033075D01*
X006826Y033108D01*
X006835Y033139D01*
X006847Y033169D01*
X006862Y033198D01*
X006881Y033225D01*
X006903Y033249D01*
X006927Y033270D01*
X006954Y033289D01*
X006983Y033304D01*
X007014Y033315D01*
X007045Y033323D01*
X007078Y033327D01*
X007110Y033327D01*
X007143Y033323D01*
X007174Y033315D01*
X007205Y033304D01*
X007234Y033289D01*
X007261Y033270D01*
X007285Y033249D01*
X007307Y033225D01*
X007326Y033198D01*
X007341Y033169D01*
X007353Y033139D01*
X007362Y033108D01*
X007366Y033075D01*
X007367Y033043D01*
X007364Y033010D01*
X007356Y032979D01*
X007346Y032948D01*
X007331Y032919D01*
X007313Y032891D01*
X007292Y032866D01*
X007269Y032844D01*
X007242Y032825D01*
X007214Y032809D01*
X006483Y033191D02*
X006494Y033230D01*
X006508Y033269D01*
X006524Y033307D01*
X006543Y033343D01*
X006564Y033378D01*
X007703Y032910D02*
X007693Y032868D01*
X007680Y032827D01*
X007664Y032787D01*
X007645Y032748D01*
X007623Y032711D01*
X007414Y033579D02*
X007371Y033602D01*
X007327Y033622D01*
X007281Y033638D01*
X007235Y033650D01*
X007234Y033649D02*
X007281Y033637D01*
X007327Y033621D01*
X007371Y033601D01*
X007413Y033578D01*
X007704Y032910D02*
X007694Y032868D01*
X007681Y032827D01*
X007665Y032787D01*
X007646Y032748D01*
X007624Y032711D01*
X006482Y033191D02*
X006493Y033231D01*
X006507Y033270D01*
X006523Y033307D01*
X006542Y033344D01*
X006563Y033379D01*
X009054Y033139D02*
X009054Y033639D01*
X009304Y033889D01*
X009804Y033889D01*
X010054Y033639D01*
X010054Y033139D01*
X009804Y032889D01*
X010054Y032639D01*
X010054Y032139D01*
X009804Y031889D01*
X010054Y031639D01*
X010054Y031139D01*
X009804Y030889D01*
X010054Y030639D01*
X010054Y030139D01*
X009804Y029889D01*
X010054Y029639D01*
X010054Y029139D01*
X009804Y028889D01*
X010054Y028639D01*
X010054Y028139D01*
X009804Y027889D01*
X010054Y027639D01*
X010054Y027139D01*
X009804Y026889D01*
X010054Y026639D01*
X010054Y026139D01*
X009804Y025889D01*
X010054Y025639D01*
X010054Y025139D01*
X009804Y024889D01*
X010054Y024639D01*
X010054Y024139D01*
X009804Y023889D01*
X009304Y023889D01*
X009054Y024139D01*
X009054Y024639D01*
X009304Y024889D01*
X009054Y025139D01*
X009054Y025639D01*
X009304Y025889D01*
X009054Y026139D01*
X009054Y026639D01*
X009304Y026889D01*
X009054Y027139D01*
X009054Y027639D01*
X009304Y027889D01*
X009054Y028139D01*
X009054Y028639D01*
X009304Y028889D01*
X009054Y029139D01*
X009054Y029639D01*
X009304Y029889D01*
X009054Y030139D01*
X009054Y030639D01*
X009304Y030889D01*
X009054Y031139D01*
X009054Y031639D01*
X009304Y031889D01*
X009054Y032139D01*
X009054Y032639D01*
X009304Y032889D01*
X009054Y033139D01*
X009054Y033639D01*
X009304Y033889D01*
X009804Y033889D01*
X010054Y033639D01*
X010054Y033139D01*
X009804Y032889D01*
X010054Y032639D01*
X010054Y032139D01*
X009804Y031889D01*
X010054Y031639D01*
X010054Y031139D01*
X009804Y030889D01*
X010054Y030639D01*
X010054Y030139D01*
X009804Y029889D01*
X010054Y029639D01*
X010054Y029139D01*
X009804Y028889D01*
X010054Y028639D01*
X010054Y028139D01*
X009804Y027889D01*
X010054Y027639D01*
X010054Y027139D01*
X009804Y026889D01*
X010054Y026639D01*
X010054Y026139D01*
X009804Y025889D01*
X010054Y025639D01*
X010054Y025139D01*
X009804Y024889D01*
X010054Y024639D01*
X010054Y024139D01*
X009804Y023889D01*
X009304Y023889D01*
X009054Y024139D01*
X009054Y024639D01*
X009304Y024889D01*
X009054Y025139D01*
X009054Y025639D01*
X009304Y025889D01*
X009054Y026139D01*
X009054Y026639D01*
X009304Y026889D01*
X009054Y027139D01*
X009054Y027639D01*
X009304Y027889D01*
X009054Y028139D01*
X009054Y028639D01*
X009304Y028889D01*
X009054Y029139D01*
X009054Y029639D01*
X009304Y029889D01*
X009054Y030139D01*
X009054Y030639D01*
X009304Y030889D01*
X009054Y031139D01*
X009054Y031639D01*
X009304Y031889D01*
X009054Y032139D01*
X009054Y032639D01*
X009304Y032889D01*
X009054Y033139D01*
X009274Y034336D02*
X011774Y031836D01*
X011784Y031836D01*
X011804Y023589D02*
X011304Y023589D01*
X011054Y023339D01*
X010804Y023589D01*
X010304Y023589D01*
X010054Y023339D01*
X009804Y023589D01*
X009304Y023589D01*
X009054Y023339D01*
X008804Y023589D01*
X008304Y023589D01*
X008054Y023339D01*
X007804Y023589D01*
X007304Y023589D01*
X007054Y023339D01*
X006804Y023589D01*
X006304Y023589D01*
X006054Y023339D01*
X005804Y023589D01*
X005304Y023589D01*
X005054Y023339D01*
X004804Y023589D01*
X004304Y023589D01*
X004054Y023339D01*
X003804Y023589D01*
X003304Y023589D01*
X003054Y023339D01*
X002804Y023589D01*
X002304Y023589D01*
X002054Y023339D01*
X002054Y022839D01*
X002304Y022589D01*
X002804Y022589D01*
X003054Y022839D01*
X003304Y022589D01*
X003804Y022589D01*
X004054Y022839D01*
X004304Y022589D01*
X004804Y022589D01*
X005054Y022839D01*
X005304Y022589D01*
X005804Y022589D01*
X006054Y022839D01*
X006304Y022589D01*
X006804Y022589D01*
X007054Y022839D01*
X007304Y022589D01*
X007804Y022589D01*
X008054Y022839D01*
X008304Y022589D01*
X008804Y022589D01*
X009054Y022839D01*
X009304Y022589D01*
X009804Y022589D01*
X010054Y022839D01*
X010304Y022589D01*
X010804Y022589D01*
X011054Y022839D01*
X011304Y022589D01*
X011804Y022589D01*
X012054Y022839D01*
X012054Y023339D01*
X011804Y023589D01*
X012054Y023339D01*
X012054Y022839D01*
X011804Y022589D01*
X012054Y022339D01*
X012054Y021839D01*
X011804Y021589D01*
X011304Y021589D01*
X011054Y021839D01*
X010804Y021589D01*
X010304Y021589D01*
X010054Y021839D01*
X009804Y021589D01*
X009304Y021589D01*
X009054Y021839D01*
X008804Y021589D01*
X008304Y021589D01*
X008054Y021839D01*
X007804Y021589D01*
X007304Y021589D01*
X007054Y021839D01*
X006804Y021589D01*
X006304Y021589D01*
X006054Y021839D01*
X005804Y021589D01*
X005304Y021589D01*
X005054Y021839D01*
X004804Y021589D01*
X004304Y021589D01*
X004054Y021839D01*
X003804Y021589D01*
X003304Y021589D01*
X003054Y021839D01*
X002804Y021589D01*
X002304Y021589D01*
X002054Y021839D01*
X002054Y022339D01*
X002304Y022589D01*
X002804Y022589D01*
X003054Y022339D01*
X003304Y022589D01*
X003804Y022589D01*
X004054Y022339D01*
X004304Y022589D01*
X004804Y022589D01*
X005054Y022339D01*
X005304Y022589D01*
X005804Y022589D01*
X006054Y022339D01*
X006304Y022589D01*
X006804Y022589D01*
X007054Y022339D01*
X007304Y022589D01*
X007804Y022589D01*
X008054Y022339D01*
X008304Y022589D01*
X008804Y022589D01*
X009054Y022339D01*
X009304Y022589D01*
X009804Y022589D01*
X010054Y022339D01*
X010304Y022589D01*
X010804Y022589D01*
X011054Y022339D01*
X011304Y022589D01*
X011804Y022589D01*
X012054Y022339D01*
X012054Y021839D01*
X011804Y021589D01*
X011304Y021589D01*
X011054Y021839D01*
X010804Y021589D01*
X010304Y021589D01*
X010054Y021839D01*
X009804Y021589D01*
X009304Y021589D01*
X009054Y021839D01*
X008804Y021589D01*
X008304Y021589D01*
X008054Y021839D01*
X007804Y021589D01*
X007304Y021589D01*
X007054Y021839D01*
X006804Y021589D01*
X006304Y021589D01*
X006054Y021839D01*
X005804Y021589D01*
X005304Y021589D01*
X005054Y021839D01*
X004804Y021589D01*
X004304Y021589D01*
X004054Y021839D01*
X003804Y021589D01*
X003304Y021589D01*
X003054Y021839D01*
X002804Y021589D01*
X002304Y021589D01*
X002054Y021839D01*
X002054Y022339D01*
X002304Y022589D01*
X002054Y022839D01*
X002054Y023339D01*
X002304Y023589D01*
X002804Y023589D01*
X003054Y023339D01*
X003304Y023589D01*
X003804Y023589D01*
X004054Y023339D01*
X004304Y023589D01*
X004804Y023589D01*
X005054Y023339D01*
X005304Y023589D01*
X005804Y023589D01*
X006054Y023339D01*
X006304Y023589D01*
X006804Y023589D01*
X007054Y023339D01*
X007304Y023589D01*
X007804Y023589D01*
X008054Y023339D01*
X008304Y023589D01*
X008804Y023589D01*
X009054Y023339D01*
X009304Y023589D01*
X009804Y023589D01*
X010054Y023339D01*
X010304Y023589D01*
X010804Y023589D01*
X011054Y023339D01*
X011304Y023589D01*
X011804Y023589D01*
X011706Y017649D02*
X011846Y017649D01*
X011916Y017579D01*
X011636Y017299D01*
X011706Y017229D01*
X011846Y017229D01*
X011916Y017299D01*
X011916Y017579D01*
X012096Y017299D02*
X012166Y017299D01*
X012166Y017229D01*
X012096Y017229D01*
X012096Y017299D01*
X012326Y017229D02*
X012606Y017229D01*
X012466Y017229D02*
X012466Y017649D01*
X012326Y017509D01*
X011706Y017649D02*
X011636Y017579D01*
X011636Y017299D01*
X010995Y017509D02*
X010855Y017229D01*
X010715Y017509D01*
X010535Y017439D02*
X010535Y017369D01*
X010255Y017369D01*
X010255Y017439D02*
X010325Y017509D01*
X010465Y017509D01*
X010535Y017439D01*
X010465Y017229D02*
X010325Y017229D01*
X010255Y017299D01*
X010255Y017439D01*
X010075Y017439D02*
X010075Y017579D01*
X010004Y017649D01*
X009794Y017649D01*
X009794Y017229D01*
X009794Y017369D02*
X010004Y017369D01*
X010075Y017439D01*
X009934Y017369D02*
X010075Y017229D01*
X008944Y018121D02*
X008944Y014656D01*
X008787Y014499D01*
X005322Y014499D01*
X005165Y014656D01*
X005165Y018121D01*
X005322Y018278D01*
X008787Y018278D01*
X008944Y018121D01*
X008944Y014656D01*
X008787Y014499D01*
X005322Y014499D01*
X005165Y014656D01*
X005165Y018121D01*
X005322Y018278D01*
X008787Y018278D01*
X008944Y018121D01*
X011705Y014002D02*
X011705Y013175D01*
X011705Y014002D01*
X012236Y014730D02*
X012472Y014730D01*
X012236Y014730D01*
X013004Y014002D02*
X013004Y013175D01*
X013004Y014002D01*
X012472Y012447D02*
X012236Y012447D01*
X012472Y012447D01*
X011604Y010079D02*
X011604Y007499D01*
X010304Y007499D01*
X010304Y010079D01*
X011604Y010079D01*
X011604Y007499D01*
X010304Y007499D01*
X010304Y010079D01*
X011604Y010079D01*
X011399Y006482D02*
X012226Y006482D01*
X012226Y006207D01*
X012226Y006107D02*
X012226Y006482D01*
X011399Y006482D01*
X012226Y004356D02*
X012226Y002270D01*
X008683Y002270D01*
X008683Y006482D01*
X009509Y006482D01*
X008683Y006482D01*
X008683Y002370D01*
X007754Y002589D02*
X007754Y005689D01*
X007754Y007289D02*
X007754Y009489D01*
X001554Y009489D01*
X001554Y007189D01*
X001554Y005589D02*
X001554Y002589D01*
X001804Y012389D02*
X001304Y012389D01*
X001054Y012639D01*
X001054Y013139D01*
X001304Y013389D01*
X001054Y013639D01*
X001054Y014139D01*
X001304Y014389D01*
X001054Y014639D01*
X001054Y015139D01*
X001304Y015389D01*
X001054Y015639D01*
X001054Y016139D01*
X001304Y016389D01*
X001054Y016639D01*
X001054Y017139D01*
X001304Y017389D01*
X001804Y017389D01*
X002054Y017139D01*
X002054Y016639D01*
X001804Y016389D01*
X002054Y016139D01*
X002054Y015639D01*
X001804Y015389D01*
X002054Y015139D01*
X002054Y014639D01*
X001804Y014389D01*
X002054Y014139D01*
X002054Y013639D01*
X001804Y013389D01*
X002054Y013139D01*
X002054Y012639D01*
X001804Y012389D01*
X002054Y012639D01*
X002054Y013139D01*
X001804Y013389D01*
X002054Y013639D01*
X002054Y014139D01*
X001804Y014389D01*
X002054Y014639D01*
X002054Y015139D01*
X001804Y015389D01*
X002054Y015639D01*
X002054Y016139D01*
X001804Y016389D01*
X002054Y016639D01*
X002054Y017139D01*
X001804Y017389D01*
X001304Y017389D01*
X001054Y017139D01*
X001054Y016639D01*
X001304Y016389D01*
X001054Y016139D01*
X001054Y015639D01*
X001304Y015389D01*
X001054Y015139D01*
X001054Y014639D01*
X001304Y014389D01*
X001054Y014139D01*
X001304Y014389D01*
X001054Y014639D01*
X001054Y015139D01*
X001304Y015389D01*
X001054Y015639D01*
X001054Y016139D01*
X001304Y016389D01*
X001054Y016639D01*
X001054Y017139D01*
X001304Y017389D01*
X001054Y014139D02*
X001054Y013639D01*
X001304Y013389D01*
X001054Y013139D01*
X001054Y012639D01*
X001304Y012389D01*
X001804Y012389D01*
X002054Y012639D01*
X002054Y013139D01*
X001804Y013389D01*
X001304Y013389D02*
X001054Y013639D01*
X001304Y013389D02*
X001054Y013139D01*
X001054Y012639D01*
X001304Y012389D01*
X002748Y014570D02*
X002748Y015007D01*
X003561Y015007D01*
X003561Y014570D01*
X002748Y014570D01*
X002748Y015007D01*
X003561Y015007D01*
X003561Y014570D01*
X002748Y014570D01*
X012226Y004356D02*
X012226Y002370D01*
D16*
X010613Y010452D03*
X010613Y010452D03*
X010613Y010925D03*
X010613Y010925D03*
D17*
X010613Y010689D03*
X010613Y010689D03*
D18*
X009154Y010689D03*
X009154Y010689D03*
X010654Y015689D03*
X010654Y015689D03*
D19*
X010354Y012389D03*
X010354Y012389D03*
X007054Y010389D03*
X007054Y010389D03*
X006054Y010389D03*
X006054Y010389D03*
X004854Y010389D03*
X004854Y010389D03*
X004054Y010389D03*
X004054Y010389D03*
X003354Y010389D03*
X003354Y010389D03*
X001154Y004389D03*
X001154Y004389D03*
X001554Y022889D03*
X001554Y022889D03*
D20*
X012276Y014396D03*
X012276Y014396D03*
D21*
X001124Y003519D02*
X001124Y003444D01*
X001274Y003444D01*
X001224Y003444D02*
X001224Y003519D01*
X001199Y003544D01*
X001149Y003544D01*
X001124Y003519D01*
X001149Y003591D02*
X001124Y003616D01*
X001124Y003666D01*
X001149Y003691D01*
X001249Y003691D01*
X001274Y003666D01*
X001274Y003616D01*
X001249Y003591D01*
X001274Y003544D02*
X001224Y003494D01*
X001174Y003591D02*
X001199Y003616D01*
X001199Y003691D01*
X001174Y003591D02*
X001149Y003591D01*
X001884Y009094D02*
X001909Y009094D01*
X001934Y009119D01*
X001934Y009244D01*
X001909Y009244D02*
X001959Y009244D01*
X002007Y009219D02*
X002032Y009244D01*
X002082Y009244D01*
X002107Y009219D01*
X002107Y009194D01*
X002007Y009094D01*
X002107Y009094D01*
X001884Y009094D02*
X001859Y009119D01*
X003324Y011044D02*
X003324Y011119D01*
X003349Y011144D01*
X003399Y011144D01*
X003424Y011119D01*
X003424Y011044D01*
X003424Y011094D02*
X003474Y011144D01*
X003474Y011191D02*
X003474Y011291D01*
X003474Y011241D02*
X003324Y011241D01*
X003374Y011191D01*
X003349Y011338D02*
X003324Y011363D01*
X003324Y011413D01*
X003349Y011438D01*
X003449Y011338D01*
X003474Y011363D01*
X003474Y011413D01*
X003449Y011438D01*
X003349Y011438D01*
X003349Y011338D02*
X003449Y011338D01*
X003474Y011044D02*
X003324Y011044D01*
X003924Y011044D02*
X003924Y011119D01*
X003949Y011144D01*
X003999Y011144D01*
X004024Y011119D01*
X004024Y011044D01*
X004024Y011094D02*
X004074Y011144D01*
X004074Y011191D02*
X004074Y011291D01*
X004074Y011241D02*
X003924Y011241D01*
X003974Y011191D01*
X003999Y011338D02*
X003999Y011438D01*
X003924Y011413D02*
X003999Y011338D01*
X004074Y011413D02*
X003924Y011413D01*
X003924Y011044D02*
X004074Y011044D01*
X004824Y011044D02*
X004824Y011119D01*
X004849Y011144D01*
X004899Y011144D01*
X004924Y011119D01*
X004924Y011044D01*
X004924Y011094D02*
X004974Y011144D01*
X004974Y011191D02*
X004974Y011291D01*
X004974Y011338D02*
X004874Y011438D01*
X004849Y011438D01*
X004824Y011413D01*
X004824Y011363D01*
X004849Y011338D01*
X004824Y011241D02*
X004974Y011241D01*
X004974Y011338D02*
X004974Y011438D01*
X004824Y011241D02*
X004874Y011191D01*
X004824Y011044D02*
X004974Y011044D01*
X005424Y011044D02*
X005424Y011119D01*
X005449Y011144D01*
X005499Y011144D01*
X005524Y011119D01*
X005524Y011044D01*
X005524Y011094D02*
X005574Y011144D01*
X005574Y011191D02*
X005574Y011291D01*
X005574Y011241D02*
X005424Y011241D01*
X005474Y011191D01*
X005449Y011338D02*
X005424Y011363D01*
X005424Y011413D01*
X005449Y011438D01*
X005474Y011438D01*
X005499Y011413D01*
X005524Y011438D01*
X005549Y011438D01*
X005574Y011413D01*
X005574Y011363D01*
X005549Y011338D01*
X005499Y011388D02*
X005499Y011413D01*
X005574Y011044D02*
X005424Y011044D01*
X005390Y011959D02*
X005340Y011959D01*
X005315Y011984D01*
X005315Y012084D01*
X005340Y012109D01*
X005390Y012109D01*
X005415Y012084D01*
X005462Y012034D02*
X005537Y012034D01*
X005562Y012009D01*
X005562Y011984D01*
X005537Y011959D01*
X005487Y011959D01*
X005462Y011984D01*
X005462Y012034D01*
X005512Y012084D01*
X005562Y012109D01*
X005415Y011984D02*
X005390Y011959D01*
X006024Y011266D02*
X006099Y011191D01*
X006099Y011291D01*
X006174Y011266D02*
X006024Y011266D01*
X006049Y011144D02*
X006024Y011119D01*
X006024Y011069D01*
X006049Y011044D01*
X006149Y011044D01*
X006174Y011069D01*
X006174Y011119D01*
X006149Y011144D01*
X006934Y011134D02*
X006984Y011184D01*
X006984Y011159D02*
X006984Y011234D01*
X006934Y011234D02*
X007084Y011234D01*
X007084Y011159D01*
X007059Y011134D01*
X007009Y011134D01*
X006984Y011159D01*
X006984Y011086D02*
X007009Y011061D01*
X007009Y011011D01*
X006984Y010986D01*
X006959Y010986D01*
X006934Y011011D01*
X006934Y011061D01*
X006959Y011086D01*
X006984Y011086D01*
X007009Y011061D02*
X007034Y011086D01*
X007059Y011086D01*
X007084Y011061D01*
X007084Y011011D01*
X007059Y010986D01*
X007034Y010986D01*
X007009Y011011D01*
X008134Y008419D02*
X008109Y008394D01*
X008109Y008294D01*
X008134Y008269D01*
X008184Y008269D01*
X008209Y008294D01*
X008257Y008269D02*
X008357Y008369D01*
X008357Y008394D01*
X008332Y008419D01*
X008282Y008419D01*
X008257Y008394D01*
X008209Y008394D02*
X008184Y008419D01*
X008134Y008419D01*
X008257Y008269D02*
X008357Y008269D01*
X008924Y008269D02*
X008949Y008244D01*
X009049Y008244D01*
X009074Y008269D01*
X009074Y008319D01*
X009049Y008344D01*
X009074Y008391D02*
X009074Y008491D01*
X009074Y008441D02*
X008924Y008441D01*
X008974Y008391D01*
X008949Y008344D02*
X008924Y008319D01*
X008924Y008269D01*
X009109Y006044D02*
X009159Y006044D01*
X009134Y006044D02*
X009134Y005919D01*
X009109Y005894D01*
X009084Y005894D01*
X009059Y005919D01*
X009207Y005894D02*
X009307Y005894D01*
X009257Y005894D02*
X009257Y006044D01*
X009207Y005994D01*
X008832Y010969D02*
X008782Y010969D01*
X008757Y010994D01*
X008709Y010969D02*
X008659Y011019D01*
X008684Y011019D02*
X008609Y011019D01*
X008609Y010969D02*
X008609Y011119D01*
X008684Y011119D01*
X008709Y011094D01*
X008709Y011044D01*
X008684Y011019D01*
X008757Y011094D02*
X008782Y011119D01*
X008832Y011119D01*
X008857Y011094D01*
X008857Y011069D01*
X008832Y011044D01*
X008857Y011019D01*
X008857Y010994D01*
X008832Y010969D01*
X008832Y011044D02*
X008807Y011044D01*
X009859Y010994D02*
X009934Y010994D01*
X009959Y011019D01*
X009959Y011119D01*
X009934Y011144D01*
X009859Y011144D01*
X009859Y010994D01*
X010007Y010994D02*
X010107Y010994D01*
X010057Y010994D02*
X010057Y011144D01*
X010007Y011094D01*
X010224Y011344D02*
X010224Y011419D01*
X010249Y011444D01*
X010299Y011444D01*
X010324Y011419D01*
X010324Y011344D01*
X010324Y011394D02*
X010374Y011444D01*
X010374Y011491D02*
X010374Y011591D01*
X010374Y011638D02*
X010374Y011738D01*
X010374Y011688D02*
X010224Y011688D01*
X010274Y011638D01*
X010224Y011541D02*
X010374Y011541D01*
X010274Y011491D02*
X010224Y011541D01*
X010224Y011344D02*
X010374Y011344D01*
X010724Y011369D02*
X010749Y011344D01*
X010849Y011344D01*
X010874Y011369D01*
X010874Y011419D01*
X010849Y011444D01*
X010849Y011491D02*
X010824Y011491D01*
X010799Y011516D01*
X010799Y011566D01*
X010824Y011591D01*
X010849Y011591D01*
X010874Y011566D01*
X010874Y011516D01*
X010849Y011491D01*
X010799Y011516D02*
X010774Y011491D01*
X010749Y011491D01*
X010724Y011516D01*
X010724Y011566D01*
X010749Y011591D01*
X010774Y011591D01*
X010799Y011566D01*
X010749Y011444D02*
X010724Y011419D01*
X010724Y011369D01*
X011359Y009909D02*
X011334Y009884D01*
X011334Y009834D01*
X011359Y009809D01*
X011484Y009809D01*
X011434Y009761D02*
X011484Y009711D01*
X011334Y009711D01*
X011334Y009761D02*
X011334Y009661D01*
X011359Y009909D02*
X011484Y009909D01*
X010949Y013744D02*
X010849Y013744D01*
X010824Y013769D01*
X010824Y013819D01*
X010849Y013844D01*
X010849Y013891D02*
X010874Y013891D01*
X010899Y013916D01*
X010899Y013991D01*
X010949Y013991D02*
X010849Y013991D01*
X010824Y013966D01*
X010824Y013916D01*
X010849Y013891D01*
X010949Y013891D02*
X010974Y013916D01*
X010974Y013966D01*
X010949Y013991D01*
X010949Y013844D02*
X010974Y013819D01*
X010974Y013769D01*
X010949Y013744D01*
X011209Y015569D02*
X011209Y015719D01*
X011284Y015719D01*
X011309Y015694D01*
X011309Y015644D01*
X011284Y015619D01*
X011209Y015619D01*
X011259Y015619D02*
X011309Y015569D01*
X011357Y015569D02*
X011457Y015569D01*
X011407Y015569D02*
X011407Y015719D01*
X011357Y015669D01*
X011504Y015644D02*
X011579Y015644D01*
X011604Y015619D01*
X011604Y015594D01*
X011579Y015569D01*
X011529Y015569D01*
X011504Y015594D01*
X011504Y015644D01*
X011554Y015694D01*
X011604Y015719D01*
X011579Y016069D02*
X011529Y016069D01*
X011504Y016094D01*
X011457Y016069D02*
X011357Y016069D01*
X011407Y016069D02*
X011407Y016219D01*
X011357Y016169D01*
X011309Y016194D02*
X011284Y016219D01*
X011234Y016219D01*
X011209Y016194D01*
X011209Y016094D01*
X011234Y016069D01*
X011284Y016069D01*
X011309Y016094D01*
X011504Y016194D02*
X011529Y016219D01*
X011579Y016219D01*
X011604Y016194D01*
X011604Y016169D01*
X011579Y016144D01*
X011604Y016119D01*
X011604Y016094D01*
X011579Y016069D01*
X011579Y016144D02*
X011554Y016144D01*
X012615Y016484D02*
X012640Y016459D01*
X012690Y016459D01*
X012715Y016484D01*
X012762Y016484D02*
X012787Y016459D01*
X012837Y016459D01*
X012862Y016484D01*
X012862Y016534D01*
X012837Y016559D01*
X012812Y016559D01*
X012762Y016534D01*
X012762Y016609D01*
X012862Y016609D01*
X012715Y016584D02*
X012690Y016609D01*
X012640Y016609D01*
X012615Y016584D01*
X012615Y016484D01*
X009374Y014038D02*
X009374Y013938D01*
X009274Y014038D01*
X009249Y014038D01*
X009224Y014013D01*
X009224Y013963D01*
X009249Y013938D01*
X009224Y013841D02*
X009374Y013841D01*
X009374Y013791D02*
X009374Y013891D01*
X009274Y013791D02*
X009224Y013841D01*
X009249Y013744D02*
X009224Y013719D01*
X009224Y013669D01*
X009249Y013644D01*
X009349Y013644D01*
X009374Y013669D01*
X009374Y013719D01*
X009349Y013744D01*
X003704Y015169D02*
X003604Y015169D01*
X003557Y015169D02*
X003457Y015169D01*
X003507Y015169D02*
X003507Y015319D01*
X003457Y015269D01*
X003409Y015294D02*
X003384Y015319D01*
X003334Y015319D01*
X003309Y015294D01*
X003309Y015194D01*
X003334Y015169D01*
X003384Y015169D01*
X003409Y015194D01*
X003604Y015269D02*
X003654Y015319D01*
X003654Y015169D01*
X003629Y015769D02*
X003679Y015769D01*
X003704Y015794D01*
X003704Y015819D01*
X003679Y015844D01*
X003604Y015844D01*
X003604Y015794D01*
X003629Y015769D01*
X003557Y015769D02*
X003457Y015769D01*
X003507Y015769D02*
X003507Y015919D01*
X003457Y015869D01*
X003409Y015894D02*
X003384Y015919D01*
X003334Y015919D01*
X003309Y015894D01*
X003309Y015794D01*
X003334Y015769D01*
X003384Y015769D01*
X003409Y015794D01*
X003604Y015844D02*
X003654Y015894D01*
X003704Y015919D01*
X003457Y016294D02*
X003557Y016394D01*
X003557Y016419D01*
X003457Y016419D01*
X003409Y016394D02*
X003384Y016419D01*
X003334Y016419D01*
X003309Y016394D01*
X003309Y016294D01*
X003334Y016269D01*
X003384Y016269D01*
X003409Y016294D01*
X003457Y016294D02*
X003457Y016269D01*
X003434Y018469D02*
X003484Y018469D01*
X003509Y018494D01*
X003557Y018469D02*
X003657Y018469D01*
X003607Y018469D02*
X003607Y018619D01*
X003557Y018569D01*
X003509Y018594D02*
X003484Y018619D01*
X003434Y018619D01*
X003409Y018594D01*
X003409Y018494D01*
X003434Y018469D01*
X003704Y018494D02*
X003729Y018469D01*
X003779Y018469D01*
X003804Y018494D01*
X003804Y018594D01*
X003704Y018494D01*
X003704Y018594D01*
X003729Y018619D01*
X003779Y018619D01*
X003804Y018594D01*
X002432Y014119D02*
X002382Y014119D01*
X002357Y014094D01*
X002309Y014094D02*
X002284Y014119D01*
X002234Y014119D01*
X002209Y014094D01*
X002209Y013994D01*
X002234Y013969D01*
X002284Y013969D01*
X002309Y013994D01*
X002357Y013994D02*
X002382Y013969D01*
X002432Y013969D01*
X002457Y013994D01*
X002457Y014019D01*
X002432Y014044D01*
X002407Y014044D01*
X002432Y014044D02*
X002457Y014069D01*
X002457Y014094D01*
X002432Y014119D01*
X001374Y021844D02*
X001224Y021844D01*
X001224Y021919D01*
X001249Y021944D01*
X001299Y021944D01*
X001324Y021919D01*
X001324Y021844D01*
X001324Y021894D02*
X001374Y021944D01*
X001374Y021991D02*
X001374Y022091D01*
X001374Y022041D02*
X001224Y022041D01*
X001274Y021991D01*
D22*
X002194Y014906D02*
X002194Y014616D01*
X002388Y014616D01*
X002489Y014616D02*
X002682Y014616D01*
X002586Y014616D02*
X002586Y014906D01*
X002489Y014810D01*
D23*
X006604Y032439D02*
X006604Y032689D01*
X006504Y032939D01*
X006304Y032989D01*
X006304Y033139D01*
X006504Y033139D01*
X006604Y033389D01*
X006454Y033589D01*
X006604Y033689D01*
X006754Y033539D01*
X006954Y033639D01*
X007004Y033839D01*
X007154Y033839D01*
X007404Y033539D01*
X007604Y033689D01*
X007704Y033589D01*
X007604Y033389D01*
X007704Y033139D01*
X007904Y033139D01*
X007904Y032989D01*
X007654Y032939D01*
X007604Y032689D01*
X007704Y032539D01*
X007604Y032439D01*
X007454Y032539D01*
X007354Y032489D01*
X007254Y032789D01*
X007404Y032989D01*
X007354Y033239D01*
X007154Y033339D01*
X006954Y033339D01*
X006804Y033189D01*
X006804Y032889D01*
X006954Y032789D01*
X006804Y032539D01*
X006604Y032439D01*
X006504Y032539D01*
X006604Y032689D01*
X006504Y032939D01*
X006304Y032989D01*
X006304Y033139D01*
X006504Y033139D01*
X006604Y033389D01*
X006454Y033589D01*
X006604Y033689D01*
X006754Y033539D01*
X006954Y033639D01*
X007004Y033839D01*
X007154Y033839D01*
X007204Y033639D01*
X007404Y033539D01*
X007604Y033689D01*
X007704Y033589D01*
X007604Y033389D01*
X007704Y033139D01*
X007904Y033139D01*
X007904Y032989D01*
X007654Y032939D01*
X007604Y032689D01*
X007704Y032539D01*
X007604Y032439D01*
X007454Y032539D01*
X007354Y032489D01*
X007254Y032789D01*
X007404Y032989D01*
X007354Y033239D01*
X007154Y033339D01*
X006954Y033339D01*
X006804Y033189D01*
X006804Y032889D01*
X006954Y032789D01*
X006804Y032539D01*
X006754Y032539D01*
X006604Y032439D01*
X006504Y032539D01*
X006604Y032689D01*
X006504Y032939D01*
X006304Y032989D01*
X006304Y033139D01*
X006504Y033139D01*
X006604Y033389D01*
X006454Y033589D01*
X006604Y033689D01*
X006754Y033539D01*
X006954Y033639D01*
X007004Y033839D01*
X007154Y033839D01*
X007204Y033639D01*
X007404Y033539D01*
X007604Y033689D01*
X007704Y033589D01*
X007604Y033389D01*
X007704Y033139D01*
X007904Y033139D01*
X007904Y032989D01*
X007654Y032939D01*
X007604Y032689D01*
X007704Y032539D01*
X007604Y032439D01*
X007454Y032539D01*
X007354Y032489D01*
X007254Y032789D01*
X007404Y032989D01*
X007354Y033239D01*
X007154Y033339D01*
X006954Y033339D01*
X006804Y033189D01*
X006804Y032889D01*
X006954Y032789D01*
X006804Y032539D01*
X006754Y032539D01*
X006604Y032439D01*
X006604Y032480D02*
X006687Y032480D01*
X006666Y032480D02*
X006563Y032480D01*
X006666Y032480D01*
X006604Y032538D02*
X006804Y032538D01*
X006754Y032538D02*
X006505Y032538D01*
X006754Y032538D01*
X006839Y032597D02*
X006604Y032597D01*
X006604Y032656D02*
X006874Y032656D01*
X006582Y032656D01*
X006874Y032656D01*
X006910Y032714D02*
X006594Y032714D01*
X006910Y032714D01*
X006594Y032714D01*
X006571Y032773D02*
X006945Y032773D01*
X006571Y032773D01*
X006945Y032773D01*
X006891Y032831D02*
X006547Y032831D01*
X006891Y032831D01*
X006547Y032831D01*
X006524Y032890D02*
X006804Y032890D01*
X006524Y032890D01*
X006804Y032890D01*
X006804Y032948D02*
X006466Y032948D01*
X006804Y032948D01*
X006466Y032948D01*
X006304Y033007D02*
X006804Y033007D01*
X006304Y033007D01*
X006804Y033007D01*
X006804Y033065D02*
X006304Y033065D01*
X006804Y033065D01*
X006304Y033065D01*
X006304Y033124D02*
X006804Y033124D01*
X006304Y033124D01*
X006804Y033124D01*
X006804Y033182D02*
X006522Y033182D01*
X006804Y033182D01*
X006522Y033182D01*
X006545Y033241D02*
X006857Y033241D01*
X006545Y033241D01*
X006857Y033241D01*
X006915Y033300D02*
X006569Y033300D01*
X006915Y033300D01*
X006569Y033300D01*
X006592Y033358D02*
X007617Y033358D01*
X006592Y033358D01*
X007617Y033358D01*
X007618Y033417D02*
X006583Y033417D01*
X007618Y033417D01*
X006583Y033417D01*
X006539Y033475D02*
X007648Y033475D01*
X006539Y033475D01*
X007648Y033475D01*
X007677Y033534D02*
X006496Y033534D01*
X007677Y033534D01*
X006496Y033534D01*
X006460Y033592D02*
X006701Y033592D01*
X006460Y033592D01*
X006701Y033592D01*
X006642Y033651D02*
X006548Y033651D01*
X006642Y033651D01*
X006548Y033651D01*
X006861Y033592D02*
X007360Y033592D01*
X007297Y033592D02*
X006861Y033592D01*
X007297Y033592D01*
X007311Y033651D02*
X006957Y033651D01*
X007201Y033651D01*
X006957Y033651D01*
X006972Y033709D02*
X007262Y033709D01*
X007187Y033709D02*
X006972Y033709D01*
X007187Y033709D01*
X007172Y033768D02*
X006987Y033768D01*
X007213Y033768D01*
X007172Y033768D02*
X006987Y033768D01*
X007001Y033826D02*
X007165Y033826D01*
X007157Y033826D02*
X007001Y033826D01*
X007157Y033826D01*
X007233Y033300D02*
X007640Y033300D01*
X007233Y033300D01*
X007640Y033300D01*
X007663Y033241D02*
X007350Y033241D01*
X007663Y033241D01*
X007350Y033241D01*
X007366Y033182D02*
X007687Y033182D01*
X007366Y033182D01*
X007687Y033182D01*
X007904Y033124D02*
X007377Y033124D01*
X007904Y033124D01*
X007377Y033124D01*
X007389Y033065D02*
X007904Y033065D01*
X007389Y033065D01*
X007904Y033065D01*
X007904Y033007D02*
X007401Y033007D01*
X007904Y033007D01*
X007401Y033007D01*
X007374Y032948D02*
X007702Y032948D01*
X007374Y032948D01*
X007702Y032948D01*
X007645Y032890D02*
X007330Y032890D01*
X007645Y032890D01*
X007330Y032890D01*
X007286Y032831D02*
X007633Y032831D01*
X007286Y032831D01*
X007633Y032831D01*
X007621Y032773D02*
X007260Y032773D01*
X007621Y032773D01*
X007260Y032773D01*
X007279Y032714D02*
X007609Y032714D01*
X007279Y032714D01*
X007609Y032714D01*
X007626Y032656D02*
X007299Y032656D01*
X007626Y032656D01*
X007299Y032656D01*
X007318Y032597D02*
X007665Y032597D01*
X007318Y032597D01*
X007665Y032597D01*
X007704Y032538D02*
X007455Y032538D01*
X007704Y032538D01*
X007455Y032538D01*
X007454Y032538D02*
X007338Y032538D01*
X007454Y032538D01*
X007338Y032538D01*
X007542Y032480D02*
X007646Y032480D01*
X007542Y032480D01*
X007646Y032480D01*
X007701Y033592D02*
X007476Y033592D01*
X007701Y033592D01*
X007476Y033592D01*
X007554Y033651D02*
X007642Y033651D01*
X007554Y033651D01*
X007642Y033651D01*
X006839Y032597D02*
X006543Y032597D01*
X006839Y032597D01*
X011584Y007259D02*
X011584Y007089D01*
X011698Y007146D01*
X011754Y007146D01*
X011811Y007089D01*
X011811Y006975D01*
X011754Y006919D01*
X011641Y006919D01*
X011584Y006975D01*
X011584Y007259D02*
X011811Y007259D01*
X011953Y007089D02*
X012179Y007089D01*
X012321Y007146D02*
X012434Y007259D01*
X012434Y006919D01*
X012321Y006919D02*
X012548Y006919D01*
X012689Y006919D02*
X012916Y007146D01*
X012916Y007202D01*
X012859Y007259D01*
X012746Y007259D01*
X012689Y007202D01*
X012689Y006919D02*
X012916Y006919D01*
X013058Y007032D02*
X013171Y006919D01*
X013284Y007032D01*
X013284Y007259D01*
X013058Y007259D02*
X013058Y007032D01*
D24*
X012449Y013324D02*
X012179Y013504D01*
X012269Y013619D02*
X012179Y013709D01*
X012449Y013709D01*
X012449Y013619D02*
X012449Y013799D01*
X012449Y013504D02*
X012179Y013324D01*
X008608Y016259D02*
X008563Y016214D01*
X008473Y016214D01*
X008428Y016259D01*
X008608Y016439D01*
X008608Y016259D01*
X008608Y016439D02*
X008563Y016484D01*
X008473Y016484D01*
X008428Y016439D01*
X008428Y016259D01*
X008313Y016259D02*
X008313Y016304D01*
X008268Y016349D01*
X008133Y016349D01*
X008133Y016259D01*
X008178Y016214D01*
X008268Y016214D01*
X008313Y016259D01*
X008223Y016439D02*
X008133Y016349D01*
X008223Y016439D02*
X008313Y016484D01*
X008018Y016484D02*
X007928Y016484D01*
X007973Y016484D02*
X007973Y016259D01*
X007928Y016214D01*
X007883Y016214D01*
X007838Y016259D01*
X007724Y016439D02*
X007544Y016259D01*
X007544Y016214D01*
X007429Y016259D02*
X007429Y016304D01*
X007384Y016349D01*
X007249Y016349D01*
X007249Y016259D01*
X007294Y016214D01*
X007384Y016214D01*
X007429Y016259D01*
X007339Y016439D02*
X007249Y016349D01*
X007339Y016439D02*
X007429Y016484D01*
X007544Y016484D02*
X007724Y016484D01*
X007724Y016439D01*
X007134Y016484D02*
X006954Y016484D01*
X006954Y016214D01*
X006840Y016259D02*
X006795Y016214D01*
X006705Y016214D01*
X006660Y016259D01*
X006660Y016304D01*
X006705Y016349D01*
X006795Y016349D01*
X006840Y016304D01*
X006840Y016259D01*
X006795Y016349D02*
X006840Y016394D01*
X006840Y016439D01*
X006795Y016484D01*
X006705Y016484D01*
X006660Y016439D01*
X006660Y016394D01*
X006705Y016349D01*
X006545Y016214D02*
X006365Y016214D01*
X006455Y016214D02*
X006455Y016484D01*
X006365Y016394D01*
X006251Y016439D02*
X006205Y016484D01*
X006115Y016484D01*
X006070Y016439D01*
X006070Y016259D01*
X006115Y016214D01*
X006205Y016214D01*
X006251Y016259D01*
X005964Y016214D02*
X005874Y016214D01*
X005919Y016214D02*
X005919Y016484D01*
X005874Y016484D02*
X005964Y016484D01*
X005759Y016439D02*
X005759Y016349D01*
X005714Y016304D01*
X005579Y016304D01*
X005579Y016214D02*
X005579Y016484D01*
X005714Y016484D01*
X005759Y016439D01*
X006954Y016349D02*
X007044Y016349D01*
X006254Y013239D02*
X006254Y012739D01*
X002254Y012739D01*
X002254Y013239D01*
X006254Y013239D01*
X007804Y009539D02*
X007804Y001039D01*
X001504Y001039D01*
X001504Y009539D01*
X007804Y009539D01*
X010984Y023836D02*
X010984Y031836D01*
X011774Y031836D01*
X011784Y031836D01*
X011784Y023836D01*
X010984Y023836D01*
X003124Y023836D02*
X002324Y023836D01*
X002324Y031836D01*
X003124Y031836D01*
X003124Y023836D01*
D25*
X006173Y024809D02*
X007434Y025649D01*
X007434Y026190D02*
X007434Y026820D01*
X007224Y027031D01*
X007014Y027031D01*
X006804Y026820D01*
X006804Y026190D01*
X006804Y026820D02*
X006594Y027031D01*
X006383Y027031D01*
X006173Y026820D01*
X006173Y026190D01*
X007434Y026190D01*
X006173Y025649D02*
X007434Y024809D01*
X007224Y027571D02*
X006804Y027571D01*
X006594Y027781D01*
X006594Y028201D01*
X006804Y028412D01*
X007014Y028412D01*
X007014Y027571D01*
X007224Y027571D02*
X007434Y027781D01*
X007434Y028201D01*
X007224Y028952D02*
X006804Y028952D01*
X006594Y029162D01*
X006594Y029583D01*
X006804Y029793D01*
X007014Y029793D01*
X007014Y028952D01*
X007224Y028952D02*
X007434Y029162D01*
X007434Y029583D01*
D26*
X000934Y017405D02*
X000868Y017338D01*
X000868Y017372D02*
X000868Y017272D01*
X000934Y017272D02*
X000734Y017272D01*
X000734Y017372D01*
X000768Y017405D01*
X000834Y017405D01*
X000868Y017372D01*
X000934Y017184D02*
X000934Y017051D01*
X000734Y017051D01*
X000768Y016963D02*
X000734Y016930D01*
X000734Y016863D01*
X000768Y016830D01*
X000901Y016830D01*
X000934Y016863D01*
X000934Y016930D01*
X000901Y016963D01*
X000934Y016742D02*
X000734Y016742D01*
X000801Y016675D01*
X000734Y016609D01*
X000934Y016609D01*
X000901Y016184D02*
X000768Y016184D01*
X000734Y016151D01*
X000734Y016051D01*
X000934Y016051D01*
X000934Y016151D01*
X000901Y016184D01*
X000901Y015963D02*
X000768Y015963D01*
X000734Y015930D01*
X000734Y015830D01*
X000934Y015830D01*
X000934Y015930D01*
X000901Y015963D01*
X000868Y015742D02*
X000734Y015742D01*
X000734Y015609D02*
X000868Y015609D01*
X000934Y015675D01*
X000868Y015742D01*
X000901Y015184D02*
X000768Y015184D01*
X000734Y015151D01*
X000734Y015051D01*
X000934Y015051D01*
X000934Y015151D01*
X000901Y015184D01*
X000934Y014963D02*
X000734Y014963D01*
X000734Y014830D02*
X000934Y014963D01*
X000934Y014830D02*
X000734Y014830D01*
X000768Y014742D02*
X000734Y014709D01*
X000734Y014642D01*
X000768Y014609D01*
X000901Y014609D01*
X000934Y014642D01*
X000934Y014709D01*
X000901Y014742D01*
X000834Y014742D01*
X000834Y014675D01*
X000768Y014184D02*
X000734Y014151D01*
X000734Y014051D01*
X000934Y014051D01*
X000934Y014151D01*
X000901Y014184D01*
X000768Y014184D01*
X000768Y013963D02*
X000734Y013930D01*
X000734Y013863D01*
X000768Y013830D01*
X000901Y013830D01*
X000934Y013863D01*
X000934Y013930D01*
X000901Y013963D01*
X000834Y013963D01*
X000834Y013896D01*
X000834Y013742D02*
X000868Y013709D01*
X000868Y013609D01*
X000934Y013609D02*
X000734Y013609D01*
X000734Y013709D01*
X000768Y013742D01*
X000834Y013742D01*
X000768Y013184D02*
X000734Y013151D01*
X000734Y013084D01*
X000768Y013051D01*
X000901Y013051D01*
X000934Y013084D01*
X000934Y013151D01*
X000901Y013184D01*
X000901Y012963D02*
X000834Y012963D01*
X000834Y012896D01*
X000768Y012830D02*
X000901Y012830D01*
X000934Y012863D01*
X000934Y012930D01*
X000901Y012963D01*
X000768Y012963D02*
X000734Y012930D01*
X000734Y012863D01*
X000768Y012830D01*
X000768Y012742D02*
X000834Y012742D01*
X000868Y012709D01*
X000868Y012609D01*
X000934Y012609D02*
X000734Y012609D01*
X000734Y012709D01*
X000768Y012742D01*
X002374Y012575D02*
X002374Y012442D01*
X002408Y012409D01*
X002474Y012409D01*
X002508Y012442D01*
X002508Y012509D01*
X002441Y012509D01*
X002374Y012575D02*
X002408Y012609D01*
X002474Y012609D01*
X002508Y012575D01*
X002595Y012609D02*
X002595Y012409D01*
X002729Y012409D02*
X002595Y012609D01*
X002729Y012609D02*
X002729Y012409D01*
X002816Y012409D02*
X002916Y012409D01*
X002950Y012442D01*
X002950Y012575D01*
X002916Y012609D01*
X002816Y012609D01*
X002816Y012409D01*
X003274Y012442D02*
X003308Y012409D01*
X003374Y012409D01*
X003408Y012442D01*
X003408Y012475D01*
X003374Y012509D01*
X003308Y012509D01*
X003274Y012542D01*
X003274Y012575D01*
X003308Y012609D01*
X003374Y012609D01*
X003408Y012575D01*
X003495Y012575D02*
X003495Y012542D01*
X003529Y012509D01*
X003595Y012509D01*
X003629Y012475D01*
X003629Y012442D01*
X003595Y012409D01*
X003529Y012409D01*
X003495Y012442D01*
X003495Y012575D02*
X003529Y012609D01*
X003595Y012609D01*
X003629Y012575D01*
X003974Y012575D02*
X003974Y012542D01*
X004008Y012509D01*
X004074Y012509D01*
X004108Y012475D01*
X004108Y012442D01*
X004074Y012409D01*
X004008Y012409D01*
X003974Y012442D01*
X003974Y012575D02*
X004008Y012609D01*
X004074Y012609D01*
X004108Y012575D01*
X004195Y012575D02*
X004195Y012442D01*
X004229Y012409D01*
X004295Y012409D01*
X004329Y012442D01*
X004416Y012409D02*
X004416Y012609D01*
X004329Y012575D02*
X004295Y012609D01*
X004229Y012609D01*
X004195Y012575D01*
X004416Y012475D02*
X004550Y012609D01*
X004450Y012509D02*
X004550Y012409D01*
X004774Y012442D02*
X004808Y012409D01*
X004874Y012409D01*
X004908Y012442D01*
X004908Y012475D01*
X004874Y012509D01*
X004808Y012509D01*
X004774Y012542D01*
X004774Y012575D01*
X004808Y012609D01*
X004874Y012609D01*
X004908Y012575D01*
X004995Y012609D02*
X004995Y012409D01*
X005095Y012409D01*
X005129Y012442D01*
X005129Y012575D01*
X005095Y012609D01*
X004995Y012609D01*
X005216Y012609D02*
X005283Y012609D01*
X005250Y012609D02*
X005250Y012409D01*
X005283Y012409D02*
X005216Y012409D01*
X005574Y012442D02*
X005608Y012409D01*
X005674Y012409D01*
X005708Y012442D01*
X005708Y012475D01*
X005674Y012509D01*
X005608Y012509D01*
X005574Y012542D01*
X005574Y012575D01*
X005608Y012609D01*
X005674Y012609D01*
X005708Y012575D01*
X005795Y012609D02*
X005795Y012409D01*
X005895Y012409D01*
X005929Y012442D01*
X005929Y012575D01*
X005895Y012609D01*
X005795Y012609D01*
X006016Y012575D02*
X006016Y012442D01*
X006050Y012409D01*
X006116Y012409D01*
X006150Y012442D01*
X006150Y012575D01*
X006116Y012609D01*
X006050Y012609D01*
X006016Y012575D01*
D27*
X005972Y014263D03*
X006169Y014263D03*
X006365Y014263D03*
X006562Y014263D03*
X006759Y014263D03*
X006956Y014263D03*
X007153Y014263D03*
X007350Y014263D03*
X007546Y014263D03*
X007743Y014263D03*
X007940Y014263D03*
X008137Y014263D03*
X008334Y014263D03*
X008531Y014263D03*
X008531Y018515D03*
X008334Y018515D03*
X008137Y018515D03*
X007940Y018515D03*
X007743Y018515D03*
X007546Y018515D03*
X007350Y018515D03*
X007153Y018515D03*
X006956Y018515D03*
X006759Y018515D03*
X006562Y018515D03*
X006365Y018515D03*
X006169Y018515D03*
X005972Y018515D03*
X005775Y018515D03*
X005578Y018515D03*
X005578Y014263D03*
X005775Y014263D03*
D28*
X004928Y014912D03*
X004928Y015109D03*
X004928Y015306D03*
X004928Y015503D03*
X004928Y015700D03*
X004928Y015897D03*
X004928Y016093D03*
X004928Y016290D03*
X004928Y016487D03*
X004928Y016684D03*
X004928Y016881D03*
X004928Y017078D03*
X004928Y017274D03*
X004928Y017471D03*
X004928Y017668D03*
X004928Y017865D03*
X009180Y017865D03*
X009180Y017668D03*
X009180Y017471D03*
X009180Y017274D03*
X009180Y017078D03*
X009180Y016881D03*
X009180Y016684D03*
X009180Y016487D03*
X009180Y016290D03*
X009180Y016093D03*
X009180Y015897D03*
X009180Y015700D03*
X009180Y015503D03*
X009180Y015306D03*
X009180Y015109D03*
X009180Y014912D03*
D29*
X009042Y009089D02*
X009066Y009089D01*
M02*
