%
M48
M72
T01C0.0236
T02C0.0250
T03C0.0320
T04C0.0400
T05C0.0650
T06C0.1180
T07C0.1260
T08C0.1400
%
T01
X3054Y6189
X3954Y5289
X4054Y5889
X4554Y5889
X4554Y6389
X5054Y6389
X5054Y3889
X4554Y3889
X4554Y3389
X4054Y3889
X2904Y9289
X2854Y11389
X3654Y11489
X4054Y11989
X4354Y11489
X4154Y13589
X3454Y13589
X3954Y15089
X4254Y15389
X3554Y16189
X3554Y16689
X4554Y19389
X5054Y18889
X5554Y16889
X5554Y15389
X6054Y14889
X7054Y14889
X7054Y15389
X7554Y14889
X7554Y16189
X7554Y16889
X7554Y17389
X7554Y17889
X8054Y17889
X8054Y17389
X8054Y16889
X8054Y16189
X8554Y16189
X8554Y16889
X8554Y17389
X8554Y15389
X9354Y14389
X9854Y13389
X9254Y12989
X8754Y12989
X8254Y12989
X7754Y12989
X7354Y13389
X8054Y11389
X7754Y10889
X8154Y10089
X8154Y8989
X8654Y10089
X9654Y11689
X10954Y9789
X10954Y9289
X10954Y8789
X10954Y8289
X10954Y7789
X11554Y7789
X12054Y7789
X12554Y7789
X13054Y7789
X13054Y8289
X13054Y8789
X13054Y9289
X13054Y9789
X12554Y9789
X12054Y9789
X11554Y9789
X11054Y13389
X10354Y15189
X10654Y18189
X11054Y18589
X11454Y18189
X11754Y18589
X12054Y18189
X13054Y18389
X13054Y17889
X13054Y17389
X13054Y18889
X13054Y23889
X13054Y24389
X12554Y24389
X12554Y23889
X10554Y27889
X12054Y30389
X12054Y30889
X12554Y30889
X12554Y30389
X9354Y20089
X8954Y19889
X8454Y19589
X9554Y18889
X9554Y18389
X10054Y18389
X10054Y18889
X11954Y13589
X12754Y13589
X9054Y5889
X9054Y5389
X9054Y4889
X9054Y4389
X8054Y4389
X8054Y3889
X8054Y3389
X8054Y2889
X8554Y6889
X6954Y7189
X7054Y11089
X5754Y11289
X7054Y16889
X6554Y17689
X6754Y19289
X6754Y21289
X6554Y23889
X6554Y24389
X7054Y23889
X6054Y24389
X3654Y28789
X2054Y26889
X2054Y26389
X2054Y25889
X2054Y25389
X2054Y20389
X2054Y19889
X2554Y19889
X6754Y30389
X6754Y30889
X7254Y30889
X7254Y30389
X1054Y9389
X1054Y8889
X1054Y8389
X1054Y7889
X12554Y3389
X12554Y2889
X13054Y3389
X13054Y3889
T02
X11384Y24236
X11384Y25036
X11384Y25836
X11384Y26636
X11384Y27436
X11384Y28236
X11384Y29036
X11384Y29836
X11384Y30636
X11384Y31436
X2724Y31439
X2724Y30639
X2724Y29839
X2724Y29039
X2724Y28239
X2724Y27439
X2724Y26639
X2724Y25839
X2724Y25039
X2724Y24239
T03
X2054Y3339
X3054Y3339
X2904Y7789
X3404Y8789
X3904Y7789
X4404Y8789
X4904Y7789
X5404Y8789
X5904Y7789
X6404Y8789
X6254Y3339
X7254Y3339
T04
X1554Y12889
X1554Y13889
X1554Y14889
X1554Y15889
X1554Y16889
X2554Y22089
X2554Y23089
X3554Y23089
X3554Y22089
X4554Y22089
X4554Y23089
X4554Y24389
X4554Y25389
X4554Y26389
X4554Y27389
X4554Y28389
X4554Y29389
X4554Y30389
X4554Y31389
X4554Y32389
X4554Y33389
X5554Y23089
X5554Y22089
X6554Y22089
X6554Y23089
X7554Y23089
X7554Y22089
X8554Y22089
X8554Y23089
X9554Y23089
X9554Y22089
X9554Y24389
X9554Y25389
X9554Y26389
X9554Y27389
X9554Y28389
X9554Y29389
X9554Y30389
X9554Y31389
X9554Y32389
X9554Y33389
X10554Y23089
X10554Y22089
X11554Y22089
X11554Y23089
T05
X7804Y6439
X1504Y6439
T06
X10454Y6482
X10454Y4120
X12305Y5301
T07
X12554Y10889
X12554Y33389
X1554Y33389
X1554Y10889
T08
X2404Y5289
X6904Y5289
M30
