G75*
G70*
%OFA0B0*%
%FSLAX24Y24*%
%IPPOS*%
%LPD*%
%AMOC8*
5,1,8,0,0,1.08239X$1,22.5*
%
%ADD10R,0.0118X0.0472*%
%ADD11R,0.0472X0.0118*%
%ADD12R,0.0880X0.0480*%
%ADD13R,0.0866X0.1417*%
%ADD14R,0.0394X0.0433*%
%ADD15R,0.0276X0.0354*%
%ADD16R,0.0472X0.0472*%
%ADD17R,0.0354X0.0276*%
%ADD18R,0.0236X0.0276*%
%ADD19R,0.0551X0.0748*%
%ADD20C,0.0250*%
D10*
X005578Y014145D03*
X005775Y014145D03*
X005972Y014145D03*
X006169Y014145D03*
X006365Y014145D03*
X006562Y014145D03*
X006759Y014145D03*
X006956Y014145D03*
X007153Y014145D03*
X007350Y014145D03*
X007546Y014145D03*
X007743Y014145D03*
X007940Y014145D03*
X008137Y014145D03*
X008334Y014145D03*
X008531Y014145D03*
X008531Y018633D03*
X008334Y018633D03*
X008137Y018633D03*
X007940Y018633D03*
X007743Y018633D03*
X007546Y018633D03*
X007350Y018633D03*
X007153Y018633D03*
X006956Y018633D03*
X006759Y018633D03*
X006562Y018633D03*
X006365Y018633D03*
X006169Y018633D03*
X005972Y018633D03*
X005775Y018633D03*
X005578Y018633D03*
D11*
X004810Y017865D03*
X004810Y017668D03*
X004810Y017471D03*
X004810Y017274D03*
X004810Y017078D03*
X004810Y016881D03*
X004810Y016684D03*
X004810Y016487D03*
X004810Y016290D03*
X004810Y016093D03*
X004810Y015897D03*
X004810Y015700D03*
X004810Y015503D03*
X004810Y015306D03*
X004810Y015109D03*
X004810Y014912D03*
X009298Y014912D03*
X009298Y015109D03*
X009298Y015306D03*
X009298Y015503D03*
X009298Y015700D03*
X009298Y015897D03*
X009298Y016093D03*
X009298Y016290D03*
X009298Y016487D03*
X009298Y016684D03*
X009298Y016881D03*
X009298Y017078D03*
X009298Y017274D03*
X009298Y017471D03*
X009298Y017668D03*
X009298Y017865D03*
D12*
X009734Y009699D03*
X009734Y008789D03*
X009734Y007879D03*
D13*
X012174Y008789D03*
D14*
X009054Y008754D03*
X009054Y009423D03*
D15*
X008898Y010689D03*
X009410Y010689D03*
X008910Y007889D03*
X008398Y007889D03*
X006510Y011989D03*
X005998Y011989D03*
X003410Y014089D03*
X002898Y014089D03*
X002910Y015289D03*
X002910Y015889D03*
X002398Y015889D03*
X002398Y015289D03*
X002398Y017289D03*
X002398Y017789D03*
X002398Y018489D03*
X002910Y018489D03*
X002910Y017789D03*
X002910Y017289D03*
X010398Y016189D03*
X010398Y015689D03*
X010910Y015689D03*
X010910Y016189D03*
X011898Y016489D03*
X012410Y016489D03*
D16*
X010968Y010689D03*
X010141Y010689D03*
D17*
X001154Y004133D03*
X001154Y004645D03*
X003354Y010133D03*
X003354Y010645D03*
X004054Y010645D03*
X004054Y010133D03*
X004854Y010133D03*
X004854Y010645D03*
X005454Y010645D03*
X005454Y010133D03*
X006054Y010133D03*
X006054Y010645D03*
X007054Y010645D03*
X007054Y010133D03*
X008954Y013433D03*
X008954Y013945D03*
X010354Y012645D03*
X010354Y012133D03*
X010854Y012133D03*
X010854Y012645D03*
X010954Y014433D03*
X010954Y014945D03*
X001554Y022633D03*
X001554Y023145D03*
D18*
X002967Y014789D03*
X003342Y014789D03*
D19*
X011882Y014455D03*
X011882Y012723D03*
X012827Y012723D03*
X012827Y014455D03*
D20*
X005954Y013114D02*
X005954Y012864D01*
X005704Y012864D01*
X005704Y013114D01*
X005954Y013114D01*
X005954Y013113D02*
X005704Y013113D01*
X005167Y013114D02*
X005167Y012864D01*
X004917Y012864D01*
X004917Y013114D01*
X005167Y013114D01*
X005167Y013113D02*
X004917Y013113D01*
X004379Y013114D02*
X004379Y012864D01*
X004129Y012864D01*
X004129Y013114D01*
X004379Y013114D01*
X004379Y013113D02*
X004129Y013113D01*
X003592Y013114D02*
X003592Y012864D01*
X003342Y012864D01*
X003342Y013114D01*
X003592Y013114D01*
X003592Y013113D02*
X003342Y013113D01*
X002805Y013114D02*
X002805Y012864D01*
X002555Y012864D01*
X002555Y013114D01*
X002805Y013114D01*
X002805Y013113D02*
X002555Y013113D01*
M02*
